<?xml version="1.0" encoding="utf-8"?>
<!-- Generator: Adobe Illustrator 22.1.0, SVG Export Plug-In . SVG Version: 6.00 Build 0)  -->
<svg version="1.1" id="Слой_1" xmlns="http://www.w3.org/2000/svg" xmlns:xlink="http://www.w3.org/1999/xlink" x="0px" y="0px"
	 viewBox="0 0 511 511" style="enable-background:new 0 0 511 511;" xml:space="preserve">
<style type="text/css">
	.st0{fill:#FFFFFF;}
</style>
<path class="st0" d="M343.1,130.7L292,190.3l-0.1,0.1c-16.6,19.9-46.2,22.6-66.1,6c-2.2-1.8-4.2-3.8-6-6c-3-3.6-8.4-4.1-12-1.1
	c-3.6,3-4.1,8.4-1.1,12c22.6,27.1,62.9,30.8,90.1,8.2c2.9-2.5,5.7-5.2,8.1-8.1l0.1-0.1l51-59.5c2.9-3.7,2.3-9-1.4-12
	C351.1,127.1,346.1,127.5,343.1,130.7L343.1,130.7z"/>
<path class="st0" d="M196.2,93.7c0-4.7-3.8-8.5-8.5-8.5h-59.6c-4.7,0-8.5,3.8-8.5,8.5c0,1.9,0.7,3.8,1.9,5.3l34.1,42.6
	c2.9,3.7,8.3,4.3,12,1.3c3.7-2.9,4.3-8.3,1.3-12l-23-28.7h41.9C192.4,102.2,196.2,98.4,196.2,93.7z"/>
<path class="st0" d="M358,85.2c-4.7,0-8.5,3.8-8.5,8.5c0,4.7,3.8,8.5,8.5,8.5h25.6c4.7,0,8.5-3.8,8.5-8.5c0-4.7-3.8-8.5-8.5-8.5H358
	z"/>
<path class="st0" d="M467.6,4.2c-2.4-4.1-7.6-5.5-11.6-3.1l-71.5,41.4h-333c-4.7,0-8.5,3.8-8.5,8.5c0,2,0.7,4,2,5.5l185.4,219.1v179
	l-107.1,13.8c-11.8,0.2-21.2,9.8-21,21.6c0.2,11.8,9.8,21.2,21.6,21h264c11.8,0.2,21.4-9.2,21.6-21c0.2-11.8-9.2-21.4-21-21.6
	l-107.1-13.8v-179L466.8,56.6c3-3.6,2.6-9-1-12c-1.5-1.3-3.5-2-5.5-2h-41.9l46.1-26.7C468.6,13.5,470,8.3,467.6,4.2z M441.9,59.6
	L266.4,267c-1.3,1.5-2,3.5-2,5.5v189.6c0,4.3,3.2,7.9,7.4,8.4l115,14.8c0.4,0,0.7,0.1,1.1,0.1c2.4,0,4.3,1.9,4.3,4.3
	c0,2.4-1.9,4.3-4.3,4.3h-264c-2.4,0-4.3-1.9-4.3-4.3c0-2.4,1.9-4.3,4.3-4.3c0.4,0,0.7,0,1.1-0.1l115-14.8c4.2-0.5,7.4-4.2,7.4-8.4
	V272.5c0-2-0.7-4-2-5.5L69.8,59.6H355l-60.4,34.9c-18.3-21.5-50.5-24.1-71.9-5.8c-16,13.6-22,35.5-15.2,55.4l-16,10.6
	c-3.9,2.6-5,7.9-2.4,11.8c2.6,3.9,7.9,5,11.8,2.4l14.7-9.8c17.3,22.3,49.3,26.3,71.6,9c17.9-13.9,24.5-37.9,16.2-59L389,59.6H441.9z
	 M228.9,140.1c-1.3-2-3.5-3.3-5.8-3.6c-0.8-2.8-1.2-5.7-1.3-8.7c-0.2-19,15-34.7,34.1-34.9c19-0.2,34.7,15,34.9,34.1
	c0.2,19-15,34.7-34.1,34.9c-10.7,0.1-20.8-4.7-27.5-13.1C230.7,146,230.6,142.7,228.9,140.1z"/>
</svg>
