<?xml version="1.0"?>
<svg xmlns="http://www.w3.org/2000/svg" xmlns:xlink="http://www.w3.org/1999/xlink" version="1.1" id="Layer_1" x="0px" y="0px" viewBox="0 0 512.002 512.002" style="enable-background:new 0 0 512.002 512.002;" xml:space="preserve" width="512px" height="512px" class=""><g><g>
	<g>
		<path d="M401.057,133.12H218.364c-4.201,0-7.606,3.405-7.606,7.606c0,4.202,3.406,7.606,7.606,7.606h175.088v11.242H119.748    v-11.242h25.921c4.201,0,7.606-3.405,7.606-7.606c0-4.202-3.406-7.606-7.606-7.606h-33.527c-4.201,0-7.606,3.405-7.606,7.606    v26.455c0,4.201,3.406,7.606,7.606,7.606h288.915c4.201,0,7.606-3.405,7.606-7.606v-26.455    C408.663,136.524,405.258,133.12,401.057,133.12z" data-original="#000000" class="active-path" data-old_color="#000000" fill="#FFFFFF"/>
	</g>
</g><g>
	<g>
		<path d="M419.246,501.883l-76.554-218.777c36.805-2.559,65.973-33.299,65.973-70.743v-20.758c0-4.202-3.406-7.606-7.606-7.606    H203.825c-4.201,0-7.606,3.405-7.606,7.606s3.406,7.606,7.606,7.606h189.627v13.152c0,30.726-24.997,55.723-55.723,55.723h-5.69    h-24.415H204.379h-24.415h-4.491c-30.726,0-55.723-24.997-55.723-55.723v-13.152h18.943c4.201,0,7.606-3.405,7.606-7.606    s-3.406-7.606-7.606-7.606h-26.549c-4.201,0-7.606,3.405-7.606,7.606v20.758c0,37.047,28.553,67.533,64.805,70.654l-17.612,50.332    c-1.387,3.965,0.702,8.304,4.667,9.692c3.966,1.387,8.304-0.702,9.691-4.667l19.271-55.075h8.299l-20.668,59.063    c-0.814,2.328-0.45,4.904,0.976,6.914c1.426,2.01,3.738,3.205,6.204,3.205h151.661c2.465,0,4.777-1.195,6.204-3.205    s1.79-4.586,0.976-6.914l-20.668-59.063h8.299l74.705,213.49h-8.299l-44.546-127.303c-1.068-3.051-3.947-5.093-7.179-5.093    H170.679c-3.233,0-6.111,2.044-7.179,5.093l-44.546,127.303h-8.319l34.246-98.454c1.38-3.967-0.717-8.303-4.685-9.683    c-3.965-1.377-8.304,0.717-9.682,4.685l-37.762,108.56c-0.809,2.326-0.442,4.899,0.985,6.906c1.427,2.007,3.737,3.199,6.2,3.199    h24.415c3.233,0,6.111-2.044,7.179-5.093l44.546-127.303h159.851l44.546,127.303c1.068,3.051,3.947,5.093,7.179,5.093h24.415    c2.465,0,4.777-1.195,6.204-3.205S420.06,504.21,419.246,501.883z M321.112,337.268H190.89l18.885-53.97h92.451L321.112,337.268z" data-original="#000000" class="active-path" data-old_color="#000000" fill="#FFFFFF"/>
	</g>
</g><g>
	<g>
		<path d="M179.237,55.185c0-3.959,1.542-7.681,4.342-10.481c11.711-11.711,11.711-30.765,0-42.475    c-2.969-2.97-7.786-2.971-10.756-0.001c-2.97,2.97-2.97,7.787,0,10.756c5.779,5.78,5.779,15.184,0,20.963    c-5.672,5.674-8.797,13.217-8.797,21.24c0,8.022,3.125,15.565,8.797,21.237c5.779,5.78,5.779,15.184,0,20.964    c-2.97,2.97-2.97,7.787,0,10.756c1.485,1.485,3.432,2.227,5.378,2.227c1.946,0,3.893-0.742,5.378-2.228    c11.711-11.711,11.711-30.765,0-42.476C180.78,62.866,179.237,59.143,179.237,55.185z" data-original="#000000" class="active-path" data-old_color="#000000" fill="#FFFFFF"/>
	</g>
</g><g>
	<g>
		<path d="M257.635,55.186c0-3.959,1.542-7.681,4.342-10.48c5.673-5.673,8.797-13.216,8.797-21.239    c0-8.022-3.125-15.565-8.797-21.238c-2.971-2.969-7.787-2.969-10.756,0c-2.97,2.971-2.97,7.787,0,10.757    c2.799,2.799,4.342,6.522,4.342,10.48c0,3.959-1.543,7.682-4.342,10.481c-5.672,5.672-8.797,13.215-8.797,21.238    c0,8.022,3.125,15.565,8.797,21.238c2.799,2.799,4.342,6.522,4.342,10.481c0,3.958-1.543,7.681-4.342,10.48    c-2.971,2.971-2.971,7.787,0,10.757c1.485,1.485,3.432,2.227,5.378,2.227s3.893-0.742,5.378-2.227    c5.673-5.673,8.797-13.216,8.797-21.238c0-8.023-3.125-15.566-8.797-21.239C259.178,62.867,257.635,59.144,257.635,55.186z" data-original="#000000" class="active-path" data-old_color="#000000" fill="#FFFFFF"/>
	</g>
</g><g>
	<g>
		<path d="M336.034,55.186c0-3.959,1.542-7.681,4.342-10.48c5.673-5.673,8.797-13.216,8.797-21.239    c0-8.022-3.125-15.565-8.797-21.238c-2.97-2.969-7.787-2.969-10.756,0c-2.97,2.971-2.97,7.787,0,10.757    c2.799,2.799,4.342,6.522,4.342,10.48c0,3.959-1.543,7.682-4.342,10.481c-5.672,5.672-8.797,13.215-8.797,21.238    c0,8.022,3.125,15.565,8.797,21.238c2.799,2.799,4.342,6.522,4.342,10.481c0,3.958-1.543,7.681-4.342,10.48    c-2.971,2.971-2.971,7.787,0,10.757c1.485,1.485,3.432,2.227,5.378,2.227s3.893-0.742,5.378-2.227    c5.673-5.673,8.797-13.216,8.797-21.238c0-8.023-3.125-15.566-8.797-21.239C337.576,62.867,336.034,59.144,336.034,55.186z" data-original="#000000" class="active-path" data-old_color="#000000" fill="#FFFFFF"/>
	</g>
</g></g> </svg>
