<?xml version="1.0"?>
<svg xmlns="http://www.w3.org/2000/svg" id="Capa_1" enable-background="new 0 0 512 512" height="512px" viewBox="0 0 512 512" width="512px" class=""><g><g><g><path d="m504.5 260.622h-8.662v-22.805c0-15.275-12.428-27.703-27.703-27.703h-2.603v-125.26c0-18.916-21.49-40.406-47.906-40.406h-51.84c-4.143 0-7.5 3.358-7.5 7.5s3.357 7.5 7.5 7.5h51.84c18.145 0 32.906 14.762 32.906 32.906v117.76h-12.274v-73.313c0-15.275-12.428-27.703-27.703-27.703h-121.22c-15.275 0-27.703 12.428-27.703 27.703v73.313h-11.264v-73.313c0-15.275-12.428-27.703-27.703-27.703h-121.22c-15.275 0-27.703 12.428-27.703 27.703v73.313h-12.275v-117.76c0-18.145 14.762-32.906 32.907-32.906h236.483c4.143 0 7.5-3.358 7.5-7.5s-3.357-7.5-7.5-7.5h-236.483c-26.416 0-47.907 21.491-47.907 47.906v117.76h-2.602c-15.275 0-27.703 12.428-27.703 27.703v22.805h-8.662c-4.142 0-7.5 3.358-7.5 7.5v191.931c0 4.142 3.358 7.5 7.5 7.5h49.498c3.376 0 6.336-2.256 7.231-5.511l9.596-34.895h239.836c4.143 0 7.5-3.358 7.5-7.5s-3.357-7.5-7.5-7.5h-298.661v-136.525h83.21c4.142 0 7.5-3.358 7.5-7.5s-3.358-7.5-7.5-7.5h-67.047v-22.805c0-7.004 5.699-12.703 12.703-12.703h424.269c7.005 0 12.703 5.699 12.703 12.703v22.805h-347.659c-4.142 0-7.5 3.358-7.5 7.5s3.358 7.5 7.5 7.5h363.821v136.524h-148.276c-4.143 0-7.5 3.358-7.5 7.5s3.357 7.5 7.5 7.5h89.311l8.681 34.725c.835 3.339 3.835 5.681 7.276 5.681h50.508c4.143 0 7.5-3.358 7.5-7.5v-191.93c0-4.142-3.357-7.5-7.5-7.5zm-446.231 166.524-6.986 25.406h-36.283v-25.406zm218.363-290.345c0-7.004 5.698-12.703 12.703-12.703h121.22c7.005 0 12.703 5.699 12.703 12.703v73.313h-146.626zm-187.89 0c0-7.004 5.699-12.703 12.703-12.703h121.22c7.004 0 12.703 5.699 12.703 12.703v73.313h-146.626zm371.106 315.752-6.351-25.406h43.503v25.406z" data-original="#000000" class="active-path" data-old_color="#000000" fill="#FFFFFF"/><path d="m481.695 389.341v-90.915c0-4.142-3.357-7.5-7.5-7.5h-436.39c-4.142 0-7.5 3.358-7.5 7.5v90.915c0 4.142 3.358 7.5 7.5 7.5h436.391c4.142 0 7.499-3.358 7.499-7.5zm-15-7.5h-421.39v-75.915h421.391v75.915z" data-original="#000000" class="active-path" data-old_color="#000000" fill="#FFFFFF"/></g></g></g> </svg>
