<?xml version="1.0" encoding="utf-8"?>
<!-- Generator: Adobe Illustrator 22.1.0, SVG Export Plug-In . SVG Version: 6.00 Build 0)  -->
<svg version="1.1" id="Слой_1" xmlns="http://www.w3.org/2000/svg" xmlns:xlink="http://www.w3.org/1999/xlink" x="0px" y="0px"
	 viewBox="0 0 26 26" style="enable-background:new 0 0 26 26;" xml:space="preserve">
<style type="text/css">
	.st0{fill:#FFFFFF;}
</style>
<path class="st0" d="M3,1.1C2.5,0.6,1.6,0.6,1.1,1.1C0.6,1.7,0.6,2.5,1.1,3L23,24.9c0.6,0.5,1.4,0.5,1.9-0.1c0.5-0.5,0.5-1.3,0-1.9
	L3,1.1z M7.8,16.2L1.1,23c-0.6,0.5-0.6,1.4-0.1,1.9S2.4,25.5,3,25c0,0,0,0,0.1-0.1l6.7-6.7c0.5-0.6,0.5-1.4-0.1-1.9
	C9.2,15.7,8.4,15.7,7.8,16.2L7.8,16.2z M17.1,10.2c0.4,0,0.7-0.1,1-0.4L24.9,3c0.5-0.6,0.5-1.4-0.1-1.9c-0.5-0.5-1.3-0.5-1.9,0
	l-6.8,6.8c-0.5,0.5-0.5,1.4,0,1.9C16.4,10.1,16.8,10.2,17.1,10.2L17.1,10.2z"/>
</svg>
