<?xml version="1.0"?>
<svg xmlns="http://www.w3.org/2000/svg" xmlns:xlink="http://www.w3.org/1999/xlink" version="1.1" id="Capa_1" x="0px" y="0px" viewBox="0 0 512 512" style="enable-background:new 0 0 512 512;" xml:space="preserve" width="512px" height="512px"><g><g>
	<g>
		<g>
			<path d="M467.862,0H44.138C19.421,0,0,19.421,0,44.138v317.793c0,24.717,19.421,44.138,44.138,44.138h127.117l-26.483,52.966     h-12.359c-15.007,0-26.483,11.476-26.483,26.483c0,15.007,11.476,26.483,26.483,26.483h247.172     c15.007,0,26.483-11.476,26.483-26.483c0-15.007-11.476-26.483-26.483-26.483H368.11l-26.483-52.966h126.234     c24.717,0,44.138-19.421,44.138-44.138V44.138C512,19.421,492.579,0,467.862,0z M346.924,459.034H185.379     c-5.297,0-8.828,3.531-8.828,8.828c0,5.297,3.531,8.828,8.828,8.828h194.207c5.297,0,8.828,3.531,8.828,8.828     c0,5.297-3.531,8.828-8.828,8.828H132.414c-5.297,0-8.828-3.531-8.828-8.828c0-5.297,3.531-8.828,8.828-8.828h17.655     c3.531,0,6.179-1.766,7.945-5.297l15.007-30.014h47.669c5.297,0,8.828-3.531,8.828-8.828c0-5.297-3.531-8.828-8.828-8.828     h-38.841l8.828-17.655h128.883L346.924,459.034z M494.345,282.483H44.138c-5.297,0-8.828,3.531-8.828,8.828     c0,5.297,3.531,8.828,8.828,8.828h450.207v61.793c0,15.007-11.476,26.483-26.483,26.483H44.138     c-15.007,0-26.483-11.476-26.483-26.483V44.138c0-15.007,11.476-26.483,26.483-26.483h423.724     c15.007,0,26.483,11.476,26.483,26.483V282.483z" data-original="#000000" class="active-path" data-old_color="#000000" fill="#FFFFFF"/>
			<path d="M256,370.759c15.007,0,26.483-11.476,26.483-26.483S271.007,317.793,256,317.793s-26.483,11.476-26.483,26.483     S240.993,370.759,256,370.759z M256,335.448c5.297,0,8.828,3.531,8.828,8.828c0,5.297-3.531,8.828-8.828,8.828     s-8.828-3.531-8.828-8.828C247.172,338.979,250.703,335.448,256,335.448z" data-original="#000000" class="active-path" data-old_color="#000000" fill="#FFFFFF"/>
			<path d="M108.579,37.959l-70.621,70.621c-3.531,3.531-3.531,8.828,0,12.359c1.766,1.766,3.531,2.648,6.179,2.648     c2.648,0,4.414-0.883,6.179-2.648l70.621-70.621c3.531-3.531,3.531-8.828,0-12.359S112.11,34.428,108.579,37.959z" data-original="#000000" class="active-path" data-old_color="#000000" fill="#FFFFFF"/>
			<path d="M44.138,88.276c2.648,0,4.414-0.883,6.179-2.648l35.31-35.31c3.531-3.531,3.531-8.828,0-12.359     c-3.531-3.531-8.828-3.531-12.359,0l-35.31,35.31c-3.531,3.531-3.531,8.828,0,12.359C39.724,87.393,41.49,88.276,44.138,88.276z" data-original="#000000" class="active-path" data-old_color="#000000" fill="#FFFFFF"/>
			<path d="M108.579,73.269l-35.31,35.31c-3.531,3.531-3.531,8.828,0,12.359c1.766,1.766,4.414,2.648,6.179,2.648     c1.766,0,4.414-0.883,6.179-2.648l35.31-35.31c3.531-3.531,3.531-8.828,0-12.359C117.407,69.738,112.11,69.738,108.579,73.269z" data-original="#000000" class="active-path" data-old_color="#000000" fill="#FFFFFF"/>
			<path d="M432.552,370.759c15.007,0,44.138-8.828,44.138-44.138c0-5.297-3.531-8.828-8.828-8.828     c-5.297,0-8.828,3.531-8.828,8.828c0,24.717-22.069,26.483-26.483,26.483c-4.414,0-8.828,3.531-8.828,8.828     C423.724,367.228,427.255,370.759,432.552,370.759z" data-original="#000000" class="active-path" data-old_color="#000000" fill="#FFFFFF"/>
		</g>
	</g>
</g></g> </svg>
