<?xml version="1.0"?>
<svg xmlns="http://www.w3.org/2000/svg" xmlns:xlink="http://www.w3.org/1999/xlink" version="1.1" id="Layer_1" x="0px" y="0px" viewBox="0 0 512.001 512.001" style="enable-background:new 0 0 512.001 512.001;" xml:space="preserve" width="512px" height="512px"><g><g>
	<g>
		<path d="M467.19,128.838L383.16,44.808c-2.94-2.939-7.694-2.974-10.676-0.079l-12.737,12.363    c-2.191,2.127-2.898,5.357-1.796,8.204l23.558,60.855c0.773,1.997,2.351,3.575,4.348,4.348l60.848,23.549    c0.892,0.345,1.822,0.513,2.743,0.513c2.019,0,4-0.805,5.46-2.309l12.362-12.737C470.164,136.532,470.128,131.777,467.19,128.838z     M447.499,138.043l-53.017-20.518L373.957,64.5l3.745-3.636l73.432,73.433L447.499,138.043z" data-original="#000000" class="active-path" data-old_color="#000000" fill="#FFFFFF"/>
	</g>
</g><g>
	<g>
		<path d="M509.772,128.528l-19.414-19.414c-2.972-2.971-7.787-2.971-10.758,0c-2.971,2.971-2.971,7.787,0,10.756l14.114,14.114    l-27.93,28.77c-6.382,6.58-16.037,8.691-24.588,5.385l-48.595-18.82c-2.81-1.086-5.995-0.417-8.127,1.714l-12.281,12.281    l-23.518-23.519l12.282-12.282c2.13-2.13,2.802-5.316,1.714-8.125L343.86,70.803c-3.311-8.553-1.199-18.21,5.378-24.599    l28.775-27.921l81.334,81.335c2.972,2.971,7.787,2.971,10.757,0c2.971-2.971,2.971-7.787,0-10.756L383.472,2.228    c-2.939-2.938-7.693-2.976-10.675-0.08l-34.156,33.142c-10.966,10.654-14.487,26.75-8.967,41.007l17.024,43.966l-73.705,73.703    c-2.971,2.971-2.971,7.787,0,10.756c1.486,1.486,3.432,2.228,5.379,2.228c1.946,0,3.893-0.742,5.379-2.228l54.169-54.168    l23.518,23.518l-78.618,78.619l-23.519-23.518l4.976-4.976c2.971-2.971,2.971-7.787,0-10.756c-2.972-2.971-7.787-2.971-10.757,0    L135.748,331.209l-46.199-38.181c-3.007-2.484-7.407-2.292-10.184,0.445l-20.411,20.114    c-24.067,24.067-41.753,54.084-51.149,86.806c-9.398,32.738-10.326,67.588-2.682,100.783c0.653,2.837,2.869,5.053,5.706,5.706    c14.839,3.416,29.998,5.118,45.155,5.118c19.007,0,38.008-2.678,56.34-8.017c32.953-9.594,63.101-27.59,87.186-52.04    l19.016-19.312c2.736-2.779,2.927-7.176,0.443-10.182l-38.189-46.206l107.414-107.414c0.001-0.001,0.002-0.002,0.003-0.003    c0.001-0.001,0.002-0.002,0.003-0.003l103.527-103.528l43.977,17.032c4.476,1.731,9.132,2.572,13.743,2.572    c10.083,0,19.954-4.022,27.253-11.551l33.148-34.144C512.747,136.222,512.71,131.467,509.772,128.528z M202.871,426.848    l-14.199,14.42c-22.265,22.602-50.135,39.238-80.6,48.108c-28.929,8.423-59.64,9.683-89.14,3.696    c-5.943-29.266-4.753-59.754,3.495-88.48c8.685-30.25,25.035-57.999,47.284-80.248l15.44-15.215l39.792,32.885l-23.993,23.993    c-8.087,8.087-14.284,17.606-18.417,28.291c-4.134,10.67-5.952,21.884-5.405,33.328c0.187,3.917,3.32,7.049,7.237,7.235    c1.286,0.061,2.57,0.091,3.852,0.091c21.578,0,42.448-8.595,57.766-23.913l23.992-23.993L202.871,426.848z M135.228,400.283    c-11.48,11.479-26.79,18.318-42.856,19.326c0.415-6.78,1.87-13.419,4.35-19.82c3.364-8.7,8.407-16.446,14.986-23.026    l136.835-136.835l23.519,23.52L135.228,400.283z" data-original="#000000" class="active-path" data-old_color="#000000" fill="#FFFFFF"/>
	</g>
</g></g> </svg>
