<?xml version="1.0" encoding="utf-8"?>
<!-- Generator: Adobe Illustrator 22.1.0, SVG Export Plug-In . SVG Version: 6.00 Build 0)  -->
<svg version="1.1" id="Слой_1" xmlns="http://www.w3.org/2000/svg" xmlns:xlink="http://www.w3.org/1999/xlink" x="0px" y="0px"
	 viewBox="0 0 95.7 23.7" style="enable-background:new 0 0 95.7 23.7;" xml:space="preserve">
<style type="text/css">
	.st0{display:none;}
	.st1{display:inline;}
	.st2{fill:#FFFFFF;}
</style>
<g id="OBJECTS">
	<g>
		<g>
			<g class="st0">
				<g class="st1">
					<path d="M63.4,72.9c0.1,5.3-0.7,10.6-2.7,15.6c-1.9,4.9-4.9,9.5-8.9,13.1c-1,0.9-2,1.7-3.2,2.4c-1.1,0.8-2.3,1.4-3.4,2
						c-2.4,1.2-5,2-7.6,2.5s-5.3,0.6-8,0.3c-1.3-0.2-2.6-0.5-3.9-0.9s-2.5-1-3.6-1.7s-2.2-1.5-3.1-2.6s-1.5-2.3-1.7-3.7
						c-0.2-1.3,0-2.8,0.7-4c0.8-1.2,1.9-2,3.2-2.6c2.5-1.1,5.3-1.3,7.9-1.2c2.7,0.1,5.3,0.6,7.9,1.1c5.2,1.2,10.1,3.1,15,5.2
						c4.8,2.1,9.9,3.7,15,4.9c5.1,1.2,10.4,1.9,15.6,2c2.6,0,5.2-0.1,7.8-0.5c2.6-0.4,5.1-1.1,7.3-2.4c1.1-0.7,2.1-1.5,2.7-2.6
						c0.7-1.1,1-2.3,1-3.6c0-1.3-0.2-2.6-0.8-3.7c-0.3-0.6-0.6-1-1.1-1.5c-0.5-0.4-1-0.7-1.6-0.9c-1.2-0.4-2.5-0.4-3.8-0.2
						c-1.3,0.1-2.6,0.4-3.8,0.8c-2.5,0.7-5,1.7-7.4,2.8c-4.8,2.1-9.5,4.6-14.2,7c-4.7,2.5-9.3,5-14,7.4c-9.4,4.8-19,9.5-29.4,11.7
						c-2.6,0.5-5.2,0.9-7.9,0.9c-2.6,0-5.3-0.3-7.9-1.1l-0.9-0.3c-0.3-0.1-0.6-0.3-0.9-0.5c-0.6-0.3-1.1-0.7-1.7-1.1
						c-1-0.9-1.9-2-2.3-3.2c-0.5-1.3-0.5-2.7-0.3-4c0.3-1.3,0.7-2.6,1.4-3.8c1.4-2.3,3.4-4.2,5.7-5.6c0.6-0.4,1.2-0.7,1.8-1
						s1.2-0.6,1.9-0.8l0.9-0.4l1-0.3c0.6-0.2,1.3-0.4,2-0.5c2.6-0.6,5.4-0.9,8.1-0.8c1.4,0,2.7,0.2,4.1,0.3l2,0.4l1,0.2l1,0.2
						c5.3,1.3,10.2,3.4,15.1,5.3c4.9,2,9.8,3.8,14.7,5.7c2.4,0.9,4.9,1.8,7.4,2.6c2.5,0.8,5,1.5,7.5,2.1c5,1.3,10.1,2.2,15.3,2.4
						c5.2,0.2,10.4-0.1,15.4-1.3c2.5-0.6,4.9-1.5,6.9-2.9c1-0.7,1.8-1.6,2.2-2.6c0.4-1,0.4-2.2-0.1-3.3c-0.5-1.1-1.3-2-2.3-2.7
						c-1-0.8-2.1-1.4-3.3-1.9c-2.3-1-4.9-1.8-7.4-2.2c-5.1-0.9-10.4-0.6-15.5,0.5c-2.6,0.6-5.1,1.3-7.5,2.3s-4.8,2.2-7.2,3.3
						c-2.4,1.1-4.8,2.2-7.2,3.3c-2.4,1.2-4.7,2.4-6.8,3.9s-3.9,3.6-4.7,6.1c-0.9,2.5-1,5.2-1,7.8c0.1,5.3,1,10.5,1.8,15.7
						c-0.8-5.2-1.7-10.4-1.9-15.7c-0.1-2.6,0.1-5.3,0.9-7.8c0.8-2.6,2.6-4.7,4.7-6.3c2.1-1.6,4.5-2.9,6.8-4.1
						c2.4-1.2,4.7-2.3,7.1-3.5c2.4-1.1,4.7-2.4,7.2-3.4c2.4-1,5-1.9,7.6-2.5c5.2-1.2,10.6-1.6,15.9-0.8c2.6,0.4,5.3,1.1,7.7,2.2
						c1.2,0.5,2.5,1.2,3.6,2s2.1,1.9,2.8,3.2c0.6,1.3,0.8,2.9,0.3,4.4s-1.5,2.6-2.6,3.4c-2.3,1.7-4.8,2.7-7.4,3.5
						c-5.2,1.5-10.6,2.2-16,2.2s-10.8-0.7-16-1.9c-5.2-1.1-10.3-2.8-15.3-4.6c-5-1.8-9.9-3.9-14.7-6c-2.4-1.1-4.8-2.1-7.2-3.2
						c-1.2-0.5-2.4-1.1-3.6-1.5c-0.6-0.2-1.2-0.5-1.8-0.7l-1.8-0.6l-0.9-0.3l-0.9-0.2l-1.9-0.5c-1.3-0.2-2.5-0.5-3.8-0.6
						c-2.6-0.3-5.2-0.3-7.7,0.2c-2.6,0.4-5.1,1.2-7.3,2.5s-4.3,3-5.7,5.2c-0.7,1.1-1.2,2.3-1.5,3.6c-0.2,1.3-0.1,2.6,0.3,3.8
						c0.4,1.2,1.3,2.3,2.2,3.1c0.5,0.4,1,0.8,1.6,1.1c0.3,0.1,0.6,0.3,0.9,0.4l0.9,0.3c2.5,0.9,5.1,1.1,7.7,1c2.6,0,5.2-0.4,7.8-1
						c5.1-1.2,10-3.1,14.9-5.2c4.8-2.1,9.5-4.4,14.2-6.9c4.7-2.4,9.3-4.9,14-7.4s9.3-4.9,14.2-7.1c2.4-1.1,4.9-2.1,7.5-2.9
						c1.3-0.4,2.6-0.7,4-0.9c1.4-0.2,2.8-0.2,4.3,0.2c0.7,0.2,1.4,0.6,2.1,1.1c0.6,0.5,1.1,1.2,1.4,1.9c0.7,1.4,0.9,2.8,0.9,4.3
						c0.1,1.5-0.3,3.1-1.1,4.4c-0.8,1.3-1.9,2.3-3.2,3.1c-2.5,1.6-5.2,2.3-7.9,2.8c-2.7,0.5-5.4,0.6-8.1,0.6
						c-5.4-0.1-10.8-0.7-16-1.9c-5.2-1.2-10.4-2.8-15.3-4.9c-4.8-2.1-9.7-4-14.7-5.2c-2.5-0.5-5-1.1-7.5-1.2s-5,0.1-7.1,1
						c-1,0.5-1.9,1.1-2.4,1.9c-0.1,0.2-0.2,0.4-0.3,0.6c-0.1,0.2-0.1,0.5-0.2,0.7s0,0.5-0.1,0.8c0,0.3,0,0.5,0,0.8
						c0.1,1,0.6,2,1.3,2.9c0.7,0.9,1.7,1.6,2.7,2.3c2,1.3,4.5,2.1,6.9,2.5c2.5,0.3,5.1,0.2,7.6-0.2c2.5-0.4,5-1.2,7.3-2.3
						c1.1-0.5,2.3-1.1,3.3-1.9c1.1-0.7,2.1-1.5,3.1-2.3c3.9-3.3,6.9-7.7,8.9-12.5c2-4.8,3-10,3-15.3L63.4,72.9z"/>
				</g>
			</g>
			<g class="st0">
				<g class="st1">
					<path d="M396.9,107.4c0,0.4,0,0.7,0.1,0.8c0.1,0.1,0.3,0.3,0.7,0.2c0.8-0.1,1.7-0.6,2.3-1.3c0.7-0.7,1.1-1.6,1.1-2.5
						c0.1-1-0.3-1.9-0.9-2.7c-0.6-0.9-1.3-1.5-2.3-1.9c-0.9-0.4-2-0.5-3.1-0.5s-2.1,0.2-3,0.6s-1.8,1-2.5,1.8
						c-1.4,1.6-2.2,3.6-2.3,5.7c-0.1,2,0.6,4.1,1.8,5.7c1.2,1.6,3.1,2.6,5.1,3s4.1,0.3,6.1-0.3c2-0.5,3.9-1.4,5.4-2.7
						c1.5-1.3,2.8-2.9,3.8-4.7c2.1-3.5,2.8-7.9,1.9-11.9c-0.5-2-1.4-3.9-2.8-5.6c-1.4-1.6-3.1-2.9-5-3.8c-3.9-1.9-8.4-2.1-12.7-1.6
						c-4.3,0.5-8.4,2.2-12.1,4.5s-7,5.1-10.3,7.8c-6.6,5.6-13.3,11.4-20.8,16.2c-3.8,2.4-7.7,4.5-11.9,6c-4.2,1.5-8.6,2.5-13.1,2.9
						c-4.4,0.4-9,0-13.3-1.3s-8.3-3.5-11.4-6.6c-0.1-0.1-0.1-0.2,0-0.3c0.1-0.1,0.2-0.1,0.3,0c3.4,2.7,7.4,4.6,11.5,5.6
						c4.2,0.9,8.5,1,12.7,0.5s8.4-1.6,12.3-3.2c4-1.6,7.7-3.6,11.3-6c3.6-2.4,7-4.9,10.4-7.7c3.4-2.7,6.6-5.6,10.2-8.2
						s7.3-5,11.4-6.8c4-1.9,8.3-3.3,12.6-3.7c4.3-0.4,8.9-0.2,13,1.4s7.6,5.2,9,9.6s0.8,9.3-1.3,13.4c-1.1,2.1-2.5,3.9-4.5,5.3
						c-1.9,1.4-4.1,2.3-6.3,2.8c-2.3,0.5-4.6,0.5-6.9,0s-4.4-1.8-5.8-3.8c-1.3-1.9-1.9-4.3-1.8-6.6c0.2-2.3,1.1-4.5,2.7-6.2
						c0.8-0.8,1.7-1.5,2.8-2c1.1-0.5,2.2-0.6,3.3-0.6c1.1,0,2.3,0.1,3.4,0.5s2.1,1.2,2.8,2.1c0.7,0.9,1.2,2.1,1.2,3.3
						c0,1.2-0.4,2.5-1.2,3.4c-0.8,1-1.7,1.8-3.1,2.1c-0.7,0.2-1.6,0.2-2.4-0.4s-1-1.5-1.1-2.2v-0.1c-0.1-0.6,0.3-1.2,1-1.3
						c0.6-0.1,1.2,0.3,1.3,1C396.9,107.2,396.9,107.3,396.9,107.4z"/>
				</g>
				<g class="st1">
					<path d="M374.6,116.8c0.3-0.9,0.7-1.6,1.3-2.3c0.6-0.6,1.4-1.1,2.3-1.2c0.8-0.1,1.7,0,2.5,0.2s1.6,0.6,2.2,1.2
						c1.1,1.3,1.5,3.1,1,4.7c-0.4,1.6-1.5,3-3,3.9c-1.4,0.9-3.1,1.1-4.8,1.1l-1.2-0.1c-0.4-0.1-0.8-0.1-1.2-0.3
						c-0.8-0.2-1.6-0.6-2.3-1.1c-2.8-1.9-4.5-5.2-4.9-8.5c-0.4-3.4,0.5-6.8,2.3-9.6c1.8-2.8,4.3-5.1,7.1-6.8
						c5.5-3.5,11.8-5.4,18.1-6.7c-6.2,1.7-12.3,3.9-17.4,7.6c-2.5,1.9-4.8,4.1-6.5,6.7s-2.6,5.6-2.4,8.7c0.2,3,1.7,6.1,4.1,7.9
						c1.2,0.9,2.7,1.4,4.3,1.4c1.5,0.1,3.1-0.1,4.5-0.9c1.4-0.7,2.4-2,2.8-3.5s0.2-3.2-0.9-4.3c-0.6-0.5-1.2-0.9-2-1
						c-0.8-0.2-1.5-0.2-2.3-0.1c-0.7,0.2-1.4,0.6-1.8,1.1c-0.4,0.6-0.8,1.3-0.9,2l0,0c0,0.3-0.3,0.5-0.6,0.4
						C374.7,117.4,374.5,117.2,374.6,116.8C374.6,116.9,374.6,116.8,374.6,116.8z"/>
				</g>
				<g class="st1">
					<path d="M313.7,93.1c0-0.4,0-0.7-0.1-0.8c-0.1-0.1-0.3-0.3-0.7-0.2c-0.8,0.1-1.7,0.6-2.3,1.3c-0.7,0.7-1.1,1.6-1.1,2.5
						c-0.1,1,0.3,1.9,0.9,2.7c0.6,0.9,1.3,1.5,2.3,1.9c0.9,0.4,2,0.5,3.1,0.5s2.1-0.2,3-0.6s1.8-1,2.5-1.8c1.4-1.6,2.2-3.6,2.3-5.7
						c0.1-2-0.6-4.1-1.8-5.7c-1.2-1.6-3.1-2.6-5.1-3s-4.1-0.3-6.1,0.3c-2,0.5-3.9,1.4-5.4,2.7c-1.5,1.3-2.8,2.9-3.8,4.7
						c-2.1,3.5-2.8,7.9-1.9,11.9c0.5,2,1.4,3.9,2.8,5.6c1.4,1.6,3.1,2.9,5,3.8c3.9,1.9,8.4,2.1,12.7,1.6c4.3-0.5,8.4-2.2,12.1-4.5
						s7-5.1,10.3-7.8c6.6-5.6,13.3-11.4,20.8-16.2c3.8-2.4,7.7-4.5,11.9-6c4.2-1.5,8.6-2.5,13.1-2.9c4.4-0.4,9,0,13.3,1.3
						s8.3,3.5,11.4,6.6c0.1,0.1,0.1,0.2,0,0.3c-0.1,0.1-0.2,0.1-0.3,0c-3.4-2.7-7.4-4.6-11.5-5.6c-4.2-0.9-8.5-1-12.7-0.5
						s-8.4,1.6-12.3,3.2c-4,1.6-7.7,3.6-11.3,6c-3.6,2.4-7,4.9-10.4,7.7c-3.4,2.7-6.6,5.6-10.2,8.2s-7.3,5-11.4,6.8
						c-4,1.9-8.3,3.3-12.6,3.7c-4.3,0.4-8.9,0.2-13-1.4s-7.6-5.2-9-9.6s-0.8-9.3,1.3-13.4c1.1-2.1,2.5-3.9,4.5-5.3
						c1.9-1.4,4.1-2.3,6.3-2.8c2.3-0.5,4.6-0.5,6.9,0s4.4,1.8,5.8,3.8c1.3,1.9,1.9,4.3,1.8,6.6c-0.2,2.3-1.1,4.5-2.7,6.2
						c-0.8,0.8-1.7,1.5-2.8,2c-1.1,0.5-2.2,0.6-3.3,0.6c-1.1,0-2.3-0.1-3.4-0.5s-2.1-1.2-2.8-2.1c-0.7-0.9-1.2-2.1-1.2-3.3
						c0-1.2,0.4-2.5,1.2-3.4c0.8-1,1.7-1.8,3.1-2.1c0.7-0.2,1.6-0.2,2.4,0.4s1,1.5,1.1,2.2v0.1c0.1,0.6-0.3,1.2-1,1.3
						s-1.2-0.3-1.3-1C313.7,93.3,313.7,93.2,313.7,93.1z"/>
				</g>
				<g class="st1">
					<path d="M336.1,83.7c-0.3,0.9-0.7,1.6-1.3,2.3c-0.6,0.6-1.4,1.1-2.3,1.2c-0.8,0.1-1.7,0-2.5-0.2s-1.6-0.6-2.2-1.2
						c-1.1-1.3-1.5-3.1-1-4.7c0.4-1.6,1.5-3,3-3.9c1.4-0.9,3.1-1.1,4.8-1.1l1.2,0.1c0.4,0.1,0.8,0.1,1.2,0.3
						c0.8,0.2,1.6,0.6,2.3,1.1c2.8,1.9,4.5,5.2,4.9,8.5c0.4,3.4-0.5,6.8-2.3,9.6c-1.8,2.8-4.3,5.1-7.1,6.8
						c-5.5,3.5-11.8,5.4-18.1,6.7c6.2-1.7,12.3-3.9,17.4-7.6c2.5-1.9,4.8-4.1,6.5-6.7s2.6-5.6,2.4-8.7c-0.2-3-1.7-6.1-4.1-7.9
						c-1.2-0.9-2.7-1.4-4.3-1.4c-1.5-0.1-3.1,0.1-4.5,0.9c-1.4,0.7-2.4,2-2.8,3.5s-0.2,3.2,0.9,4.3c0.6,0.5,1.2,0.9,2,1
						c0.8,0.2,1.5,0.2,2.3,0.1c0.7-0.2,1.4-0.6,1.8-1.1c0.4-0.6,0.8-1.3,0.9-2l0,0c0-0.3,0.3-0.5,0.6-0.4
						C335.9,83,336.1,83.3,336.1,83.7C336.1,83.6,336.1,83.6,336.1,83.7z"/>
				</g>
			</g>
			<g class="st0">
				<g class="st1">
					<path d="M176.8-97.3c1-1.1,2-1.8,3.1-2.5c1.1-0.6,2.3-1.1,3.6-1.3c2.5-0.5,5-0.2,7.3,0.5c4.6,1.6,8.6,4.4,12.6,7.2
						c7.9,5.5,15.8,11.3,24.6,15.2c4.4,2,9,3.5,13.8,4.1c2.4,0.3,4.8,0.4,7.2,0.2c2.4-0.2,4.8-0.6,6.9-1.5c0.6-0.2,1-0.5,1.6-0.8
						c0.5-0.3,1-0.6,1.4-1c0.8-0.8,1.5-1.7,1.9-2.8c0.7-2.2,0.1-4.6-1.2-6.4c-1.3-1.9-3.1-3.5-5.1-4.7s-4.2-2.1-6.5-2.6
						c-4.6-1.1-9.3-1-14-0.1s-9.2,2.3-13.7,4c-9,3.3-17.7,7.5-26.6,11.3c-4.5,1.9-9,3.7-13.7,5.1c-4.6,1.5-9.5,2.6-14.4,3
						c-2.4,0.3-5,0.1-7.4-0.5s-4.7-1.8-6.6-3.5c-1.8-1.7-3.1-4-3.6-6.5c-0.3-1.2-0.3-2.5-0.2-3.7s0.4-2.4,0.9-3.6
						c0.9-2.3,2.7-4.2,4.8-5.5s4.5-1.9,7-2.1c2.4-0.2,4.9,0.1,7.2,0.7c2.4,0.5,4.7,1.4,6.9,2.3c8.9,3.9,16.7,9.7,24.7,15.1
						c4,2.7,8,5.4,12.2,7.7c4.2,2.3,8.7,4.3,13.4,5.2c2.3,0.4,4.7,0.6,7.1,0.3c2.4-0.2,4.7-0.8,6.8-1.9c0.5-0.2,1-0.6,1.5-0.9
						c0.4-0.4,0.9-0.7,1.3-1.1c0.8-0.8,1.5-1.8,1.9-2.8c0.9-2.1,1-4.6,0.1-6.7c-0.8-2.1-2.4-3.9-4.4-5c-1-0.6-2.1-1-3.2-1.2
						c-1.1-0.3-2.3-0.4-3.4-0.4c-4.7,0.2-9.2,1.8-13.5,3.9c-8.5,4.3-16.4,10-25.4,14c-4.5,2-9.3,3.3-14.2,3.7s-9.9-0.3-14.2-2.7
						c-1-0.6-2.1-1.3-2.9-2.2c-0.9-0.8-1.7-1.7-2.3-2.8c-1.3-2-1.9-4.5-1.7-7c0.2-2.4,1.5-4.7,3.5-6.2c1.9-1.5,4.4-2.2,6.9-2.4l0,0
						c1-0.2,2.1-0.2,3.1,0c1,0.1,2.1,0.5,3,1.1s1.7,1.4,2.2,2.3c0.3,0.5,0.5,1,0.7,1.5s0.3,1,0.4,1.5c0.1,0.4-0.1,0.9-0.6,1
						c-0.4,0.1-0.9-0.1-1-0.6c0,0,0,0,0-0.1v-0.1c-0.1-0.4-0.1-0.9-0.2-1.4c-0.1-0.4-0.2-0.9-0.5-1.3c-0.4-0.8-1-1.5-1.7-2.1
						c-1.5-1.1-3.5-1.5-5.4-1.3l0,0c-2.3,0.1-4.8,0.6-6.7,2c-2,1.3-3.3,3.6-3.5,6c-0.3,2.4,0.3,4.8,1.6,6.9c1.2,2.1,3.1,3.7,5.2,4.9
						c2.1,1.1,4.5,1.8,6.9,2.1c1.2,0.1,2.4,0.2,3.6,0.1c1.2,0,2.4-0.2,3.6-0.3c4.7-0.7,9.2-2.4,13.5-4.4s8.5-4.3,12.7-6.8
						c4.2-2.4,8.3-5,12.7-7.1s9.2-3.8,14.2-3.8c2.5,0.1,5.1,0.6,7.2,2c2.2,1.3,3.9,3.4,4.8,5.7c0.9,2.4,0.8,5.1-0.3,7.4
						c-0.5,1.2-1.3,2.2-2.2,3.1c-0.4,0.5-0.9,0.8-1.4,1.2c-0.5,0.3-1,0.7-1.6,1c-2.2,1.1-4.7,1.7-7.1,1.9c-2.4,0.2-4.9,0.1-7.3-0.4
						c-4.8-1-9.3-3-13.5-5.4C207-72,203-74.8,199-77.5c-4-2.8-7.9-5.6-12-8.2s-8.2-5.1-12.7-7c-2.2-0.9-4.5-1.7-6.9-2.2
						c-2.3-0.5-4.8-0.8-7.1-0.6c-2.4,0.2-4.7,0.8-6.8,2.1c-2,1.3-3.6,3.2-4.5,5.4c-0.4,1.1-0.7,2.3-0.8,3.4c-0.1,0.6,0,1.2,0,1.8
						c0.1,0.6,0.1,1.2,0.3,1.7c0.5,2.3,1.8,4.4,3.5,5.9c1.8,1.5,3.9,2.5,6.2,3s4.6,0.5,7,0.1c4.7-0.5,9.3-1.8,13.8-3.4
						s8.9-3.5,13.3-5.5c8.8-3.9,17.6-8,26.8-11.3c4.6-1.6,9.4-2.9,14.2-3.7c4.8-0.8,10-0.7,14.8,0.6c2.4,0.7,4.7,1.7,6.8,3
						c2.1,1.4,4,3.1,5.3,5.2s2,4.9,1.1,7.4c-0.4,1.2-1.3,2.3-2.2,3.1c-0.5,0.4-1,0.7-1.5,1.1c-0.6,0.3-1.1,0.6-1.7,0.8
						c-2.3,0.9-4.8,1.3-7.2,1.4s-4.9,0-7.3-0.3c-4.8-0.7-9.4-2.3-13.8-4.4c-8.8-4.1-16.7-9.8-24.5-15.4c-2-1.4-4-2.8-6-4.1
						c-1-0.6-2.1-1.3-3.2-1.7c-1.1-0.6-2.2-0.9-3.4-1.3c-0.6-0.1-1.2-0.3-1.8-0.4c-0.6,0-1.2-0.1-1.8-0.1c-1.2,0.1-2.4,0.2-3.5,0.6
						s-2.1,1-3,1.7c-0.4,0.4-0.8,0.8-1.2,1.2c-0.3,0.4-0.7,0.9-0.8,1.3c-0.2,0.6-0.9,0.9-1.5,0.7c-0.6-0.2-0.9-0.9-0.7-1.5
						C176.6-97.1,176.7-97.2,176.8-97.3L176.8-97.3z"/>
				</g>
			</g>
			<g class="st0">
				<g class="st1">
					<path d="M400.7-95.8c-1-0.7-1.7-1.4-2.5-2s-1.7-1.1-2.7-1.4c-2-0.7-4.3-0.7-6.5-0.6c-2.2,0.2-4.4,0.6-6.6,1.3
						c-2.2,0.6-4.4,1.3-6.6,2.1c-8.7,3.1-16.9,7.3-24.4,12.8c-3.8,2.6-6.8,6.3-8.8,10.4c-1,2.1-1.9,4.2-2.4,6.4
						c-0.5,2.2-0.6,4.6,0.2,6.7c0.4,1.1,1,2,1.7,2.8c0.8,0.8,1.7,1.3,2.7,1.5s2,0,2.8-0.6c0.8-0.5,1.5-1.3,2-2.2
						c1.9-3.8,1.7-8.4-0.2-12.3c-0.9-2-2.2-3.8-3.6-5.5c-1.5-1.6-3.4-2.9-5.3-4.1c-3.9-2.3-8.4-3.9-13-4.6c-2.3-0.4-4.6-0.5-6.9-0.5
						s-4.7,0.1-6.9,0.7c-1.1,0.3-2.2,0.7-3.1,1.3c-0.9,0.5-1.9,1.3-2,2.1c-0.1,0.7,0.5,1.5,1.4,2s1.9,0.9,2.9,1.2
						c0.5,0.1,1,0.2,1.6,0.2l1.6,0.1c1.1,0,2.2-0.1,3.3-0.2c2.2-0.3,4.3-0.8,6.4-1.6c4.2-1.5,8.2-3.6,12.1-6.1
						c7.7-5,14.4-11.3,20.8-18c0.1-0.1,0.2-0.1,0.3,0c0.1,0.1,0.1,0.2,0,0.3c-5.5,7.5-12,14.4-19.7,19.8c-3.9,2.7-8.1,5-12.6,6.6
						c-4.5,1.5-9.5,2.3-14.4,0.9c-1.2-0.4-2.3-1-3.3-1.8c-0.5-0.4-1-0.9-1.3-1.5c-0.4-0.6-0.6-1.5-0.3-2.2c0.2-0.8,0.7-1.3,1.2-1.7
						c0.5-0.4,1.1-0.7,1.6-0.9c1.1-0.5,2.2-0.8,3.4-1c2.3-0.4,4.7-0.3,7-0.3c2.3,0.1,4.6,0.3,6.9,0.6c4.6,0.7,9.1,1.7,13.4,3.7
						c0.5,0.2,1.1,0.5,1.6,0.8s1,0.6,1.6,0.9c1,0.6,2,1.3,2.9,2.1c1.8,1.6,3.3,3.6,4.5,5.7c1.1,2.2,1.9,4.6,1.9,7.2
						c0,2.5-0.7,5.1-2.1,7.2c-0.7,1.1-1.7,2-2.9,2.6c-1.2,0.6-2.6,0.7-3.9,0.3c-1.2-0.4-2.3-1.2-3.1-2.1c-0.8-0.9-1.3-2-1.7-3.2
						c-0.7-2.3-0.6-4.7,0-7c0.6-2.3,1.4-4.5,2.5-6.5c1-2.1,2.3-4.1,3.7-5.9c0.7-0.9,1.5-1.8,2.4-2.6c0.9-0.8,1.8-1.5,2.7-2.3
						c7.3-5.8,15.5-10.4,24.2-13.8c2.2-0.8,4.4-1.6,6.6-2.3c2.3-0.7,4.6-1.2,7-1.5c2.4-0.2,4.9-0.2,7.3,0.6c1.2,0.4,2.4,1,3.4,1.8
						s1.8,2.1,1.6,3.5c0,0.1-0.1,0.2-0.3,0.2C400.8-95.7,400.8-95.8,400.7-95.8L400.7-95.8z"/>
				</g>
				<g class="st1">
					<path d="M316.4-95.9c-0.2-1.4,0.6-2.7,1.6-3.5s2.2-1.4,3.4-1.8c2.4-0.8,4.9-0.8,7.3-0.6c2.4,0.2,4.7,0.8,7,1.5
						c2.3,0.6,4.5,1.4,6.6,2.3c8.7,3.4,16.9,8,24.2,13.8c0.9,0.7,1.8,1.5,2.7,2.3c0.9,0.8,1.6,1.7,2.4,2.6c1.5,1.8,2.7,3.8,3.7,5.9
						s1.9,4.3,2.5,6.5c0.5,2.3,0.6,4.7,0,7c-0.3,1.1-0.9,2.2-1.7,3.2c-0.8,0.9-1.8,1.7-3.1,2.1c-1.2,0.4-2.7,0.3-3.9-0.3
						c-1.2-0.6-2.2-1.5-2.9-2.6c-1.4-2.1-2.1-4.6-2.1-7.2c0-2.5,0.8-5,1.9-7.2s2.7-4.1,4.5-5.7c0.9-0.8,1.9-1.5,2.9-2.1
						c0.5-0.3,1-0.6,1.6-0.9c0.5-0.3,1.1-0.5,1.6-0.8c4.3-1.9,8.9-3,13.4-3.7c2.3-0.3,4.6-0.5,6.9-0.6s4.6-0.1,7,0.3
						c1.2,0.2,2.3,0.5,3.4,1c0.6,0.2,1.1,0.5,1.6,0.9s1,0.9,1.2,1.7c0.3,0.8,0,1.6-0.3,2.2c-0.4,0.6-0.8,1.1-1.3,1.5
						c-1,0.8-2.2,1.4-3.3,1.8c-4.9,1.4-9.9,0.6-14.4-0.9c-4.5-1.6-8.7-3.9-12.6-6.6c-7.8-5.4-14.3-12.3-19.7-19.8
						c-0.1-0.1-0.1-0.2,0-0.3c0.1-0.1,0.2-0.1,0.3,0c6.5,6.6,13.2,13,20.8,18c3.8,2.5,7.8,4.7,12.1,6.1c2.1,0.7,4.3,1.3,6.4,1.6
						c1.1,0.2,2.2,0.2,3.3,0.2l1.6-0.1c0.5,0,1-0.1,1.6-0.2c1-0.2,2-0.6,2.9-1.2c0.9-0.5,1.6-1.3,1.4-2c-0.1-0.8-1.1-1.6-2-2.1
						c-1-0.5-2-1-3.1-1.3c-2.2-0.6-4.6-0.7-6.9-0.7s-4.6,0.2-6.9,0.5c-4.6,0.7-9,2.2-13,4.6c-2,1.2-3.8,2.5-5.3,4.1
						s-2.7,3.5-3.6,5.5c-1.9,3.9-2.1,8.5-0.2,12.3c0.5,0.9,1.1,1.7,2,2.2c0.8,0.5,1.8,0.7,2.8,0.6c1-0.2,2-0.7,2.7-1.5
						c0.8-0.8,1.3-1.8,1.7-2.8c0.7-2.1,0.7-4.5,0.2-6.7c-0.5-2.2-1.4-4.4-2.4-6.4c-2.1-4.1-5-7.8-8.8-10.4
						c-7.4-5.5-15.7-9.8-24.4-12.8c-2.2-0.8-4.4-1.5-6.6-2.1s-4.4-1.1-6.6-1.3c-2.2-0.2-4.5-0.1-6.5,0.6c-1,0.3-1.9,0.8-2.7,1.4
						c-0.8,0.6-1.5,1.2-2.5,2l0,0c-0.1,0.1-0.3,0.1-0.3,0C316.5-95.9,316.4-95.9,316.4-95.9z"/>
				</g>
				<g class="st1">
					<path d="M298.4-77.4c0.1,0.7,0.3,1.5,0.6,2.3c0.3,0.7,0.7,1.5,1.3,2l0.4,0.4c0.2,0.1,0.3,0.2,0.5,0.4c0.3,0.3,0.7,0.4,1,0.6
						c0.4,0.2,0.8,0.3,1.2,0.4c0.4,0.1,0.8,0.1,1.3,0.2c1.7,0.1,3.5-0.2,5.2-0.8c0.4-0.1,0.8-0.3,1.2-0.5c0.4-0.2,0.8-0.3,1.2-0.6
						c0.8-0.5,1.6-0.9,2.3-1.5c3-2.1,5.3-5,7.5-7.8c1.1-1.4,2.3-2.9,3.5-4.2c1.2-1.4,2.6-2.6,4.2-3.6s3.5-1.5,5.3-1.8
						c1.9-0.2,3.8,0.1,5.6,0.5c3.6,0.9,7,2.3,10.3,4s6.4,3.6,9.4,5.7c1.5,1,3,2.1,4.4,3.3c1.4,1.2,2.8,2.3,4.2,3.6
						c2.7,2.5,5.2,5.1,7.6,8c1.1,1.4,2.3,2.9,3.3,4.4s1.9,3.1,2.7,4.8c0.7,1.7,1.4,3.4,1.2,5.3c-0.1,0.9-0.5,1.9-1.3,2.4
						s-1.8,0.6-2.7,0.6c-0.9-0.1-1.9-0.4-2.6-1c-0.8-0.6-1.2-1.6-1-2.6s1-1.7,1.7-2.2c0.8-0.5,1.6-0.9,2.5-1.2
						c3.4-1.5,6.9-2.6,10.3-3.7c1.7-0.6,3.4-1.2,5.1-1.9c1.6-0.7,3.4-1.4,4.5-2.7c0.6-0.7,0.9-1.5,0.9-2.3c-0.1-0.8-0.6-1.6-1.2-2.1
						c-1.3-1.1-3.2-1.5-4.8-1.3c-0.8,0.1-1.6,0.3-2.3,0.8c-0.3,0.2-0.6,0.5-0.9,0.8s-0.5,0.6-0.6,0.9c-0.7,1.2,1.1,1.5,2.8,1.1l0,0
						c0.1,0,0.3,0.1,0.3,0.2s0,0.1,0,0.2c-0.6,0.9-1.8,1.3-2.9,1c-0.6-0.1-1.2-0.5-1.5-1.2s-0.1-1.4,0.1-1.9s0.6-0.9,0.9-1.3
						s0.8-0.7,1.2-0.9c0.9-0.5,1.9-0.7,2.9-0.8c2,0,3.9,0.6,5.4,1.9c0.7,0.7,1.3,1.6,1.3,2.6s-0.4,1.9-1,2.7
						c-0.6,0.8-1.4,1.3-2.2,1.7c-0.8,0.4-1.6,0.8-2.5,1.2c-1.7,0.7-3.4,1.4-5.1,2c-3.4,1.2-7,2.2-10.3,3.6c-0.8,0.4-1.7,0.7-2.4,1.1
						c-0.7,0.5-1.4,1.1-1.6,1.9c-0.2,0.8,0.2,1.7,0.8,2.3c0.7,0.6,1.5,0.9,2.4,1s1.8,0,2.6-0.5c0.8-0.4,1.2-1.3,1.2-2.2
						c0.1-1.8-0.5-3.6-1.2-5.2c-1.5-3.3-3.7-6.3-6.1-9s-5.1-5.2-7.9-7.5c-5.6-4.6-11.5-8.8-18-12.1c-3.2-1.6-6.5-3.1-10-4
						c-1.7-0.4-3.5-0.7-5.2-0.6c-0.4,0-0.9,0.1-1.3,0.2s-0.9,0.1-1.3,0.3l-1.3,0.4l-1.2,0.5c-1.6,0.8-3.1,1.8-4.4,3.1
						c-1.3,1.2-2.5,2.6-3.7,4c-1.1,1.4-2.3,2.9-3.5,4.2c-0.6,0.7-1.2,1.4-1.9,2l-1,1l-1.1,0.9c-0.7,0.6-1.5,1.1-2.2,1.6
						c-0.8,0.4-1.6,0.9-2.5,1.3c-1.7,0.7-3.5,1.3-5.5,1.4c-1.9,0.1-4-0.6-5.6-1.9c-0.8-0.7-1.5-1.4-2-2.3c-0.6-0.9-1-1.7-1.4-2.8
						c-0.2-0.7,0.2-1.5,0.9-1.7c0.7-0.2,1.5,0.2,1.7,0.9C298.3-77.7,298.4-77.6,298.4-77.4L298.4-77.4z"/>
				</g>
				<g class="st1">
					<path d="M421.6-76.9c-0.3,1.1-0.8,1.9-1.4,2.8c-0.5,0.9-1.2,1.6-2,2.3c-1.6,1.3-3.6,2-5.6,1.9c-3.9-0.3-7.3-2-10.2-4.3
						c-0.4-0.3-0.7-0.6-1.1-0.9l-1-1c-0.7-0.6-1.3-1.3-1.9-2c-1.2-1.4-2.3-2.8-3.5-4.3c-1.2-1.4-2.3-2.8-3.7-4
						c-0.6-0.6-1.4-1.2-2.1-1.7c-0.4-0.3-0.8-0.5-1.1-0.7l-0.6-0.3l-0.6-0.3c-1.6-0.8-3.4-1.1-5.1-1.3c-1.7-0.1-3.5,0.2-5.3,0.6
						c-3.5,0.9-6.8,2.4-10,4.1c-6.5,3.3-12.4,7.5-18,12.2c-2.8,2.3-5.4,4.8-7.9,7.6c-2.4,2.7-4.6,5.7-6.1,9.1
						c-0.2,0.4-0.4,0.8-0.5,1.3c-0.2,0.4-0.3,0.9-0.4,1.3c-0.2,0.9-0.3,1.8-0.2,2.7c0.1,0.9,0.7,1.7,1.5,2c0.8,0.4,1.7,0.3,2.6,0.2
						c0.9-0.2,1.7-0.6,2.4-1.1c0.7-0.6,1.1-1.4,0.8-2.2c-0.3-0.8-1.1-1.3-1.9-1.7s-1.6-0.8-2.5-1.1c-3.4-1.4-6.9-2.2-10.4-3.4
						s-7-2.6-9.7-5.2c-0.3-0.4-0.6-0.8-0.7-1.3c-0.1-0.2-0.2-0.4-0.2-0.7l-0.1-0.7c0-1,0.5-2,1.2-2.6c0.7-0.7,1.7-1.1,2.6-1.3
						c0.9-0.3,1.9-0.4,2.9-0.3c1,0,2,0.2,2.9,0.7c0.5,0.2,0.9,0.6,1.3,0.9c0.3,0.4,0.7,0.8,0.9,1.3c0.3,0.5,0.4,1.2,0.1,1.9
						c-0.3,0.7-0.9,1.1-1.5,1.2c-1.2,0.3-2.3-0.2-2.9-1c-0.1-0.1,0-0.3,0.1-0.3s0.1,0,0.2,0l0,0c1.7,0.3,3.5,0,2.8-1.2
						c-0.7-1.4-2.2-2.2-3.9-2.4c-0.8-0.1-1.7-0.1-2.6,0.1c-0.9,0.1-1.7,0.5-2.3,1c-0.7,0.5-1.1,1.3-1.1,2.1l0.1,0.6
						c0,0.2,0.1,0.4,0.2,0.6c0.1,0.4,0.3,0.8,0.6,1.1c0.6,0.7,1.3,1.2,2.1,1.7c0.8,0.5,1.6,0.9,2.4,1.3c1.6,0.8,3.3,1.4,5.1,2
						c3.5,1.1,7,2,10.4,3.5c0.8,0.4,1.7,0.8,2.5,1.2c0.8,0.5,1.6,1,2,2c0.2,0.5,0.1,1,0,1.5c-0.2,0.5-0.5,0.8-0.9,1.1
						c-0.7,0.6-1.6,1-2.5,1.2s-1.9,0.2-2.8-0.2s-1.5-1.3-1.6-2.2c-0.2-0.9,0-1.9,0.2-2.8c0.1-0.5,0.2-0.9,0.4-1.3
						c0.1-0.4,0.3-0.9,0.5-1.3c0.8-1.7,1.6-3.3,2.6-4.8s2.1-3,3.2-4.4c2.3-2.9,4.8-5.5,7.6-8c1.4-1.2,2.8-2.4,4.2-3.6
						c1.5-1.1,2.9-2.2,4.4-3.3c3-2.1,6.2-4,9.4-5.8c3.3-1.7,6.7-3.1,10.3-4c1.8-0.4,3.7-0.7,5.6-0.6c1.9,0.2,3.8,0.7,5.4,1.7
						c1.6,0.9,3,2.2,4.3,3.5c1.2,1.4,2.4,2.8,3.5,4.2c2.3,2.8,4.6,5.7,7.6,7.9c0.7,0.6,1.5,1,2.3,1.5c0.4,0.2,0.8,0.4,1.2,0.6
						c0.4,0.2,0.8,0.4,1.2,0.5c1.7,0.6,3.5,1,5.2,0.8c0.4-0.1,0.9-0.1,1.3-0.2s0.8-0.2,1.2-0.4c0.4-0.2,0.7-0.4,1-0.6l0.5-0.4
						l0.4-0.4c0.6-0.6,1-1.3,1.3-2s0.5-1.6,0.6-2.3l0,0c0.1-0.8,0.8-1.3,1.5-1.2c0.8,0.1,1.3,0.8,1.2,1.5
						C421.7-77.1,421.7-77,421.6-76.9z"/>
				</g>
			</g>
			<g class="st0">
				<g class="st1">
					<path d="M225.1,115.8c-1.4,0.1-2.8-0.1-4.2-0.4s-2.7-0.7-4-1.1c-2.6-0.9-5.1-2.1-7.5-3.4s-4.8-2.8-7-4.4s-4.4-3.3-6.6-4.9
						l-6.4-5.1c-2.1-1.7-4.3-3.4-6.5-4.9s-4.5-3-6.9-3.9c-2.4-1-5.1-1.3-7.3-0.2c-0.5,0.3-1,0.6-1.2,1s-0.1,0.8,0.2,1.3
						c0.6,0.9,1.9,1.5,3.1,1.8c2.5,0.7,5.2,0.6,7.9,0.2s5.3-1.1,7.8-2.1s5-2.1,7.5-3.1c2.5-1.1,5-2.2,7.3-3.6s4.7-2.8,6.5-4.8
						c0.9-1,1.7-2.1,2.3-3.3c0.6-1.2,1-2.6,0.7-3.8c-0.3-1.3-1.4-2.2-2.6-2.6c-1.3-0.4-2.6-0.5-4-0.5s-2.7,0.2-3.8,0.8
						c-1.2,0.5-2.2,1.4-2.6,2.6c-0.5,1.1-0.4,2.4,0.2,3.5c0.5,1.1,1.5,2,2.4,3c1,0.9,2,1.8,3.1,2.6c1.1,0.8,2.2,1.5,3.3,2.2
						c2.3,1.4,4.7,2.6,7.2,3.7c4.9,2.1,10.2,3.6,15.5,4.1c2.6,0.2,5.4,0.2,7.9-0.5c1.2-0.3,2.5-0.8,3.1-1.6c0.3-0.4,0.3-0.6,0-0.9
						s-0.8-0.6-1.4-0.9c-1.2-0.5-2.4-0.7-3.6-0.5c-1.2,0.1-2.5,0.5-3.7,1c-2.4,1-4.7,2.5-6.9,4.1c-4.4,3.2-8.5,6.8-12.8,10.2
						c-2.1,1.7-4.3,3.4-6.5,5s-4.6,3-7,4.4c-2.4,1.3-4.9,2.5-7.5,3.5c-1.3,0.5-2.6,0.9-3.9,1.2c-1.3,0.3-2.7,0.6-4.1,0.5
						c-0.1,0-0.2-0.1-0.2-0.2s0.1-0.2,0.2-0.2l0,0c1.3,0,2.7-0.2,4-0.6c1.3-0.3,2.6-0.8,3.8-1.3c2.5-1,4.9-2.3,7.3-3.6
						c2.3-1.4,4.6-2.9,6.8-4.5s4.3-3.3,6.4-5.1c4.2-3.5,8.3-7.1,12.7-10.4c2.2-1.6,4.5-3.2,7.1-4.4c1.3-0.6,2.7-1,4.1-1.2
						c0.7-0.1,1.5-0.1,2.2,0c0.8,0.1,1.4,0.3,2.1,0.6c0.7,0.3,1.4,0.6,2,1.4c0.3,0.4,0.5,0.9,0.5,1.4c0,0.6-0.2,1-0.5,1.4
						c-0.6,0.7-1.2,1.1-1.9,1.5c-0.7,0.3-1.4,0.6-2.1,0.8c-2.8,0.7-5.6,0.8-8.4,0.6c-5.6-0.5-10.9-2-16.1-4.1
						c-2.6-1.1-5-2.3-7.4-3.8s-4.6-3.2-6.5-5.2c-0.5-0.5-0.9-1-1.4-1.6c-0.4-0.6-0.8-1.2-1.1-1.9c-0.6-1.4-0.7-3,0-4.4
						s1.9-2.3,3.2-2.9s2.8-0.7,4.2-0.6c1.4,0,2.8,0.2,4.1,0.6c0.7,0.3,1.3,0.6,1.8,1.1s0.9,1.2,1,1.9c0.3,1.4-0.1,2.8-0.7,4.1
						c-0.6,1.3-1.4,2.4-2.3,3.4c-0.9,1-2,1.9-3.1,2.7c-1.1,0.8-2.3,1.5-3.5,2.2c-2.4,1.4-4.9,2.5-7.3,3.7c-2.5,1.1-4.9,2.3-7.5,3.4
						c-2.5,1-5.2,1.9-7.9,2.4s-5.6,0.6-8.4,0c-1.4-0.4-2.8-0.9-3.9-2.2c-0.2-0.3-0.4-0.8-0.5-1.2c-0.1-0.5,0-1,0.2-1.4
						c0.4-0.8,1.1-1.4,1.8-1.7c0.7-0.4,1.4-0.6,2.1-0.8c0.7-0.2,1.5-0.2,2.2-0.2c1.5,0.1,2.9,0.4,4.2,0.9c2.7,1,5,2.5,7.3,4
						c2.3,1.6,4.5,3.2,6.6,4.9l6.4,5.2c4.2,3.4,8.6,6.7,13.2,9.5c2.3,1.4,4.7,2.6,7.2,3.7c1.2,0.5,2.5,1,3.8,1.3s2.6,0.7,3.9,0.7
						l0,0c0.1,0,0.2,0.1,0.2,0.2C225.3,115.7,225.2,115.8,225.1,115.8z"/>
				</g>
				<g class="st1">
					<path d="M229.2,94.3c0.8,0.6,1.8,1.1,2.7,1.5c1,0.4,2,0.7,3,0.9c2,0.4,4.1,0.6,6.2,0.6c4.2-0.1,8.4-0.8,12-2.8
						c1.8-1,3.4-2.2,4.7-3.8c1.3-1.5,2.3-3.3,2.4-5.2c0.2-1.9-0.6-3.7-2-5s-3.2-2.3-5.2-3c-3.9-1.4-8.1-1.4-12.3-0.7
						c-4.1,0.7-8.2,2-12.1,3.7c-7.8,3.4-15.1,7.9-22.1,12.7c-3.5,2.4-7.1,4.9-10.7,7.1c-3.7,2.2-7.5,4.3-11.5,5.7
						c-2,0.7-4.2,1.3-6.4,1.1c-1.1-0.1-2.2-0.4-3.1-1c-0.9-0.6-1.6-1.5-2.1-2.5c-0.2-0.5-0.4-1.2-0.1-1.7c0.3-0.5,0.9-0.8,1.4-0.9
						c1.1-0.2,2.2-0.2,3.3-0.1c2.1,0.2,4.2,0.8,6.3,1.5c4.1,1.4,7.9,3.4,11.4,6c3.4,2.6,6.3,5.8,8.8,9.3c1.2,1.8,2.3,3.6,3.3,5.5
						s1.8,3.9,2.3,6.1c0.5,2.1,0.7,4.4-0.1,6.5c-0.4,1.1-1.1,2-2,2.7s-2,1.2-3,1.4h-0.1l0,0H204h-0.1l0,0c-1.1-0.2-2.2-0.7-3.1-1.4
						c-0.9-0.7-1.6-1.7-2.1-2.7c-0.8-2.2-0.7-4.5-0.2-6.6c0.9-4.3,3-8.2,5.4-11.8c2.5-3.6,5.3-6.9,8.9-9.6c3.5-2.6,7.6-4.4,11.7-5.7
						c2.1-0.6,4.2-1.2,6.3-1.5c1.1-0.1,2.2-0.2,3.3,0.1c0.5,0.1,1.2,0.4,1.6,1.1c0.3,0.7,0.1,1.4-0.2,1.9c-0.5,1-1.3,1.9-2.3,2.6
						c-1,0.6-2.1,1-3.2,1c-2.3,0.1-4.5-0.4-6.5-1.1c-4.1-1.4-7.9-3.5-11.7-5.7c-3.7-2.2-7.3-4.6-10.8-7.1c-3.5-2.4-7.1-4.8-10.8-6.9
						s-7.4-4.2-11.3-5.9c-3.9-1.7-7.9-3.1-12-3.8c-4.1-0.7-8.4-0.7-12.3,0.6c-1.9,0.7-3.8,1.6-5.2,3s-2.2,3.3-2,5.3s1.1,3.9,2.5,5.5
						c1.3,1.6,3,2.9,4.8,4c3.7,2.1,8,2.8,12.2,2.9c2.1,0,4.3-0.2,6.3-0.7s4.1-1.4,5.7-2.7l0,0c0.1-0.1,0.2-0.1,0.3,0s0.1,0.2,0,0.3
						c-0.9,0.7-1.8,1.2-2.8,1.7c-1,0.4-2,0.8-3.1,1.1c-2.1,0.6-4.3,0.8-6.4,0.8c-2.2,0-4.3-0.2-6.5-0.5c-2.1-0.4-4.2-1.1-6.2-2.1
						c-1.9-1-3.7-2.4-5.2-4.1c-1.4-1.7-2.6-3.7-2.9-6c-0.1-1.1,0-2.3,0.4-3.4s1-2.1,1.8-2.9s1.7-1.5,2.7-2.1s2-1,3-1.4
						c2.1-0.8,4.3-1.2,6.5-1.3c2.2-0.1,4.4,0,6.6,0.3c4.4,0.6,8.5,2.1,12.5,3.8c8,3.4,15.3,8.1,22.3,13.1c3.5,2.5,6.9,5,10.5,7.3
						s7.3,4.5,11.2,6c2,0.7,4,1.3,6.1,1.2c1-0.1,2-0.3,2.8-0.8s1.5-1.3,2-2.2c0.2-0.4,0.3-0.9,0.2-1.2c-0.1-0.3-0.6-0.6-1-0.7
						c-0.9-0.3-2-0.2-3.1-0.1c-2.1,0.2-4.2,0.7-6.2,1.4c-8,3-14.9,8.3-19.7,15.3c-2.4,3.5-4.4,7.3-5.4,11.3c-0.5,2-0.7,4.2,0,6
						c0.3,0.9,0.9,1.8,1.7,2.4c0.8,0.6,1.7,1,2.7,1.3h-0.1h0.2h-0.1c1-0.2,2-0.6,2.8-1.2c0.8-0.6,1.4-1.4,1.8-2.4
						c0.8-1.9,0.6-4.1,0.2-6.2c-0.9-4.1-2.9-8-5.3-11.5c-2.4-3.5-5.3-6.8-8.7-9.3c-3.4-2.6-7.3-4.5-11.3-5.9c-2-0.7-4.1-1.2-6.2-1.4
						c-1.1-0.1-2.1-0.1-3.1,0.1c-0.5,0.1-1,0.3-1.2,0.7c-0.2,0.4-0.1,0.9,0.1,1.4c0.5,0.9,1.2,1.7,2,2.3c0.9,0.6,1.9,0.9,2.9,0.9
						c2.1,0.2,4.2-0.4,6.2-1.1c4-1.5,7.7-3.6,11.3-5.9s7.1-4.7,10.6-7.3c7-5,14.2-9.7,22.1-13.2c3.9-1.8,8.1-3.3,12.4-4
						c4.3-0.7,8.9-0.8,13.1,0.7c2.1,0.7,4.2,1.7,5.9,3.3c0.8,0.8,1.6,1.8,2,2.9c0.5,1.1,0.7,2.4,0.6,3.6c-0.2,2.4-1.4,4.6-2.9,6.3
						c-1.5,1.7-3.3,3.1-5.3,4.1s-4.1,1.8-6.3,2.1c-2.2,0.3-4.4,0.5-6.6,0.4c-2.2-0.1-4.4-0.4-6.5-1c-1-0.3-2.1-0.7-3.1-1.2
						s-1.9-1.1-2.7-1.9c-0.1-0.1-0.1-0.2,0-0.3C228.9,94.3,229,94.3,229.2,94.3L229.2,94.3z"/>
				</g>
			</g>
			<g>
				<g>
					<path class="st2" d="M8.9,11.4c0.4-0.6,0.9-1,1.5-1.3s1.3-0.4,2-0.3c0.7,0.1,1.3,0.4,1.9,0.7c0.6,0.3,1.1,0.9,1.4,1.5
						c0.6,1.3,0.5,2.8,0,4c-0.5,1.3-1.3,2.4-2.5,3.2c-1.1,0.8-2.5,1.2-3.9,1.2c-0.3,0-0.7,0-1,0s-0.7,0-1-0.1
						C6.6,20.1,6,20,5.4,19.7c-2.6-1-4.5-3.4-5.2-6.1C-0.5,11-0.3,8,1,5.6C2.4,3,4.9,1.1,7.6,0.5C9,0.1,10.4,0,11.7,0
						c0.7,0,1.3,0,2,0s1.3,0.1,2,0.2c2.7,0.3,5.3,1,7.8,1.8c5,1.8,9.7,4.3,14.2,7c2.2,1.3,4.5,2.7,6.7,4.1s4.4,2.8,6.6,4
						c1.1,0.6,2.2,1.2,3.4,1.7c1.2,0.4,2.3,1,3.5,1.4c2.4,0.8,4.9,1.3,7.4,1.6c2.5,0.2,5.1,0.1,7.5-0.5c0.6-0.2,1.2-0.3,1.8-0.6
						l0.9-0.4l0.8-0.4c1.1-0.6,2.1-1.4,2.7-2.5l0,0c0.1-0.1,0.2-0.2,0.3-0.1c0.1,0.1,0.1,0.2,0.1,0.3c-0.5,1.3-1.6,2.3-2.6,3
						c-0.3,0.2-0.6,0.4-0.8,0.5l-0.9,0.4c-0.6,0.3-1.2,0.5-1.9,0.8c-2.5,0.9-5.2,1.2-7.9,1.1c-2.7-0.1-5.3-0.5-7.9-1.3
						c-1.3-0.3-2.5-0.8-3.8-1.3c-1.2-0.5-2.4-1.1-3.6-1.7c-1.1-0.6-2.4-1.3-3.5-2l-3.3-2c-2.2-1.4-4.4-2.7-6.7-4
						c-4.4-2.6-8.9-5.1-13.7-7c-2.4-0.9-4.8-1.6-7.3-2c-0.6-0.1-1.2-0.2-1.9-0.2C12.9,2,12.3,2,11.7,2c-1.3,0-2.5,0-3.6,0.2
						c-2.3,0.5-4.4,1.9-5.6,4s-1.5,4.7-1,7.1s2.1,4.6,4.4,5.5c2.3,1,5,1.1,7.1-0.3c1-0.7,1.8-1.7,2.3-2.8s0.6-2.5,0.1-3.6
						c-0.3-0.5-0.7-1-1.2-1.3s-1.1-0.6-1.7-0.7c-1.2-0.2-2.4,0.4-3.1,1.4l0,0c-0.1,0.1-0.2,0.1-0.3,0.1S8.9,11.5,8.9,11.4z"/>
				</g>
				<g>
					<path class="st2" d="M86.8,12.2c-0.4,0.6-0.9,1-1.5,1.3s-1.3,0.4-2,0.3c-0.7-0.1-1.3-0.4-1.9-0.7s-1.1-0.9-1.4-1.5
						c-0.6-1.3-0.5-2.8,0-4c0.5-1.3,1.3-2.4,2.5-3.2c1.1-0.8,2.5-1.2,3.9-1.2c0.3,0,0.7,0,1,0s0.7,0,1,0.1c0.7,0.2,1.3,0.3,1.9,0.6
						c2.6,1,4.5,3.4,5.2,6.1c0.7,2.6,0.5,5.6-0.8,8c-1.2,2.5-3.7,4.4-6.4,5.1c-1.4,0.4-2.8,0.4-4.1,0.5c-0.7,0-1.3,0-2,0
						s-1.3-0.1-2-0.2c-2.7-0.3-5.3-1-7.8-1.8c-5-1.8-9.7-4.3-14.2-7c-2.2-1.3-4.5-2.7-6.7-4.1s-4.4-2.8-6.6-4
						c-1.1-0.6-2.2-1.2-3.4-1.7c-1.2-0.4-2.3-1-3.5-1.4c-2.4-0.8-4.9-1.3-7.4-1.6c-2.6-0.1-5.2,0-7.6,0.6c-0.6,0.2-1.2,0.3-1.8,0.6
						l-0.9,0.4l-0.8,0.4c-1.1,0.6-2.1,1.4-2.7,2.5l0,0c-0.1,0.1-0.2,0.2-0.3,0.1c-0.1-0.1-0.1-0.2-0.1-0.3c0.5-1.3,1.6-2.3,2.6-3
						c0.3-0.2,0.6-0.4,0.8-0.5l1-0.6c0.6-0.3,1.2-0.5,1.9-0.8c2.5-0.9,5.2-1.2,7.9-1.1s5.3,0.5,7.9,1.3c1.3,0.3,2.5,0.8,3.8,1.3
						c1.2,0.5,2.4,1.1,3.6,1.7c1.1,0.6,2.4,1.3,3.5,2l3.3,2c2.2,1.4,4.4,2.7,6.7,4c4.4,2.6,8.9,5.1,13.7,7c2.4,0.9,4.8,1.6,7.3,2
						c0.6,0.1,1.2,0.2,1.9,0.2c0.6,0,1.3,0.1,1.9,0.1c1.3,0,2.5,0,3.6-0.2c2.3-0.5,4.4-1.9,5.6-4s1.5-4.7,0.9-7.1
						c-0.5-2.4-2.1-4.6-4.4-5.5c-2.3-1-5-1.1-7.1,0.3c-1,0.7-1.8,1.7-2.3,2.8s-0.6,2.5-0.1,3.6c0.3,0.5,0.7,1,1.2,1.3
						s1.1,0.6,1.7,0.7c1.2,0.2,2.4-0.4,3.1-1.4l0,0c0.1-0.1,0.2-0.1,0.3-0.1S86.8,12.1,86.8,12.2z"/>
				</g>
			</g>
			<g class="st0">
				<g class="st1">
					<path d="M310.1,17.5c5.9,1.7,12.1,2,18.2,1.6c6.1-0.5,12.1-2,17.8-4.2c5.7-2.2,11-5.3,16.3-8.6c5.3-3.2,10.4-6.6,16-9.5
						c2.8-1.4,5.6-2.7,8.7-3.5c3-0.8,6.4-1.1,9.4,0c3.1,1,5.7,3.1,7.4,5.8c1.7,2.7,2.6,5.8,2.6,9c0,3.1-0.8,6.3-2.6,8.9
						c-1.7,2.6-4.4,4.6-7.3,5.6c-1.5,0.5-3,0.8-4.6,0.9c-1.5,0.1-3.1,0.1-4.7-0.2c-3.1-0.7-5.9-2.2-8.4-4
						c-10.1-7.2-17.4-17.6-27.5-24.8c-2.6-1.6-5.4-3-8.4-3.5c-3-0.6-6.2-0.2-8.8,1.3c-2.7,1.4-4.8,3.8-6.2,6.5
						c-1.4,2.7-2.2,5.8-2.1,8.8c0.1,3.1,0.8,6.1,2.2,8.8c1.3,2.7,3.5,5,6.3,6.3c2.8,1.2,5.9,1.4,8.9,0.9c3-0.4,5.8-1.6,8.5-3
						c5.4-2.8,10.4-6.4,15.7-9.7c2.6-1.7,5.3-3.3,8-4.8c2.8-1.5,5.6-2.8,8.7-3.7c1.5-0.4,3.1-0.8,4.7-0.8c1.6-0.1,3.3,0.1,4.8,0.7
						s2.9,1.3,4.1,2.5c1.1,1.1,1.8,2.8,1.6,4.4c-0.2,1.6-1.1,3-2.2,4.1c-1.2,1.1-2.6,1.8-4.1,2.2c-3,0.8-6.3,0.3-9.1-1
						c-2.8-1.3-5.4-3-7.8-4.9c-2.5-1.9-4.7-4-6.9-6.2c-2.1-2.2-4.1-4.6-5.9-7.2c-0.9-1.3-1.7-2.6-2.5-3.9c-0.7-1.4-1.4-2.8-1.7-4.4
						c-0.3-1.6-0.2-3.2,0.5-4.7c0.6-1.5,2-2.8,3.6-3.2c1.6-0.5,3.4-0.2,4.9,0.5c0.7,0.3,1.4,0.8,2.1,1.3s1.3,1.2,1.6,2
						c0.7,1.6,0.5,3.4,0.1,5s-1.1,3-1.9,4.4c-1.6,2.7-3.7,5.1-6.1,7.2c-4.7,4.2-10.4,7.3-16.4,8.9c-3,0.8-6.2,1.4-9.4,0.9
						c-1.6-0.2-3.2-0.8-4.3-2.2c-0.5-0.7-0.8-1.5-0.8-2.3s0.1-1.6,0.5-2.4c1.3-3,4.5-4.9,7.7-4.6c1.6,0.1,3.1,0.7,4.5,1.3
						s2.8,1.4,4.1,2.2c5.2,3.4,9.8,7.7,13.7,12.4c1.9,2.4,3.7,5,4.9,7.9c1.2,2.8,2.1,5.9,2,9c-0.1,1.5-0.5,3.1-1.7,4.2
						s-2.9,1.2-4.4,0.9s-3-1.2-3.8-2.6c-0.9-1.4-1.1-3.1-0.7-4.7c0.3-1.6,1.1-3.1,2-4.4s2-2.5,3.2-3.6c2.3-2.1,4.9-4,7.6-5.6
						c5.4-3.2,11.4-5.3,17.6-6.4s12.5-1,18.6,0.4s11.8,4.1,16.9,7.6l-0.2,0.4c-5.2-3.3-10.8-5.9-16.8-7.1s-12.2-1.2-18.2,0.1
						c-6,1.2-11.6,3.7-16.9,6.7c-2.6,1.5-5.2,3.2-7.5,5.1s-4.5,4.1-5.4,7c-0.4,1.4-0.3,3,0.4,4.3c0.7,1.3,2,2.3,3.5,2.7
						c1.4,0.4,3.2,0.3,4.3-0.8c1.2-1,1.6-2.6,1.7-4.2c0.1-3.1-0.8-6.1-2-9s-2.9-5.4-4.9-7.8c-3.9-4.7-8.6-8.9-13.8-12.3
						c-1.3-0.8-2.7-1.6-4.1-2.2C344-0.4,342.5-0.9,341-1c-3-0.3-6,1.7-7.1,4.5c-0.5,1.4-0.5,3,0.4,4.1s2.4,1.6,3.8,1.8
						c3,0.3,6-0.4,8.9-1.2c5.8-1.8,11.2-4.8,15.7-8.9c2.2-2,4.3-4.3,5.9-6.8c0.8-1.3,1.4-2.6,1.8-4s0.5-2.9,0.1-4.1
						c-0.3-0.6-0.6-1.2-1.2-1.6c-0.6-0.5-1.2-0.9-1.8-1.2c-1.3-0.7-2.8-1-4.1-0.6c-1.4,0.3-2.5,1.4-3.2,2.7
						c-0.6,1.3-0.8,2.8-0.5,4.3c0.2,1.5,0.9,2.9,1.6,4.2c0.7,1.4,1.5,2.7,2.4,3.9c1.7,2.5,3.7,4.9,5.8,7.2c4.2,4.5,9,8.6,14.6,11.2
						c2.8,1.3,6,1.8,8.9,1c1.5-0.4,2.9-1.1,4-2.2c1.1-1,1.9-2.4,2-3.9s-0.6-2.9-1.7-3.9s-2.5-1.6-3.9-2c-2.8-0.8-5.9-0.2-8.7,0.8
						c-2.8,1.1-5.5,2.5-8.1,4s-5.2,3.2-7.9,4.8c-5.2,3.3-10.5,6.5-16.3,9.1c-2.9,1.2-5.9,2.3-9.1,2.5c-3.1,0.3-6.4,0.1-9.3-1.3
						c-2.9-1.3-5.2-3.8-6.5-6.6c-1.4-2.8-2-5.9-2.1-9c-0.2-3.1,0.7-6.3,2.1-9c1.5-2.7,3.6-5.2,6.4-6.7c1.4-0.7,2.9-1.2,4.5-1.5
						c1.6-0.2,3.1-0.2,4.7,0.1c3.1,0.5,6,1.9,8.5,3.6c2.6,1.8,4.9,3.8,7.2,5.9c2.3,2.1,4.4,4.3,6.6,6.5c4.4,4.4,8.7,8.8,13.7,12.4
						c2.5,1.7,5.3,3.2,8.2,3.9c1.5,0.3,3,0.4,4.5,0.2c1.5-0.1,3-0.4,4.5-0.9c2.9-1,5.4-2.9,7.1-5.5c1.6-2.6,2.4-5.6,2.3-8.6
						s-0.9-6-2.6-8.5c-1.6-2.5-4.1-4.4-7-5.3c-2.8-0.9-5.9-0.6-8.8,0.2s-5.7,2.1-8.4,3.5c-5.4,2.9-10.5,6.3-15.8,9.5
						s-10.7,6.3-16.5,8.6c-5.8,2.2-12,3.6-18.2,4c-3.1,0.2-6.2,0.1-9.3-0.2c-3.1-0.4-6.2-0.9-9.1-2L310.1,17.5z"/>
				</g>
			</g>
			<g class="st0">
				<g class="st1">
					<path d="M100-87.1c-1.3,0-2.7-0.2-3.9-0.7c-1.2-0.5-2.4-1.3-3.1-2.5c-0.6-1.2-0.8-2.6-0.4-3.9s1.2-2.4,2.3-3.3
						c2.2-1.7,5.1-2,7.7-1.5c1.3,0.3,2.6,0.9,3.8,1.5c1.2,0.7,2.2,1.8,2.8,3c1.3,2.5,1.5,5.4,1.1,8.1c-0.5,2.7-1.7,5.3-3.5,7.4
						s-4.3,3.6-7,4.5c-2.6,0.8-5.5,1-8.2,0.8c-1.4,0-2.7-0.2-4.1-0.4c-0.7-0.1-1.3-0.3-2-0.4c-0.3-0.1-0.7-0.1-1-0.2l-1-0.3
						c-2.6-0.8-5.2-2-7.4-3.8c-2.2-1.8-3.9-4.2-4.8-6.9c-0.5-1.3-0.7-2.8-0.8-4.2c-0.1-1.4,0.1-3,0.7-4.4c1.2-2.8,3.8-4.7,6.5-5.4
						c2.8-0.7,5.9,0.2,7.8,2.2c0.9,1,1.8,2.2,2.1,3.5c0.3,1.3,0.1,2.8-0.5,4s-1.6,2.2-2.9,2.8c-1.2,0.6-2.7,0.7-4,0.2l0.2-0.4
						c1.2,0.5,2.5,0.5,3.7-0.1s2.1-1.5,2.7-2.7s0.7-2.5,0.4-3.8c-0.3-1.2-1.1-2.3-2.1-3.2c-0.9-0.9-2.1-1.4-3.4-1.6
						c-1.2-0.2-2.5,0-3.6,0.4s-2.2,1.1-3,2c-0.9,0.8-1.6,1.8-2,2.9c-0.9,2.1-0.6,4.7,0.2,7.1c0.8,2.3,2.3,4.4,4.2,6
						c1.9,1.6,4.2,2.8,6.6,3.6c2.4,0.8,5,1.2,7.6,1.4c2.6,0.3,5.2,0.2,7.6-0.5s4.7-2,6.4-3.9c1.7-1.9,2.9-4.2,3.4-6.7
						s0.4-5.2-0.7-7.5c-1-2.4-3.5-3.8-5.9-4.5c-1.3-0.3-2.6-0.4-3.9-0.2c-1.3,0.2-2.5,0.7-3.6,1.5c-1,0.8-1.9,1.9-2.3,3.1
						s-0.3,2.7,0.3,3.8c0.6,1.2,1.7,2,3,2.5C97.3-87.4,98.7-87.2,100-87.1L100-87.1z"/>
				</g>
				<g class="st1">
					<path d="M18.9-86.9c0.1,0.8,0.5,1.5,1.1,1.8c0.6,0.4,1.5,0.3,2.1-0.3c0.6-0.6,1-1.4,1.1-2.3c0.1-0.4,0.1-0.9,0-1.3
						s-0.3-0.8-0.6-1.1c-1.3-1.2-3.3-1.4-4.9-0.8c-0.8,0.3-1.5,0.8-2.1,1.4c-0.5,0.7-0.9,1.4-1,2.3c-0.3,1.6-0.1,3.4,0.9,4.7
						c1,1.3,2.6,2,4.1,1.9c1.6,0,3.1-0.6,4.3-1.6s2.1-2.4,2.6-3.9c0.3-0.8,0.4-1.6,0.5-2.3c0-0.8,0-1.5-0.2-2.3
						c-0.2-0.7-0.5-1.5-0.9-2.1c-0.4-0.7-0.9-1.3-1.5-1.8c-2.3-2.2-5.8-3.3-9-2.5c-1.6,0.4-3.1,1.2-4.2,2.4c-1.2,1.2-2,2.6-2.7,4.2
						c-0.6,1.6-1,3.2-1,4.9c0,1.7,0.3,3.3,0.9,4.8c1.2,3,3.6,5.4,6.4,7c2.8,1.5,5.9,2.3,9.1,2.3s6.3-0.9,9.2-2.3
						c1.4-0.7,2.8-1.6,4.3-2.6s2.9-1.9,4.4-2.8c3-1.8,6-3.5,9.3-5c1.6-0.7,3.3-1.4,5-1.8s3.6-0.6,5.4-0.5c0.4,0,0.9,0.1,1.4,0.2
						s0.9,0.2,1.3,0.4c0.8,0.3,1.6,0.7,2.4,1.1c1.6,0.8,3.1,1.6,4.6,2.5c3,1.8,5.9,3.7,8.7,5.7l-0.2,0.4l0,0c-2.9-1.6-5.8-3.5-8-6.1
						s-3.9-5.5-5.5-8.4s-3-6-5.3-8.1c-1.1-1.1-2.5-1.8-4-2.1c-1.5-0.2-3.1,0-4.5,0.6s-2.7,1.7-3.4,3c-0.7,1.4-0.8,3.1-0.2,4.5
						s1.9,2.5,3.2,3.2c1.4,0.6,2.9,0.9,4.3,0.7c0.7-0.1,1.4-0.3,2.1-0.5c0.7-0.3,1.4-0.7,1.8-1.4c0.8-1.4,0.5-3.2-0.2-4.7
						c-0.8-1.4-2.5-2.3-4.1-2.1c-0.8,0.1-1.6,0.5-2.1,1.1s-0.7,1.4-0.5,2.2l-0.4,0.1c-0.1-0.9,0.1-1.8,0.7-2.5
						c0.6-0.7,1.4-1,2.3-1.1c1.7-0.2,3.5,0.7,4.3,2.2c0.4,0.7,0.7,1.6,0.7,2.4c0.1,0.9,0,1.7-0.4,2.5c-0.7,1.6-2.1,3.1-4,3.5
						c-3.8,0.6-7.5-1.8-8.7-5.2c-0.6-1.7-0.5-3.6,0.3-5.2s2.1-2.9,3.7-3.7c0.8-0.4,1.6-0.7,2.5-0.9c0.9-0.2,1.8-0.2,2.7,0
						c1.8,0.3,3.4,1.3,4.7,2.5s2.3,2.6,3.1,4.1s1.5,3,2.3,4.5c1.5,3,3.1,5.9,5.1,8.4c1,1.3,2.2,2.4,3.5,3.5c0.6,0.5,1.3,1,2,1.5
						l2.1,1.3l0,0L79.6-76c-2.9-2-5.8-3.8-8.8-5.5c-1.5-0.8-3.1-1.6-4.6-2.3c-1.6-0.7-3.2-1.3-4.8-1.3c-3.4-0.1-6.5,1.2-9.5,2.8
						c-3,1.6-5.8,3.6-8.6,5.6l-4.2,3c-0.7,0.5-1.3,1-2.1,1.5c-0.4,0.3-0.7,0.5-1.1,0.8L34.6-71c-1.6,0.9-3.3,1.6-5.1,2.1
						c-1.8,0.5-3.7,0.8-5.6,0.8c-3.8,0-7.6-1.1-10.7-3.3c-3.1-2.2-5.5-5.3-6.4-8.9c-1-3.6-0.6-7.4,0.8-10.6c0.7-1.6,1.7-3.2,2.9-4.5
						c1.3-1.3,2.9-2.3,4.6-2.8c3.6-1,7.6,0,10.4,2.4c1.4,1.2,2.5,2.9,3,4.7c0.2,0.9,0.3,1.9,0.2,2.9c-0.1,1-0.3,1.9-0.7,2.7
						c-0.7,1.7-1.7,3.4-3.3,4.5c-1.5,1.1-3.4,1.8-5.3,1.6c-1.9-0.1-3.8-1.1-4.7-2.7c-1-1.6-1.1-3.6-0.7-5.3c0.2-0.9,0.7-1.7,1.3-2.3
						c0.6-0.6,1.4-1.1,2.2-1.4s1.7-0.3,2.6-0.2c0.9,0.1,1.7,0.5,2.3,1.1c0.3,0.3,0.5,0.7,0.6,1.1s0,0.9,0,1.3
						c-0.1,0.9-0.4,1.7-0.9,2.5c-0.3,0.4-0.6,0.7-1.1,0.9c-0.5,0.2-1,0.3-1.5,0.2c-1.1-0.2-1.9-0.9-2.7-1.6L18.9-86.9z"/>
				</g>
			</g>
			<g class="st0">
				<g class="st1">
					<g>
						<path d="M274.6,16.8c1.4,2.6,4,4.9,7.1,5.7c0.7,0.3,1.5,0.3,2.3,0.4c0.8,0,1.6,0.1,2.4-0.1c0.4-0.1,0.8-0.1,1.2-0.2l1.2-0.3
							c0.8-0.2,1.5-0.5,2.2-0.8c1.5-0.6,2.7-1.6,3.6-2.9c0.8-1.3,1.2-2.8,1.2-4.3c0-0.7-0.1-1.5-0.2-2.2c-0.1-0.4-0.2-0.7-0.2-1
							l-0.3-1c-0.5-1.3-1.1-2.6-1.9-3.8c-1.6-2.3-4-4.1-6.9-4.8c-1.4-0.3-2.9-0.5-4.5-0.3c-1.5,0.2-3,0.6-4.5,1.2
							c-2.9,1.3-5.8,2.8-8.5,4.5s-5.3,3.6-7.9,5.6s-5.2,3.9-7.9,5.7c-2.8,1.8-5.7,3.4-9,4.3s-6.7,1.1-10.1,0.7
							c-1.7-0.3-3.4-0.7-4.9-1.3c-1.6-0.6-3.1-1.3-4.5-2.1c-5.8-3.2-11-7.3-15.8-11.7s-9.2-9.2-13.4-14.2c-0.2-0.2-0.1-0.5,0.1-0.7
							c0.2-0.2,0.5-0.1,0.7,0l0,0c4.3,4.7,9,9.2,13.9,13.5c4.9,4.2,10,8.2,15.6,11.1c1.4,0.7,2.8,1.4,4.3,1.9s3,0.9,4.4,1.2
							c3,0.3,6.2,0.2,9.1-0.6c6-1.6,11.2-5.6,16.4-9.4c2.6-1.9,5.3-3.8,8.1-5.5c2.8-1.8,5.7-3.3,8.7-4.6c1.5-0.7,3.2-1.2,4.8-1.5
							c1.7-0.3,3.4-0.5,5.2-0.2c1.8,0.2,3.5,0.8,5.1,1.7s3,2.1,4.1,3.6s1.9,3.1,2.3,4.9s0.4,3.6-0.1,5.4c-0.5,1.7-1.4,3.3-2.6,4.6
							c-1.2,1.2-2.7,2.1-4.2,2.7c-0.8,0.3-1.5,0.6-2.3,0.8l-1.2,0.3c-0.4,0.1-0.8,0.1-1.2,0.2c-0.8,0.2-1.6,0.1-2.5,0.1
							c-0.8-0.1-1.6-0.1-2.4-0.4c-1.6-0.4-3.2-1-4.6-2c-1.4-0.9-2.7-2-3.8-3.4c-0.3-0.4-0.3-0.9,0.1-1.2c0.4-0.3,0.9-0.3,1.2,0.1
							C274.5,16.7,274.5,16.7,274.6,16.8L274.6,16.8z"/>
					</g>
					<g>
						<path d="M244.1,17.2c1,1.9,2.8,3.4,4.9,4.4c2.1,1,4.4,1.4,6.7,1.2c2.3-0.2,4.6-1.1,6.4-2.6c1.8-1.5,3.3-3.5,4.1-5.7
							c1.7-4.5,1.2-9.7-1-13.7c-1.1-2-2.6-3.8-4.5-5.2s-4-2.4-6.3-2.9c-4.5-1.1-9.4-0.8-14,0.4c-4.6,1.1-9,3-13.1,5.4
							s-8.1,5.1-11.6,8.3c-3.6,3.1-6.8,6.7-9.2,10.8c-0.1,0.2-0.4,0.3-0.7,0.2c-0.2-0.1-0.3-0.4-0.2-0.7c2.5-4.2,5.7-7.9,9.3-11.2
							s7.6-6.1,11.8-8.5s8.7-4.4,13.5-5.5c4.7-1.2,9.8-1.5,14.6-0.3c2.4,0.6,4.7,1.7,6.7,3.2c2,1.4,3.7,3.5,4.7,5.7
							c2.1,4.5,2,9.8,0.3,14.3c-0.9,2.2-2.2,4.4-4,6s-4.2,2.7-6.6,3.1s-5,0.2-7.4-0.6c-2.4-0.8-4.7-2.3-6.4-4.4l0,0
							c-0.5-0.6-0.4-1.4,0.2-1.8c0.6-0.5,1.4-0.4,1.8,0.2C244.1,17,244.1,17.1,244.1,17.2z"/>
					</g>
					<g>
						<path d="M234.3,1.4c0.7-1,1.5-1.7,2.4-2.4s1.9-1.2,3-1.5c2.1-0.7,4.4-0.6,6.5,0c2.3,0.7,3.9,2.5,5,4.4s1.8,4,2,6.3
							c0.1,1.1,0,2.2-0.2,3.3s-0.6,2.2-1.1,3.2c-1.1,2-2.7,3.7-4.5,4.9c-3.7,2.4-8,3.2-12.2,3.3c-0.3,0-0.5-0.2-0.5-0.5
							c0-0.2,0.2-0.5,0.4-0.5l0,0c4-0.8,7.9-1.9,11-4.2c1.5-1.1,2.8-2.5,3.7-4.1c0.8-1.6,1.3-3.5,1.3-5.3c0-1.9-0.5-3.8-1.4-5.5
							s-2.2-3.2-3.9-3.7c-1.8-0.5-3.8-0.6-5.5,0c-0.9,0.3-1.7,0.8-2.4,1.4s-1.4,1.3-1.8,2v0.1c-0.3,0.5-0.9,0.7-1.4,0.4
							s-0.7-0.9-0.4-1.4C234.2,1.5,234.2,1.5,234.3,1.4z"/>
					</g>
					<g>
						<path d="M239.1,6.7c0.6,0,1.2,0.1,1.8,0.4c0.5,0.3,1,0.8,1.3,1.3c0.3,0.6,0.5,1.2,0.6,1.7c0,0.3,0.1,0.6,0,1
							c0,0.4-0.1,0.7-0.3,1c-0.5,1.2-1.4,2-2.4,2.6c-1,0.6-2.1,0.9-3.1,1.1c-2.2,0.4-4.3,0.1-6.3-0.4s-3.9-1.3-5.7-2.2
							c-3.6-1.8-6.9-4.2-10-6.6c-3.1-2.5-6-5.3-9-7.8c-0.2-0.2-0.2-0.5-0.1-0.7c0.2-0.2,0.5-0.2,0.7-0.1c0,0,0,0,0.1,0.1
							c2.7,2.9,5.8,5.4,8.9,7.7c3.2,2.3,6.6,4.4,10.1,5.9c1.8,0.8,3.6,1.4,5.5,1.8c1.8,0.4,3.7,0.5,5.5,0.2c0.9-0.2,1.7-0.5,2.4-0.9
							s1.3-1,1.6-1.6c0.2-0.3,0.2-0.5,0.2-1c0-0.4,0-0.8-0.2-1.1c-0.1-0.3-0.3-0.6-0.6-0.9c-0.3-0.2-0.7-0.5-1-0.6H239
							c-0.3-0.1-0.4-0.4-0.3-0.6C238.7,6.8,238.9,6.7,239.1,6.7z"/>
					</g>
				</g>
				<g class="st1">
					<g>
						<path d="M139.3,17.8c-1.2,1.4-2.4,2.5-3.8,3.4c-1.4,0.9-3,1.6-4.6,2c-0.8,0.2-1.6,0.3-2.4,0.4c-0.8,0-1.7,0-2.5-0.1
							c-0.4-0.1-0.8-0.1-1.2-0.2l-1.2-0.3c-0.8-0.2-1.5-0.5-2.3-0.8c-1.5-0.6-3-1.5-4.2-2.7s-2.1-2.8-2.6-4.6
							c-0.5-1.7-0.5-3.6-0.1-5.4s1.2-3.4,2.3-4.9c1.1-1.5,2.5-2.7,4.1-3.6s3.3-1.5,5.1-1.7c1.8-0.2,3.5-0.1,5.2,0.2s3.3,0.9,4.8,1.5
							c3,1.3,5.9,2.8,8.7,4.6s5.4,3.6,8.1,5.5c5.2,3.8,10.4,7.7,16.4,9.4c3,0.8,6.1,1,9.1,0.6c1.5-0.2,3-0.6,4.4-1.2
							c1.5-0.5,2.9-1.2,4.3-1.9c5.6-2.9,10.7-6.9,15.6-11.1c4.8-4.2,9.5-8.7,13.9-13.5l0,0c0.2-0.2,0.5-0.2,0.7,0s0.2,0.5,0,0.7
							c-4.1,5-8.6,9.8-13.4,14.2c-4.8,4.4-9.9,8.5-15.8,11.7c-1.5,0.8-3,1.5-4.5,2.1c-1.6,0.6-3.2,1-4.9,1.3
							c-3.4,0.4-6.8,0.2-10.1-0.7c-3.3-0.9-6.2-2.6-9-4.3c-2.8-1.8-5.3-3.8-7.9-5.7c-2.6-2-5.2-3.9-7.9-5.6s-5.5-3.2-8.5-4.5
							c-1.5-0.6-2.9-1-4.5-1.2c-1.5-0.2-3-0.1-4.5,0.3c-2.9,0.7-5.3,2.5-6.9,4.8c-0.8,1.1-1.5,2.4-1.9,3.8l-0.3,1
							c-0.1,0.3-0.2,0.7-0.2,1c-0.1,0.7-0.2,1.4-0.2,2.2c0,1.5,0.3,3,1.2,4.3c0.8,1.3,2.1,2.3,3.6,2.9c0.7,0.3,1.5,0.7,2.2,0.8
							l1.2,0.3c0.4,0.1,0.8,0.1,1.2,0.2c0.8,0.1,1.6,0.1,2.4,0.1c0.8-0.1,1.6-0.2,2.3-0.4c3-0.8,5.7-3.1,7.1-5.7v-0.1
							c0.2-0.4,0.8-0.6,1.2-0.4s0.6,0.8,0.4,1.2C139.3,17.7,139.3,17.7,139.3,17.8z"/>
					</g>
					<g>
						<path d="M170.3,18.6c-1.7,2.1-4,3.6-6.4,4.4s-5,1.1-7.4,0.6c-2.4-0.4-4.8-1.5-6.6-3.1c-1.9-1.6-3.2-3.7-4-6
							c-1.7-4.5-1.7-9.7,0.3-14.3c1-2.2,2.7-4.3,4.7-5.7c2-1.5,4.3-2.6,6.7-3.2c4.8-1.2,9.9-0.8,14.6,0.3c4.7,1.1,9.3,3.1,13.5,5.5
							s8.2,5.2,11.8,8.5s6.8,7,9.3,11.2c0.1,0.2,0.1,0.5-0.2,0.7c-0.2,0.1-0.5,0.1-0.7-0.2c-2.4-4.1-5.7-7.6-9.2-10.8
							c-3.6-3.1-7.5-5.9-11.6-8.3S176.6-6,172-7.2s-9.4-1.5-14-0.4c-2.3,0.6-4.4,1.6-6.3,2.9c-1.9,1.3-3.4,3.1-4.5,5.2
							c-2.2,4.1-2.7,9.3-1,13.7c0.9,2.2,2.3,4.2,4.1,5.7s4.1,2.3,6.4,2.6c2.3,0.2,4.7-0.2,6.7-1.2s3.8-2.5,4.9-4.4
							c0.3-0.6,1.1-0.8,1.8-0.5c0.6,0.3,0.8,1.1,0.5,1.8C170.4,18.5,170.4,18.5,170.3,18.6L170.3,18.6z"/>
					</g>
					<g>
						<path d="M176.3,2.5c-0.4-0.7-1.1-1.5-1.8-2c-0.7-0.6-1.5-1.1-2.4-1.4c-1.7-0.6-3.7-0.6-5.5,0c-1.6,0.6-3,2.1-3.9,3.7
							c-0.9,1.7-1.3,3.6-1.4,5.5c0,1.9,0.4,3.7,1.3,5.3c0.9,1.6,2.1,3,3.7,4.1c3.1,2.2,7,3.4,11,4.2l0,0c0.3,0.1,0.4,0.3,0.4,0.6
							c0,0.2-0.3,0.4-0.5,0.4c-4.1-0.1-8.5-0.9-12.2-3.3c-1.8-1.2-3.5-2.9-4.5-4.9c-0.5-1-0.9-2.1-1.1-3.2c-0.2-1.1-0.3-2.2-0.2-3.3
							c0.2-2.2,0.8-4.4,2-6.3c1.1-1.9,2.7-3.6,5-4.4c2.1-0.6,4.4-0.7,6.5,0c1.1,0.3,2.1,0.9,3,1.5c0.9,0.7,1.7,1.4,2.4,2.4
							c0.3,0.5,0.2,1.1-0.2,1.4s-1.1,0.2-1.4-0.2C176.4,2.6,176.4,2.6,176.3,2.5L176.3,2.5z"/>
					</g>
					<g>
						<path d="M173.3,7.7c-0.3,0.1-0.8,0.3-1,0.6c-0.3,0.3-0.5,0.6-0.6,0.9c-0.1,0.3-0.2,0.7-0.2,1.1c0,0.5,0.1,0.6,0.2,1
							c0.3,0.6,0.9,1.2,1.6,1.6c0.7,0.4,1.5,0.7,2.4,0.9c1.7,0.3,3.6,0.2,5.5-0.2c1.8-0.4,3.7-1,5.5-1.8c3.6-1.5,6.9-3.6,10.1-5.9
							c3.2-2.3,6.3-4.8,8.9-7.7c0.2-0.2,0.5-0.2,0.7,0s0.2,0.5,0,0.7c0,0,0,0-0.1,0.1c-3.1,2.5-5.9,5.3-9,7.8s-6.4,4.8-10,6.6
							c-1.8,0.9-3.7,1.7-5.7,2.2s-4.1,0.7-6.3,0.4c-1.1-0.2-2.2-0.5-3.1-1.1c-1-0.6-1.9-1.4-2.4-2.6c-0.1-0.3-0.2-0.6-0.3-1
							c0-0.4,0-0.7,0-1c0.1-0.6,0.2-1.2,0.6-1.7c0.3-0.6,0.8-1,1.3-1.3c0.6-0.3,1.1-0.4,1.8-0.4c0.3,0,0.5,0.2,0.5,0.5
							C173.7,7.4,173.5,7.6,173.3,7.7L173.3,7.7z"/>
					</g>
				</g>
			</g>
		</g>
	</g>
</g>
</svg>
