<?xml version="1.0" encoding="utf-8"?>
<!-- Generator: Adobe Illustrator 22.1.0, SVG Export Plug-In . SVG Version: 6.00 Build 0)  -->
<svg version="1.1" id="Capa_1" xmlns="http://www.w3.org/2000/svg" xmlns:xlink="http://www.w3.org/1999/xlink" x="0px" y="0px"
	 viewBox="0 0 512 512" style="enable-background:new 0 0 512 512;" xml:space="preserve">
<style type="text/css">
	.st0{fill:#FFFFFF;}
</style>
<g>
	<g>
		<path class="st0" d="M425.7,276.2c-8.2,0.4-14.4,7.4-14.4,15.6v154.7c0,0,0,0.1-0.1,0.1H328c0,0-0.1,0-0.1-0.1V291.3
			c0-8.4-6.8-15.2-15.2-15.2H199.3c-8.4,0-15.2,6.8-15.2,15.2v155.1c0,0,0,0.1-0.1,0.1h-83.2c0,0-0.1,0-0.1-0.1V291.7
			c0-8.2-6.3-15.2-14.4-15.6c-8.7-0.4-15.8,6.5-15.8,15.1v170.3c0,8.4,6.8,15.2,15.2,15.2h128.6c0,0,0.1,0,0.1-0.1v-30.2l0,0v-140
			c0,0,0-0.1,0.1-0.1h83.2c0,0,0.1,0,0.1,0.1v140.1l0,0v30.2c0,0,0,0,0,0.1h128.6c8.4,0,15.2-6.8,15.2-15.2V291.3
			C441.4,282.7,434.3,275.8,425.7,276.2z"/>
		<path class="st0" d="M507.6,280.6L266.7,39.7c-5.9-5.9-15.5-5.9-21.4,0L4.4,280.6c-5.9,5.9-5.9,15.5,0,21.4s15.5,5.9,21.4,0
			L256,71.8L486.2,302c2.9,2.9,6.8,4.4,10.7,4.4c3.9,0,7.7-1.5,10.7-4.4C513.5,296.1,513.5,286.5,507.6,280.6z"/>
	</g>
</g>
</svg>
