<svg xmlns="http://www.w3.org/2000/svg" width="3081" height="700" viewBox="0 0 3081 700" id="svg-1">
  <defs id="defs-2">
    <style id="style-3">
	.cls-1 { fill-rule: evenodd; }
</style>
  </defs>
  <path id="LineFon.svg" class="cls-1" d="M3289,951V351h1V951h-1ZM2849,701h1v300h-1V701Zm0-400h1V601h-1V301Zm-440,50h1V951h-1V351ZM1969,701h1v300h-1V701Zm0-400h1V601h-1V301Zm-440,50h1V951h-1V351ZM1089,701h1v300h-1V701Zm0-400h1V601h-1V301ZM649,351h1V951h-1V351ZM209,701h1v300h-1V701Zm0-400h1V601h-1V301Z" transform="translate(-209 -301)" fill="#ffffff" fill-opacity="0.15" type="solidColor"></path>
</svg>