<?xml version="1.0"?>
<svg xmlns="http://www.w3.org/2000/svg" height="512px" viewBox="0 0 512 512" width="512px" class=""><g><path d="m440 144h-368c-39.699219 0-72-32.300781-72-72s32.300781-72 72-72h368c39.699219 0 72 32.300781 72 72 0 11.046875-8.953125 20-20 20s-20-8.953125-20-20c0-17.644531-14.355469-32-32-32h-368c-17.644531 0-32 14.355469-32 32s14.355469 32 32 32h368c11.046875 0 20 8.953125 20 20s-8.953125 20-20 20zm20 348c0-11.046875-8.953125-20-20-20h-368c-17.644531 0-32-14.355469-32-32s14.355469-32 32-32h368c17.644531 0 32 14.355469 32 32 0 11.046875 8.953125 20 20 20s20-8.953125 20-20c0-39.699219-32.300781-72-72-72h-368c-39.699219 0-72 32.300781-72 72s32.300781 72 72 72h368c11.046875 0 20-8.953125 20-20zm0-184c0-11.046875-8.953125-20-20-20h-368c-17.644531 0-32-14.355469-32-32s14.355469-32 32-32h368c17.644531 0 32 14.355469 32 32 0 11.046875 8.953125 20 20 20s20-8.953125 20-20c0-39.699219-32.300781-72-72-72h-368c-39.699219 0-72 32.300781-72 72s32.300781 72 72 72h368c11.046875 0 20-8.953125 20-20zm0 0" data-original="#000000" class="active-path" data-old_color="#000000" fill="#FFFFFF"/></g> </svg>
