<?xml version="1.0"?>
<svg xmlns="http://www.w3.org/2000/svg" height="512px" viewBox="-21 -21 682.66669 682.66669" width="512px" class=""><g><path d="m330.667969 298.667969c0 5.886719-4.777344 10.664062-10.667969 10.664062s-10.667969-4.777343-10.667969-10.664062c0-5.894531 4.777344-10.667969 10.667969-10.667969s10.667969 4.773438 10.667969 10.667969zm0 0" data-original="#000000" class="active-path" data-old_color="#000000" fill="#FFFFFF"/><path d="m138.667969 128c0 5.890625-4.777344 10.667969-10.667969 10.667969s-10.664062-4.777344-10.664062-10.667969 4.773437-10.664062 10.664062-10.664062 10.667969 4.773437 10.667969 10.664062zm0 0" data-original="#000000" class="active-path" data-old_color="#000000" fill="#FFFFFF"/><path d="m309.332031 53.335938c0 5.886718-4.777343 10.664062-10.664062 10.664062-5.894531 0-10.667969-4.777344-10.667969-10.664062 0-5.894532 4.773438-10.671876 10.667969-10.671876 5.886719 0 10.664062 4.777344 10.664062 10.671876zm0 0" data-original="#000000" class="active-path" data-old_color="#000000" fill="#FFFFFF"/><path d="m64 298.667969c0 5.886719-4.777344 10.664062-10.664062 10.664062-5.894532 0-10.671876-4.777343-10.671876-10.664062 0-5.894531 4.777344-10.667969 10.671876-10.667969 5.886718 0 10.664062 4.773438 10.664062 10.667969zm0 0" data-original="#000000" class="active-path" data-old_color="#000000" fill="#FFFFFF"/><path d="m480 128c0 5.890625-4.773438 10.667969-10.667969 10.667969-5.890625 0-10.664062-4.777344-10.664062-10.667969s4.773437-10.664062 10.664062-10.664062c5.894531 0 10.667969 4.773437 10.667969 10.664062zm0 0" data-original="#000000" class="active-path" data-old_color="#000000" fill="#FFFFFF"/><path d="m554.667969 298.667969c0 5.886719-4.777344 10.664062-10.667969 10.664062s-10.664062-4.777343-10.664062-10.664062c0-5.894531 4.773437-10.667969 10.664062-10.667969s10.667969 4.773438 10.667969 10.667969zm0 0" data-original="#000000" class="active-path" data-old_color="#000000" fill="#FFFFFF"/><path d="m480 469.332031c0 5.894531-4.773438 10.667969-10.667969 10.667969-5.890625 0-10.664062-4.773438-10.664062-10.667969 0-5.890625 4.773437-10.664062 10.664062-10.664062 5.894531 0 10.667969 4.773437 10.667969 10.664062zm0 0" data-original="#000000" class="active-path" data-old_color="#000000" fill="#FFFFFF"/><path d="m309.332031 544c0 5.890625-4.777343 10.667969-10.664062 10.667969-5.894531 0-10.667969-4.777344-10.667969-10.667969s4.773438-10.664062 10.667969-10.664062c5.886719 0 10.664062 4.773437 10.664062 10.664062zm0 0" data-original="#000000" class="active-path" data-old_color="#000000" fill="#FFFFFF"/><path d="m138.667969 469.332031c0 5.894531-4.777344 10.667969-10.667969 10.667969s-10.664062-4.773438-10.664062-10.667969c0-5.890625 4.773437-10.664062 10.664062-10.664062s10.667969 4.773437 10.667969 10.664062zm0 0" data-original="#000000" class="active-path" data-old_color="#000000" fill="#FFFFFF"/><path d="m586.664062 245.332031h-16.617187c-5.378906-25.78125-14.808594-50.550781-27.933594-73.382812 19.234375-13.230469 27.632813-37.421875 20.730469-59.71875-6.902344-22.300781-27.5-37.519531-50.84375-37.5625h-42.667969c-6.574219.027343-13.082031 1.285156-19.199219 3.699219-17.460937-10.375-36.128906-18.570313-55.582031-24.417969 0-.207031.0625-.402344.0625-.613281-.035156-29.445313-23.890625-53.3007818-53.332031-53.335938h-42.613281c-29.441407.0351562-53.300781 23.890625-53.335938 53.335938 0 .210937.0625.40625.0625.613281-19.433593 5.851562-38.082031 14.050781-55.527343 24.417969-6.117188-2.414063-12.625-3.671876-19.199219-3.699219h-42.667969c-23.34375.042969-43.941406 15.261719-50.84375 37.5625-6.902344 22.296875 1.496094 46.488281 20.730469 59.71875-13.125 22.832031-22.554688 47.601562-27.933594 73.382812h-16.617187c-29.460938 0-53.335938 23.882813-53.335938 53.335938s23.875 53.332031 53.335938 53.332031h16.617187c5.378906 25.78125 14.808594 50.554688 27.933594 73.386719-19.234375 13.226562-27.632813 37.421875-20.730469 59.714843 6.902344 22.300782 27.5 37.519532 50.84375 37.5625h42.667969c6.542969-.03125 13.023437-1.28125 19.113281-3.6875 1.996094 1.214844 3.945312 2.398438 5.960938 3.5 5.078124 2.84375 10.273437 5.4375 15.523437 7.914063l-19.109375 45.609375h-32.15625c-17.671875 0-32 14.328125-32 32v21.332031c0 5.894531 4.773438 10.667969 10.667969 10.667969h362.664062c5.894531 0 10.667969-4.773438 10.667969-10.667969v-21.332031c0-17.671875-14.328125-32-32-32h-32.15625l-19.109375-45.609375c5.214844-2.464844 10.382813-5.035156 15.40625-7.851563 2.132813-1.152343 4.082031-2.335937 6.078125-3.5625 6.089844 2.40625 12.570312 3.65625 19.113281 3.6875h42.667969c23.34375-.042968 43.941406-15.261718 50.84375-37.5625 6.902344-22.292968-1.496094-46.488281-20.730469-59.714843 13.125-22.832031 22.554688-47.605469 27.933594-73.386719h16.617187c29.460938 0 53.335938-23.878906 53.335938-53.332031s-23.875-53.335938-53.335938-53.335938zm-74.664062-149.332031c17.671875 0 32 14.328125 32 32s-14.328125 32-32 32h-42.667969c-17.671875 0-31.996093-14.328125-31.996093-32s14.324218-32 31.996093-32zm-213.332031-74.667969h42.664062c17.675781 0 32.003907 14.328125 32.003907 32.003907 0 17.671874-14.328126 31.996093-32.003907 31.996093h-42.664062c-17.675781 0-32.003907-14.324219-32.003907-31.996093 0-17.675782 14.328126-32.003907 32.003907-32.003907zm-170.667969 74.667969h42.667969c17.671875 0 31.996093 14.328125 31.996093 32s-14.324218 32-31.996093 32h-42.667969c-17.671875 0-32-14.328125-32-32s14.328125-32 32-32zm-106.667969 202.667969c0-17.675781 14.328125-32.003907 32.003907-32.003907h42.664062c17.671875 0 32 14.328126 32 32.003907 0 17.667969-14.328125 32-32 32h-42.664062c-17.675782 0-32.003907-14.332031-32.003907-32zm106.667969 202.664062c-17.671875 0-32-14.324219-32-32 0-17.671875 14.328125-31.996093 32-31.996093h42.667969c17.671875 0 31.996093 14.324218 31.996093 31.996093 0 17.675781-14.324218 32-31.996093 32zm21.332031 117.335938v-10.667969c0-5.890625 4.777344-10.664062 10.667969-10.664062h53.335938c5.886718 0 10.664062 4.773437 10.664062 10.664062v10.667969zm341.335938-10.667969v10.667969h-74.667969v-10.667969c0-5.890625 4.777344-10.664062 10.664062-10.664062h53.335938c5.890625 0 10.667969 4.773437 10.667969 10.664062zm-65.878907-31.808594c-16.863281.992188-30.046874 14.917969-30.121093 31.808594v10.667969h-149.335938v-10.667969c-.074219-16.890625-13.257812-30.816406-30.121093-31.808594l15.722656-37.523437c4.789062 1.757812 9.597656 3.410156 14.453125 4.863281v.46875c.035156 29.441406 23.890625 53.300781 53.332031 53.335938h42.667969c29.4375-.035157 53.296875-23.894532 53.335937-53.335938 0-.164062 0-.320312-.054687-.480469 4.863281-1.449219 9.671875-3.105469 14.453125-4.863281zm-92.085937-248.179687c-.242187.082031-.46875.171875-.703125.273437-7.742188 3.195313-16.433594 3.175782-24.15625-.050781l-.484375-.191406c-13.9375-6.011719-21.734375-20.988281-18.667969-35.855469 3.070313-14.863281 16.160156-25.527344 31.34375-25.527344 15.175782 0 28.265625 10.664063 31.335938 25.527344 3.066406 14.867188-4.730469 29.84375-18.667969 35.855469zm-12.703125 23.988281c3.5-.011719 6.992188-.367188 10.421875-1.066406l70.398437 168.03125c-3.539062 1.289062-7.125 2.464844-10.726562 3.582031-8.5-19.347656-27.628906-31.851563-48.761719-31.878906h-10.664062v-106.667969c0-5.890625-4.777344-10.664062-10.667969-10.664062s-10.667969 4.773437-10.667969 10.664062v106.667969h-10.664062c-21.136719.03125-40.261719 12.539062-48.761719 31.890625-3.59375-1.066406-7.175781-2.28125-10.726562-3.582032l70.398437-168.035156c3.429687.695313 6.921875 1.050782 10.421875 1.058594zm21.332031 160c17.675781 0 32.003907 14.328125 32.003907 32 0 17.675781-14.328126 32-32.003907 32h-42.664062c-17.675781 0-32.003907-14.324219-32.003907-32 0-17.671875 14.328126-32 32.003907-32zm170.667969-10.667969h-42.667969c-17.671875 0-31.996093-14.324219-31.996093-32 0-17.671875 14.324218-31.996093 31.996093-31.996093h42.667969c17.671875 0 32 14.324218 32 31.996093 0 17.675781-14.328125 32-32 32zm10.367188-84.265625c-3.414063-.691406-6.882813-1.050781-10.367188-1.066406h-42.667969c-4.957031.074219-9.878906.84375-14.625 2.289062l-66.898437-66.898437c-4.183594-4.042969-10.839844-3.984375-14.953125.132813-4.113281 4.109374-4.175781 10.765624-.128907 14.953124l62.335938 62.320313c-11.230469 9.308594-18.09375 22.851563-18.964844 37.410156-.867187 14.554688 4.335938 28.816407 14.375 39.394531-3.285156 1.773438-6.609375 3.476563-9.984375 5.078126l-70.394531-168.058594c19.316406-13.191406 27.777344-37.429688 20.875-59.777344-6.90625-22.351562-27.566406-37.59375-50.960938-37.59375-23.386718 0-44.050781 15.242188-50.953124 37.59375-6.90625 22.347656 1.5625 46.585938 20.875 59.777344l-70.398438 168.058594c-3.367188-1.601563-6.699219-3.304688-9.996094-5.078126 10.039063-10.578124 15.246094-24.839843 14.375-39.394531-.867187-14.558593-7.734375-28.101562-18.957031-37.410156l62.332031-62.332031c2.773438-2.679688 3.886719-6.644532 2.910156-10.375-.976562-3.726563-3.890624-6.640625-7.617187-7.617188-3.730469-.976562-7.695313.136719-10.375 2.910156l-66.898437 66.898438c-4.75-1.445312-9.675782-2.210938-14.636719-2.28125h-42.667969c-3.484375.015625-6.953125.375-10.367188 1.066406-11.925781-20.230468-20.660156-42.175781-25.898437-65.066406h4.265625c25.332031-.03125 47.164062-17.851562 52.265625-42.667969h86.402344c5.886719 0 10.664062-4.777343 10.664062-10.664062 0-5.894531-4.777343-10.667969-10.664062-10.667969h-86.402344c-5.101563-24.816406-26.933594-42.632812-52.265625-42.667969h-4.265625c5.222656-22.886719 13.945313-44.832031 25.851563-65.0625 3.429687.691407 6.914062 1.050781 10.414062 1.0625h42.667969c4.957031-.074219 9.878906-.84375 14.625-2.292969l66.898437 66.902344c2.675782 2.773438 6.644532 3.882813 10.371094 2.910156 3.730469-.976562 6.648438-3.890624 7.625-7.621093.96875-3.726563-.140625-7.695313-2.914062-10.371094l-62.335938-62.324219c11.238281-9.296875 18.113281-22.835937 18.992188-37.394531.878906-14.558594-4.316407-28.828125-14.351563-39.40625 12.882813-6.925781 26.402344-12.59375 40.375-16.921875 8.503906 19.328125 27.601563 31.8125 48.714844 31.851562h10.664062v106.671876c0 5.886718 4.777344 10.664062 10.667969 10.664062s10.667969-4.777344 10.667969-10.664062v-106.671876h10.664062c21.097657-.027343 40.199219-12.5 48.714844-31.804687 13.972656 4.3125 27.492187 9.964844 40.375 16.875-10.035156 10.578125-15.230469 24.847656-14.351563 39.40625.878907 14.558594 7.753907 28.097656 18.992188 37.394531l-62.335938 62.332032c-2.773437 2.683593-3.882812 6.648437-2.914062 10.378906.976562 3.722656 3.894531 6.640625 7.625 7.617187 3.726562.976563 7.695312-.136719 10.371094-2.910156l66.898437-66.898437c4.746094 1.445312 9.667969 2.210937 14.625 2.277343h42.667969c3.484375-.019531 6.953125-.375 10.367188-1.0625 11.925781 20.230469 20.660156 42.171875 25.898437 65.0625h-4.265625c-25.332031.035157-47.164062 17.851563-52.265625 42.667969h-86.402344c-5.886719 0-10.664062 4.773438-10.664062 10.667969 0 5.886719 4.777343 10.664062 10.664062 10.664062h86.402344c5.101563 24.816407 26.933594 42.636719 52.265625 42.667969h4.265625c-5.238281 22.890625-13.972656 44.835938-25.898437 65.066406zm64.296874-86.398437h-42.664062c-17.671875 0-32-14.332031-32-32 0-17.675781 14.328125-32.003907 32-32.003907h42.664062c17.675782 0 32.003907 14.328126 32.003907 32.003907 0 17.667969-14.328125 32-32.003907 32zm0 0" data-original="#000000" class="active-path" data-old_color="#000000" fill="#FFFFFF"/><path d="m96 640c5.890625 0 10.664062-4.773438 10.664062-10.667969 0-5.890625-4.773437-10.664062-10.664062-10.664062h-85.332031c-5.894531 0-10.667969 4.773437-10.667969 10.664062 0 5.894531 4.773438 10.667969 10.667969 10.667969zm0 0" data-original="#000000" class="active-path" data-old_color="#000000" fill="#FFFFFF"/><path d="m629.332031 618.667969h-85.332031c-5.890625 0-10.664062 4.773437-10.664062 10.664062 0 5.894531 4.773437 10.667969 10.664062 10.667969h85.332031c5.894531 0 10.667969-4.773438 10.667969-10.667969 0-5.890625-4.773438-10.664062-10.667969-10.664062zm0 0" data-original="#000000" class="active-path" data-old_color="#000000" fill="#FFFFFF"/></g> </svg>
