<?xml version="1.0"?>
<svg xmlns="http://www.w3.org/2000/svg" xmlns:xlink="http://www.w3.org/1999/xlink" version="1.1" id="Layer_1" x="0px" y="0px" viewBox="0 0 512.001 512.001" style="enable-background:new 0 0 512.001 512.001;" xml:space="preserve" width="512px" height="512px"><g><g>
	<g>
		<path d="M491.752,135.594c9.989,0,18.115-8.126,18.115-18.114V93.656c0-9.09-6.737-16.616-15.477-17.9l-51.703-36.408    c-3.335-2.347-7.941-1.548-10.288,1.786c-2.348,3.334-1.549,7.94,1.785,10.288l34.252,24.12H290.667l84.314-59.373    c2.783-1.851,6.356-1.852,9.139,0l33.74,23.759c3.335,2.348,7.941,1.548,10.288-1.786c2.348-3.334,1.549-7.94-1.785-10.288    L392.556,4.047c-0.039-0.027-0.079-0.054-0.118-0.081c-7.829-5.289-17.946-5.288-25.772,0c-0.039,0.027-0.079,0.054-0.118,0.081    l-101.622,71.56c-9.385,0.668-16.822,8.497-16.822,18.049v23.825v11.997c-9.259,4.158-31.943,14.344-54.688,24.554    c-3.72,1.67-5.382,6.039-3.713,9.76c1.67,3.72,6.04,5.382,9.76,3.712c18.743-8.413,37.455-16.815,48.641-21.839v70.131    l-97.662,43.851c-0.001,0-0.001,0.001-0.002,0.001l-5.33,2.389l-0.001,0.001c-0.001,0-0.001,0.001-0.002,0.001l-30.991,13.911    l-52.089,23.392c-4.161,1.869-8.562,2.817-13.081,2.817c-12.592,0-24.06-7.421-29.217-18.902    c-3.498-7.796-3.751-16.49-0.712-24.48c3.038-7.989,9.003-14.314,16.798-17.811l84.349-37.862c0.001,0,0.002-0.001,0.002-0.001    l30.991-13.921l27.162-12.188c3.72-1.671,5.382-6.041,3.711-9.76c-1.67-3.72-6.041-5.38-9.76-3.711l-16.754,7.518V95.802    c0-12.616-10.263-22.88-22.879-22.88c-6.112,0-11.857,2.38-16.169,6.692c-4.327,4.312-6.71,10.061-6.71,16.188v95.785    L29.77,227.492c-11.394,5.111-20.114,14.358-24.555,26.035c-4.44,11.674-4.07,24.379,1.043,35.776    c7.459,16.608,23.951,27.392,42.125,27.611l22.826,3.012L29.77,338.53C6.246,349.084-4.302,376.811,6.255,400.343    c7.536,16.779,24.292,27.621,42.689,27.621c1.526,0,4.327-0.408,7.361-0.994c0.108,0.015,0.215,0.033,0.325,0.043l53.652,5.796    c-0.335,1.874-0.527,3.761-0.527,5.65v66.157c0,0.029,0.005,0.057,0.005,0.085c0.003,0.278,0.017,0.557,0.053,0.837    c0.002,0.014,0.005,0.028,0.007,0.043c0.026,0.194,0.057,0.388,0.098,0.582c0.013,0.062,0.033,0.121,0.047,0.182    c0.018,0.074,0.037,0.147,0.057,0.22c0.063,0.231,0.135,0.456,0.219,0.676c0.013,0.033,0.022,0.067,0.036,0.101    c0.102,0.257,0.22,0.505,0.348,0.746c0.026,0.049,0.054,0.096,0.081,0.144c0.117,0.207,0.242,0.408,0.377,0.602    c0.027,0.038,0.051,0.078,0.079,0.116c0.16,0.221,0.332,0.431,0.514,0.632c0.037,0.041,0.076,0.079,0.114,0.119    c0.161,0.169,0.33,0.331,0.506,0.484c0.042,0.036,0.082,0.074,0.124,0.109c0.211,0.175,0.431,0.338,0.66,0.488    c0.016,0.01,0.029,0.023,0.045,0.033c0.024,0.016,0.051,0.026,0.076,0.042c0.55,0.348,1.147,0.622,1.779,0.816    c0.044,0.014,0.088,0.029,0.132,0.041c0.296,0.085,0.599,0.15,0.908,0.197c0.056,0.009,0.113,0.015,0.169,0.022    c0.312,0.04,0.627,0.068,0.948,0.068h14.797c10.16,0,19.092-6.614,22.301-15.947l59.439-26.688    c23.521-10.552,34.068-38.279,23.512-61.809c-5.564-12.4-16.23-21.745-29.211-25.625c-3.347-1.027-6.83-1.647-10.351-1.872    c-0.031-0.003-0.06-0.01-0.091-0.012l-0.229-0.019l-26.475-2.308l42.848-19.237h0.001c23.514-10.562,34.061-38.288,23.508-61.811    c-7.86-17.493-25.745-28.442-44.801-27.564l-16.924-4.507l73.337-32.929c1.811,5.819,6.965,10.179,13.205,10.824v11.643    c-7.5,3.224-12.767,10.681-12.767,19.348v68.031c0,4.078,3.305,7.384,7.383,7.384c4.078,0,7.384-3.306,7.384-7.384v-68.031    c0-3.466,2.82-6.286,6.286-6.286h39.953h75.805h102.764c3.467,0,6.287,2.82,6.287,6.286v190.22c0,3.466-2.82,6.286-6.287,6.286    h-19.082H289.374H270.29c-3.466,0-6.286-2.82-6.286-6.286v-99.545c0-4.078-3.305-7.384-7.384-7.384    c-4.078,0-7.383,3.306-7.383,7.384v99.545c0,11.609,9.444,21.053,21.053,21.053h4.809v12.962c0,7.871,6.404,14.275,14.275,14.275    h180.355c7.871,0,14.275-6.404,14.275-14.275v-12.964h4.809c11.609,0,21.054-9.444,21.054-21.053v-190.22    c0-11.448-9.189-20.772-20.577-21.029V135.594H491.752z M124.522,95.802c0-2.172,0.841-4.206,2.376-5.737    c1.532-1.532,3.569-2.375,5.736-2.375c4.473,0,8.112,3.639,8.112,8.112v81.866l-16.224,7.287V95.802z M155.513,274.569    l10.497,2.796l-1.972,0.885l-8.525,3.827V274.569z M124.522,287.464l16.224-7.282v8.524l-16.224,7.282V287.464z M109.755,294.094    v8.522l-12.916,5.799l-14.664-1.936L109.755,294.094z M109.755,417.899l-22.908-2.474l22.908-10.284V417.899z M172.973,401.314    c2.79-1.257,5.581-2.514,8.378-3.768l0.065-0.029c0.512-0.23,1.029-0.439,1.547-0.641c0.242-0.094,0.487-0.182,0.732-0.27    c0.228-0.082,0.456-0.16,0.685-0.237c3.464-1.152,7.122-1.706,10.754-1.644c0.151,0.003,0.302,0.007,0.453,0.012    c2.756,0.086,5.491,0.523,8.11,1.326c8.916,2.665,16.213,9.058,20.018,17.537c7.223,16.1,0.008,35.071-16.083,42.291    c-0.001,0-0.001,0.001-0.002,0.001l-62.621,28.116c-0.027,0.012-0.055,0.018-0.082,0.03l-20.405,9.166v-54.746    c0-2.692,0.614-5.246,1.631-7.624c0.306-0.414,0.585-0.851,0.804-1.333c0.156-0.345,0.31-0.65,0.47-0.932    c0.075-0.131,0.146-0.265,0.213-0.401c0.01-0.019,0.02-0.039,0.029-0.059c0.441-0.818,0.929-1.618,1.463-2.396    c2.57-3.443,5.894-6.286,9.135-8.298c0.027-0.016,0.056-0.033,0.082-0.049c0.11-0.057,0.244-0.124,0.401-0.204    c1.131-0.574,2.27-1.159,3.286-1.872c0.384-0.201,0.773-0.398,1.164-0.594c0.304-0.153,0.604-0.308,0.911-0.457    c0.491-0.24,0.987-0.473,1.484-0.706c0.28-0.131,0.557-0.266,0.838-0.395c0.577-0.266,1.154-0.526,1.732-0.784    c0.2-0.09,0.4-0.182,0.6-0.271c0.497-0.221,0.987-0.434,1.479-0.65c0.308-0.092,0.613-0.197,0.91-0.331l8.644-3.88    C164.233,405.248,168.649,403.262,172.973,401.314z M124.522,409.104v-10.591l16.224-7.286v8.272    c-0.107,0.049-0.215,0.102-0.322,0.152c-0.59,0.271-1.181,0.552-1.773,0.835c-0.371,0.174-0.74,0.347-1.111,0.528    c-0.73,0.357-1.455,0.729-2.18,1.107c-0.204,0.106-0.411,0.204-0.614,0.312c-0.087,0.044-0.172,0.089-0.256,0.136    c-1.257,0.671-2.442,1.349-3.574,2.036c-0.063,0.036-0.121,0.069-0.157,0.091c-0.031,0.019-0.059,0.04-0.09,0.059    C128.388,406.153,126.35,407.592,124.522,409.104z M155.513,392.958v-1.752l3.268,0.285L155.513,392.958z M181.427,286.628    c0.426-0.192,0.855-0.375,1.288-0.547c3.025-1.209,6.194-1.941,9.445-2.178c0.786-0.058,1.569-0.087,2.349-0.087    c12.489,0.002,24.029,7.379,29.206,18.903c7.22,16.093,0.003,35.065-16.086,42.292l0.001-0.001l-62.481,28.051    c-0.015,0.007-0.031,0.01-0.046,0.017l-6.216,2.793c-0.001,0.001-0.003,0.001-0.004,0.002l-6.28,2.82l-62.038,27.852l-8.51,3.82    c-1.973,0.807-11.057,2.763-13.112,2.831c-12.592,0-24.06-7.421-29.217-18.902c-3.498-7.796-3.751-16.49-0.712-24.48    c3.038-7.989,9.003-14.314,16.798-17.812L181.427,286.628z M469.236,497.228h-179.37v-12.47h179.37V497.228z M263.609,227.81    c-0.414,0-0.738-0.324-0.738-0.738v-6.498v-85.29c0.325,0.061,0.659,0.095,0.99,0.139c0.195,0.025,0.386,0.062,0.582,0.082    c0.585,0.057,1.176,0.09,1.775,0.09h16.952v91.477c0,0.414-0.324,0.738-0.738,0.738H263.609z M378.664,252.432h-61.037v-15.516    c0-2.579,2.098-4.676,4.676-4.676h51.685c2.578,0,4.676,2.098,4.676,4.676V252.432z M393.432,252.432v-15.516    c0-10.721-8.722-19.443-19.444-19.443h-51.685c-10.722,0-19.443,8.722-19.443,19.443v15.516h-26.089v-9.855h5.661    c8.55,0,15.505-6.956,15.505-15.505v-91.477h24.612v21.826c0,4.078,3.305,7.384,7.383,7.384H441.67    c4.078,0,7.384-3.306,7.384-7.384v-21.826h25.467v116.837H393.432z M337.317,150.036v-14.442h96.971v14.442H337.317z     M290.554,120.827h-24.336c-1.846,0-3.348-1.502-3.348-3.347V93.656c0-1.845,1.502-3.347,3.348-3.347h1.076    c0.022,0,0.044,0.004,0.066,0.004c0.017,0,0.034-0.004,0.051-0.004h224.282c0.017,0,0.034,0.004,0.051,0.004    c0.01,0,0.019-0.002,0.029-0.002c1.836,0.012,3.326,1.507,3.326,3.345v23.824h0c0,1.845-1.502,3.347-3.348,3.347H290.554z" data-original="#000000" class="active-path" data-old_color="#000000" fill="#FFFFFF"/>
	</g>
</g><g>
	<g>
		<path d="M319.104,279.013c-23.614,0-42.825,19.211-42.825,42.825s19.211,42.825,42.825,42.825s42.825-19.211,42.825-42.825    S342.718,279.013,319.104,279.013z M319.104,349.895c-15.471,0-28.058-12.587-28.058-28.058s12.587-28.058,28.058-28.058    s28.058,12.587,28.058,28.058C347.161,337.309,334.575,349.895,319.104,349.895z" data-original="#000000" class="active-path" data-old_color="#000000" fill="#FFFFFF"/>
	</g>
</g><g>
	<g>
		<path d="M418.063,327.735c-35.963,0-65.221,29.258-65.221,65.221s29.258,65.222,65.221,65.222s65.222-29.258,65.222-65.222    C483.285,356.993,454.026,327.735,418.063,327.735z M418.064,443.41c-27.821,0-50.454-22.634-50.454-50.454    c-0.001-27.82,22.633-50.454,50.454-50.454s50.454,22.634,50.454,50.454C468.518,420.777,445.885,443.41,418.064,443.41z" data-original="#000000" class="active-path" data-old_color="#000000" fill="#FFFFFF"/>
	</g>
</g><g>
	<g>
		<path d="M335.348,379.932h-56.115c-4.079,0-7.384,3.306-7.384,7.384c0,4.078,3.305,7.383,7.384,7.383h56.115    c4.078,0,7.384-3.306,7.384-7.383C342.732,383.238,339.426,379.932,335.348,379.932z" data-original="#000000" class="active-path" data-old_color="#000000" fill="#FFFFFF"/>
	</g>
</g><g>
	<g>
		<path d="M335.347,408.806h-56.115c-4.078,0-7.384,3.306-7.384,7.384c0.001,4.079,3.306,7.384,7.384,7.384h56.115    c4.078,0,7.384-3.306,7.384-7.384S339.425,408.806,335.347,408.806z" data-original="#000000" class="active-path" data-old_color="#000000" fill="#FFFFFF"/>
	</g>
</g><g>
	<g>
		<path d="M335.347,437.681h-56.115c-4.078,0-7.384,3.306-7.384,7.384c0.001,4.078,3.306,7.384,7.384,7.384h56.115    c4.078,0,7.384-3.306,7.384-7.384S339.425,437.681,335.347,437.681z" data-original="#000000" class="active-path" data-old_color="#000000" fill="#FFFFFF"/>
	</g>
</g><g>
	<g>
		<path d="M479.081,290.826h-56.115c-4.078,0-7.384,3.306-7.384,7.384s3.305,7.384,7.384,7.384h56.115    c4.078,0,7.384-3.306,7.384-7.384S483.16,290.826,479.081,290.826z" data-original="#000000" class="active-path" data-old_color="#000000" fill="#FFFFFF"/>
	</g>
</g></g> </svg>
