<?xml version="1.0" encoding="utf-8"?>
<!-- Generator: Adobe Illustrator 22.1.0, SVG Export Plug-In . SVG Version: 6.00 Build 0)  -->
<svg version="1.1" id="svg-1" xmlns="http://www.w3.org/2000/svg" xmlns:xlink="http://www.w3.org/1999/xlink" x="0px" y="0px"
	 viewBox="0 0 30 107" style="enable-background:new 0 0 30 107;" xml:space="preserve">
<style type="text/css">
	.st0{fill:#B99470;}
</style>
<path id="ttt.svg" class="st0" d="M6.5,107L6.5,107c3.3-3.8,7.7-8.3,8.9-18.4c-5.2-0.4-8.3-5-8.6-9.9C6.5,74.3,7.5,70,9.7,66.2
	C6.5,58.4,2.7,49,3,43.1c0-2.9,1.2-5.7,3.3-7.7c-2.6-5.5-6.6-13.9-6.3-20C0.4,7,6.5,0,15.5,0C24.2,0,29.8,4.9,30,12.2
	c0,0.2,0,0.3,0,0.4c0,6.4-5.1,11.6-11.5,11.8c-0.1,0-0.3,0-0.4,0c-4.8-0.1-8.7-4-8.6-8.8c0-4.2,3-7.8,7.4-7.8c3.2,0,6.3,1.9,6.4,5.7
	c0,0.1,0,0.2,0,0.3c-0.1,2.6-2.2,4.7-4.8,4.7c-2.4-0.2-3.9-2-3-4.5l0,0c0.3-0.7,1-1.3,1.8-1.3c1-0.1,1.9,0.8,1.9,1.8
	c0,0.9-0.8,1.7-1.7,1.8c1.5,0.7,3.9,0.2,3.9-2.9c0-2-1.7-4-4.7-3.9s-5,3.1-5.2,5.8c0,0.1,0,0.2,0,0.3c0,3.8,3.1,7,7,7
	c5.3-0.1,9.1-4.8,8.8-10.3C27,6.1,22.8,1.6,15.3,1.7c-7.8,0-13.1,6.7-13.5,14C1.5,21.5,5.6,29,8.1,34.3c6.4-3.5,12.8,0.4,13.2,8
	c0.2,3.6-1.4,6.5-3.8,11.1c3.6,7.9,6.7,15.3,7.9,20.6c1.3,6.1-0.6,13.4-7.7,14.4C16.9,95.9,12.2,103.6,6.5,107L6.5,107z M17.8,87
	c6.3-1.6,6.2-8.4,5.2-13c-1.1-4.4-4-10.6-7.1-17.4L12,64.1C15.1,71.5,18,80.7,17.8,87L17.8,87z M15.4,87.2
	c0.3-6.1-2.8-13.9-5.1-19.5c-1.9,3.4-2.7,7.4-2.1,11.2C8.7,83.1,11.4,86.9,15.4,87.2L15.4,87.2z M11.4,62.7L11.4,62.7l3.9-7.4
	L6.9,36.6c-1.2,1.3-1.6,3.5-1.7,5.9C4.9,47.4,8.3,55.2,11.4,62.7L11.4,62.7z M17,52c1.3-2.5,2.1-5.2,2.5-8
	c0.4-6.8-5.4-11.9-10.8-8.8L17,52z"/>
</svg>
