<?xml version="1.0"?>
<svg xmlns="http://www.w3.org/2000/svg" xmlns:xlink="http://www.w3.org/1999/xlink" version="1.1" id="Layer_1" x="0px" y="0px" viewBox="0 0 511.999 511.999" style="enable-background:new 0 0 511.999 511.999;" xml:space="preserve" width="512px" height="512px" class=""><g><g>
	<g>
		<path d="M440.992,133.157c-33.206-6.283-64.052-22.051-89.205-45.602C325.733,63.158,291.715,49.722,256,49.722    c-35.714,0-69.732,13.436-95.787,37.833c-25.153,23.551-55.999,39.319-89.205,45.602c-4.047,0.766-6.977,4.303-6.977,8.422v41.282    c0,4.734,3.837,8.572,8.572,8.572c4.735,0,8.572-3.838,8.572-8.572v-34.314c33.741-7.686,64.993-24.355,90.756-48.479    c22.867-21.411,52.724-33.203,84.07-33.203c31.348,0,61.204,11.791,84.07,33.203c25.763,24.123,57.015,40.793,90.756,48.479    v34.314c0,4.734,3.837,8.572,8.572,8.572c4.735,0,8.572-3.838,8.572-8.572v-41.282C447.97,137.46,445.039,133.923,440.992,133.157    z" data-original="#000000" class="active-path" data-old_color="#000000" fill="#FFFFFF"/>
	</g>
</g><g>
	<g>
		<path d="M482.257,265.532V110.504c0-4.734-3.837-8.572-8.572-8.572c-36.356,0-71.323-13.995-98.463-39.406    c-5.691-5.328-11.793-10.32-18.136-14.837c-3.857-2.746-9.21-1.845-11.955,2.01c-2.745,3.857-1.846,9.208,2.01,11.955    c5.724,4.074,11.228,8.579,16.363,13.387c28.193,26.399,63.993,41.771,101.608,43.804v146.173h-43.188    c12.346-8.729,22.628-20.5,29.751-34.651c1.219-2.424,1.219-5.281,0.001-7.706c-16.073-31.949-48.243-51.795-83.958-51.795    c-35.728,0-67.899,19.848-83.959,51.799c-1.218,2.424-1.217,5.281,0.003,7.704c0.127,0.253,0.263,0.501,0.392,0.751    c-9.261-1.326-18.666-2.002-28.156-2.002c-9.49,0-18.895,0.677-28.156,2.002c0.129-0.25,0.265-0.498,0.392-0.75    c1.221-2.423,1.222-5.281,0.003-7.707c-16.061-31.95-48.232-51.798-83.959-51.798c-35.715,0-67.884,19.847-83.958,51.795    c-1.218,2.424-1.218,5.283,0.001,7.706c7.121,14.151,17.405,25.921,29.751,34.651H46.887v-66.154c0-4.734-3.837-8.572-8.572-8.572    c-4.735,0-8.572,3.838-8.572,8.572v66.669C12.882,268.398,0,283.103,0,300.768v134.46c0,4.734,3.837,8.572,8.572,8.572h10.781    c1.735,6.196,5.337,11.775,10.459,15.982c3.368,2.756,4.069,7.999,1.59,11.943l-7.35,11.71c-1.657,2.642-1.75,5.976-0.241,8.704    c1.51,2.729,4.383,4.424,7.501,4.424h41.746c4.735,0,8.572-3.838,8.572-8.572v-44.193h31.327c4.735,0,8.572-3.838,8.572-8.572    c0-4.734-3.837-8.572-8.572-8.572H17.144v-82.285c42.883-2.053,83.743-19.457,115.862-49.531    C166.462,263.512,210.143,246.26,256,246.26s89.538,17.252,122.994,48.579c32.118,30.074,72.978,47.48,115.862,49.532v82.285    H140.386c-4.735,0-8.572,3.838-8.572,8.572c0,4.734,3.837,8.572,8.572,8.572h289.985v44.193c0,4.734,3.837,8.572,8.572,8.572    h41.746c3.119,0,5.991-1.694,7.501-4.424c1.509-2.729,1.416-6.063-0.241-8.704l-7.353-11.715    c-2.476-3.938-1.776-9.183,1.607-11.95c5.111-4.199,8.711-9.776,10.445-15.971h10.78c4.735,0,8.572-3.838,8.572-8.572V300.768    C512,283.103,499.118,268.398,482.257,265.532z M64.486,443.799v35.621H46.754c6.072-11.098,3.596-24.987-6.075-32.897    c-0.978-0.805-1.822-1.727-2.549-2.724H64.486z M121.289,282.327c-28.926,27.083-65.626,42.831-104.145,44.872v-26.43    c0-10.26,8.348-18.607,18.607-18.607h85.718C121.409,282.218,121.348,282.271,121.289,282.327z M204.4,235.953    c-22.087,5.971-42.988,15.763-61.815,29.037c-27.054-0.585-51.435-15.106-64.873-38.478    c13.714-23.861,38.835-38.503,66.569-38.503c27.742,0,52.863,14.643,66.568,38.499C208.934,229.826,206.769,232.978,204.4,235.953    z M471.335,446.511c-9.686,7.921-12.163,21.814-6.089,32.909h-17.732v-35.621h26.358    C473.148,444.794,472.309,445.711,471.335,446.511z M369.416,264.989c-18.828-13.274-39.729-23.066-61.815-29.037    c-2.372-2.975-4.536-6.128-6.449-9.445c13.703-23.856,38.826-38.499,66.568-38.499c27.734,0,52.855,14.644,66.569,38.503    C420.851,249.884,396.469,264.404,369.416,264.989z M494.856,327.196c-38.519-2.039-75.219-17.786-104.145-44.872    c-0.059-0.056-0.12-0.109-0.179-0.165h85.718c10.26,0,18.607,8.347,18.607,18.607V327.196z" data-original="#000000" class="active-path" data-old_color="#000000" fill="#FFFFFF"/>
	</g>
</g><g>
	<g>
		<path d="M470.575,358.954c-38.505-6.533-74.224-24.377-103.299-51.601c-30.268-28.342-69.787-43.951-111.276-43.951    c-41.489,0-81.008,15.609-111.276,43.951c-29.074,27.224-64.795,45.067-103.299,51.6c-4.121,0.699-7.137,4.27-7.137,8.452v33.535    c0,4.734,3.837,8.572,8.572,8.572h426.282c4.735,0.001,8.572-3.837,8.572-8.571v-33.535    C477.713,363.225,474.697,359.655,470.575,358.954z M460.569,392.37H51.431v-17.849c39.099-8.007,75.274-26.809,105.01-54.653    c27.08-25.357,62.438-39.321,99.559-39.321s72.479,13.964,99.559,39.321c29.736,27.844,65.91,46.645,105.01,54.653V392.37z" data-original="#000000" class="active-path" data-old_color="#000000" fill="#FFFFFF"/>
	</g>
</g><g>
	<g>
		<path d="M332.843,33.227C308.814,21.42,282.96,15.434,256,15.434c-44.45,0-86.79,16.724-119.221,47.091    c-27.14,25.411-62.108,39.407-98.464,39.407c-4.735,0-8.572,3.838-8.572,8.572v59.216c0,4.733,3.838,8.571,8.572,8.571    c4.735,0,8.572-3.838,8.572-8.572v-50.875c37.615-2.033,73.415-17.405,101.608-43.804C177.739,47.658,215.918,32.577,256,32.577    c24.315,0,47.627,5.396,69.283,16.036c4.25,2.087,9.386,0.335,11.474-3.913C338.844,40.451,337.093,35.315,332.843,33.227z" data-original="#000000" class="active-path" data-old_color="#000000" fill="#FFFFFF"/>
	</g>
</g></g> </svg>
