<?xml version="1.0"?>
<svg xmlns="http://www.w3.org/2000/svg" xmlns:xlink="http://www.w3.org/1999/xlink" version="1.1" id="Layer_1" x="0px" y="0px" viewBox="0 0 512 512" style="enable-background:new 0 0 512 512;" xml:space="preserve" width="512px" height="512px"><g><g>
	<g>
		<path d="M503.652,81.386H285.38V69.399c0-4.611-3.736-8.348-8.348-8.348h-41.06c-4.61,0-8.348,3.736-8.348,8.348v11.989H99.981    c-4.61,0-8.348,3.736-8.348,8.348c0,4.611,3.738,8.348,8.348,8.348h127.644v10.704h-77.956H43.542    c-4.61,0-8.348,3.736-8.348,8.348v138.864v137.719c0,4.611,3.738,8.348,8.348,8.348h106.126h77.956v10.704H16.696V98.082h26.852    c4.61,0,8.348-3.737,8.348-8.348s-3.738-8.348-8.348-8.348h-35.2C3.738,81.386,0,85.123,0,89.734v331.385    c0,4.611,3.738,8.348,8.348,8.348h219.276v13.134c0,4.611,3.738,8.348,8.348,8.348h41.06c4.611,0,8.348-3.736,8.348-8.348v-13.134    h130.937c4.611,0,8.348-3.737,8.348-8.348s-3.736-8.348-8.348-8.348H285.38v-10.704h76.542h106.126    c4.611,0,8.348-3.737,8.348-8.348v-137.72V117.134c0-4.611-3.736-8.348-8.348-8.348H361.922H285.38V98.082h209.924v314.69h-27.248    c-4.611,0-8.348,3.737-8.348,8.348s3.736,8.348,8.348,8.348h35.596c4.611,0,8.348-3.737,8.348-8.348V89.734    C512,85.124,508.263,81.386,503.652,81.386z M141.321,385.371H51.89V264.347h89.431V385.371z M141.321,247.652H51.89v-122.17    h89.431V247.652z M227.624,385.371h-69.609V255.999V125.482h69.609V385.371z M268.684,89.735v27.4V393.72v27.4v13.133H244.32    v-13.134v-27.4V117.134v-27.4V77.747h24.365V89.735z M370.269,125.482H459.7v122.17h-89.431V125.482z M370.269,264.347H459.7    v121.023h-89.431V264.347z M353.574,125.482v130.518v129.371H285.38V125.482H353.574z" data-original="#000000" class="active-path" data-old_color="#000000" fill="#FFFFFF"/>
	</g>
</g></g> </svg>
