<?xml version="1.0" encoding="utf-8"?>
<!-- Generator: Adobe Illustrator 22.1.0, SVG Export Plug-In . SVG Version: 6.00 Build 0)  -->
<svg version="1.1" xmlns="http://www.w3.org/2000/svg" xmlns:xlink="http://www.w3.org/1999/xlink" x="0px" y="0px"
	 viewBox="0 0 283.6 18.5" style="enable-background:new 0 0 283.6 18.5;" xml:space="preserve">
<style type="text/css">
	.st0{display:none;}
	.st1{display:inline;fill:#ADA590;}
	.st2{display:inline;fill:#453D3A;}
	.st3{display:inline;}
	.st4{fill:#453D3A;}
	.st5{display:inline;fill:none;}
	.st6{display:none;fill:#453D3A;}
	.st7{fill:#B99470;}
	.st8{fill:#ADA590;}
</style>
<g id="background" class="st0">
	<rect x="-441" y="-369.4" class="st1" width="1200" height="800"/>
</g>
<g id="object">
	<g class="st0">
		<polygon class="st2" points="402,257.1 397.4,312.9 402,323.2 406.6,312.9 		"/>
		<g class="st3">
			<polygon class="st4" points="368.9,273.2 385.1,311.8 391.7,316.6 391.2,307.9 			"/>
			<polygon class="st4" points="435.1,273.2 418.9,311.8 412.3,316.6 412.9,307.9 			"/>
		</g>
		<g class="st3">
			<polygon class="st4" points="351,299.9 374.3,318 380.2,318.5 376.9,313.1 			"/>
			<polygon class="st4" points="453.1,299.9 429.7,318 423.8,318.5 427.1,313.1 			"/>
		</g>
	</g>
	<g class="st0">
		<path class="st5" d="M-94,244.4c2-4.7,3.9-9.4,5.9-14.1c-1.1,0-2.2,0-3.3,0c-4.9,0-9.9,0-14.8,0C-102.2,235-98.1,239.7-94,244.4z"
			/>
		<path class="st5" d="M-80.9,250.1c-3.7,0-7.5,0-11.2,0c-4.2,10-8.4,20.1-12.6,30.1c9.7-10,19.3-20.1,29-30.1
			C-77.4,250.1-79.2,250.1-80.9,250.1z"/>
		<path class="st5" d="M-123.4,246.1c8.6,0,17.1,0,25.7,0c-4.3-4.9-8.6-9.9-12.8-14.8C-114.9,236.2-119.2,241.2-123.4,246.1z"/>
		<path class="st5" d="M-74.9,246.1c-3.3-4.6-6.6-9.2-9.8-13.8c-0.6,1.3-1.1,2.7-1.7,4c-1.4,3.3-2.7,6.5-4.1,9.8
			C-85.3,246.1-80.1,246.1-74.9,246.1z"/>
		<path class="st5" d="M-109.4,281.1c4.3-10.3,8.6-20.7,13-31c-9.5,0-18.9,0-28.4,0c4.7,11.3,9.5,22.6,14.2,34
			C-110.2,283-109.8,282-109.4,281.1z"/>
		<path class="st5" d="M-131,235.3c1.3,3,2.5,6.1,3.8,9.1c4.1-4.7,8.2-9.4,12.2-14.1c-6.1,0-12.1,0-18.2,0
			C-132.4,231.9-131.7,233.6-131,235.3z"/>
		<path class="st5" d="M-129.1,250.1c-5.5,0-11,0-16.4,0c0.5,0.6,1.1,1.1,1.6,1.7c9.1,9.5,18.3,18.9,27.4,28.4
			C-120.7,270.1-124.9,260.1-129.1,250.1z"/>
		<path class="st5" d="M-140.3,246.1c3.2,0,6.4,0,9.6,0c-1.9-4.6-3.8-9.2-5.8-13.8c-3.3,4.6-6.6,9.2-9.8,13.8
			C-144.3,246.1-142.3,246.1-140.3,246.1z"/>
		<path class="st2" d="M-69.3,249C-69.3,249-69.3,249-69.3,249c0.4-0.7,0.4-1.3,0-1.9c-4.7-6.6-9.4-13.2-14.1-19.8c0,0,0,0,0,0
			c0-0.1-0.1-0.1-0.2-0.2c-0.3-0.4-0.8-0.7-1.5-0.7c-10.7,0-21.4,0-32,0c-4.2,0-8.4,0-12.6,0c-1.4,0-2.8,0-4.2,0c-0.6,0-1.2,0-1.7,0
			c-0.1,0-0.2,0-0.4,0c-0.6,0-1.3,0.4-1.7,1c0,0,0,0,0,0c-1.2,1.4-2.2,3.1-3.2,4.5c-3.6,5.1-7.2,10.2-10.9,15.3
			c-0.4,0.6-0.4,1.3-0.1,1.8c0,0,0,0.1,0,0.1c0,0,0,0.1,0.1,0.1c0.1,0.1,0.2,0.3,0.3,0.4c11.6,12,23.1,24,34.7,36
			c1.5,1.5,2.9,3,4.4,4.6c0.1,0.3,0.4,0.5,0.6,0.6c0.4,0.3,0.8,0.5,1.2,0.5c0,0,0,0,0.1,0c0,0,0,0,0.1,0c0.4,0,0.8-0.1,1.2-0.5
			c0.3-0.2,0.5-0.4,0.7-0.6c11.4-11.8,22.8-23.6,34.2-35.5c1.6-1.7,3.3-3.4,4.9-5.1C-69.5,249.4-69.4,249.2-69.3,249
			C-69.4,249.1-69.3,249.1-69.3,249z M-84.7,232.3c3.3,4.6,6.6,9.2,9.8,13.8c-5.2,0-10.4,0-15.6,0c1.4-3.3,2.7-6.5,4.1-9.8
			C-85.8,235-85.3,233.7-84.7,232.3z M-96.4,250.1c-4.3,10.3-8.6,20.7-13,31c-0.4,1-0.8,2-1.2,3c-4.7-11.3-9.5-22.6-14.2-34
			C-115.3,250.1-105.9,250.1-96.4,250.1z M-123.4,246.1c4.3-4.9,8.6-9.9,12.8-14.8c4.3,4.9,8.6,9.9,12.8,14.8
			C-106.3,246.1-114.9,246.1-123.4,246.1z M-92.1,250.1c3.7,0,7.5,0,11.2,0c1.7,0,3.5,0,5.2,0c-9.7,10-19.3,20.1-29,30.1
			C-100.5,270.1-96.3,260.1-92.1,250.1z M-88.1,230.3c-2,4.7-3.9,9.4-5.9,14.1c-4.1-4.7-8.2-9.4-12.2-14.1c4.9,0,9.9,0,14.8,0
			C-90.3,230.3-89.2,230.3-88.1,230.3z M-114.9,230.3c-4.1,4.7-8.2,9.4-12.2,14.1c-1.3-3-2.5-6.1-3.8-9.1c-0.7-1.7-1.4-3.4-2.1-5
			C-127,230.3-121,230.3-114.9,230.3z M-136.5,232.3c1.9,4.6,3.8,9.2,5.8,13.8c-3.2,0-6.4,0-9.6,0c-2,0-4,0-6,0
			C-143,241.5-139.8,236.9-136.5,232.3z M-143.9,251.8c-0.5-0.6-1.1-1.1-1.6-1.7c5.5,0,11,0,16.4,0c4.2,10,8.4,20.1,12.6,30.1
			C-125.6,270.7-134.7,261.2-143.9,251.8z"/>
	</g>
	<path class="st6" d="M202.7-160.9l-17.5-17.5l17.5-17.5c2.6-0.8,7-2.6,9.1-5.6c0.1-0.2,0.3-0.4,0.3-0.6c-1.2,0-2.4-0.4-3.3-1.3
		c-0.9-0.9-1.4-2.1-1.3-3.3c-0.2,0.1-0.4,0.2-0.6,0.3c-3,2-4.8,6.4-5.6,9.1l-17.5,17.5l-17.5-17.5c-0.8-2.6-2.6-7-5.6-9.1
		c-0.2-0.1-0.4-0.3-0.6-0.3c0,1.2-0.4,2.4-1.3,3.3c-0.9,0.9-2.1,1.4-3.3,1.3c0.1,0.2,0.2,0.4,0.3,0.6c2,3,6.4,4.8,9.1,5.6l17.5,17.5
		l-17.5,17.5c-2.6,0.8-7,2.6-9.1,5.6c-0.1,0.2-0.3,0.4-0.3,0.6c1.2,0,2.4,0.4,3.3,1.3c0.9,0.9,1.4,2.1,1.3,3.3
		c0.2-0.1,0.4-0.2,0.6-0.3c3-2,4.8-6.4,5.6-9.1l17.5-17.5l17.5,17.5c0.8,2.6,2.6,7,5.6,9.1c0.2,0.1,0.4,0.3,0.6,0.3
		c0-1.2,0.4-2.4,1.3-3.3c0.9-0.9,2.1-1.4,3.3-1.3c-0.1-0.2-0.2-0.4-0.3-0.6C209.7-158.3,205.3-160.1,202.7-160.9z"/>
	<g class="st0">
		<g class="st3">
			<g>
				<path class="st4" d="M503.2-250.9c0,0.1,0,0.1-0.1,0.1h-0.5c-1.2,0.2-2.1,1.2-2.7,3c-0.2,0.5-0.3,0.9-0.5,1.3l-5.7,15.4
					c-0.1,0.2-0.2,0.4-0.3,0.4c-0.1,0-0.3,0.1-0.5,0.1h-0.7c-0.2,0-0.4-0.1-0.4-0.3l-7.6-18.5c-0.3-0.8-1.1-1.2-2.3-1.4
					c-0.1,0-0.1,0-0.2,0c0,0-0.1,0-0.1-0.1v-0.3c0-0.1,0-0.1,0.1-0.1h8.5c0.1,0,0.1,0,0.1,0.1v0.3c0,0.1,0,0.1-0.1,0.1H490
					c-0.2,0-0.5,0.1-0.8,0.1c-1.2,0.2-1.9,0.6-1.9,1.5c0,0.3,0.1,0.5,0.2,0.8L493-235c0.1,0.2,0.2,0.2,0.3,0l5-13.6
					c0.1-0.2,0.1-0.4,0.1-0.7s-0.1-0.5-0.3-0.8c-0.2-0.2-0.4-0.4-0.7-0.4c-0.2,0-0.4-0.1-0.5-0.1c-0.1,0-0.3-0.1-0.6-0.1
					c-0.3,0-0.4-0.1-0.5-0.1c-0.1,0-0.1,0-0.1-0.1v-0.3c0-0.1,0-0.1,0.1-0.1h7.3c0.1,0,0.1,0,0.1,0.1V-250.9z"/>
			</g>
			<g>
				<path class="st4" d="M510.5-249.1c0-1.2-0.7-1.7-2-1.7c-0.2,0-0.3,0-0.3-0.1v-0.3c0-0.1,0-0.1,0.1-0.1h7.3c0.1,0,0.1,0,0.1,0.1
					v0.3c0,0.1-0.2,0.1-0.6,0.1c-0.4,0-0.8,0.1-1.2,0.4c-0.4,0.3-0.5,0.8-0.5,1.7v15.5c0,1.2,0.7,1.7,2,1.7c0.2,0,0.3,0,0.3,0.1v0.3
					c0,0.1,0,0.1-0.1,0.1h-7.3c-0.1,0-0.1,0-0.1-0.1v-0.3c0-0.1,0.2-0.1,0.6-0.1c0.4,0,0.8-0.1,1.2-0.4c0.4-0.3,0.5-0.8,0.5-1.7
					V-249.1z"/>
			</g>
			<g>
				<path class="st4" d="M521.5-231c-0.1,0-0.1,0-0.1-0.1v-0.3c0-0.1,0-0.1,0.1-0.1h0.3c0.5,0,0.9,0,1.1-0.1
					c0.7-0.3,1.1-1.3,1.1-2.9v-15.1c0-0.6-0.6-1-1.9-1.2c-0.3,0-0.5,0-0.6,0c-0.1,0-0.2,0-0.2-0.1v-0.3c0-0.1,0-0.1,0.1-0.1h5.3
					l13.7,15.2c0,0,0.1,0.1,0.1,0.1c0,0,0.1,0,0.1,0c0,0,0.1,0,0.1-0.1v-10c0-1.9-0.2-3.2-0.5-3.8c-0.3-0.6-1-0.9-1.9-0.9h-0.7
					c-0.1,0-0.1,0-0.1-0.1v-0.3c0-0.1,0-0.1,0.1-0.1h7.5c0.1,0,0.1,0,0.1,0.1v0.3c0,0.1-0.1,0.1-0.4,0.1c-0.3,0-0.8,0.2-1.4,0.5
					c-0.7,0.3-1,0.7-1,1.2v17.7c0,0.2,0,0.4-0.1,0.5c-0.1,0.1-0.2,0.1-0.4,0.1c-0.2,0-0.4,0-0.5-0.1c-0.1-0.1-0.2-0.2-0.4-0.4
					l-14.9-16.6c-0.1-0.1-0.2-0.1-0.3-0.1c0,0-0.1,0-0.1,0.1v14.5c0,0.9,0.7,1.5,2.1,1.7c0.4,0.1,0.7,0.1,0.9,0.1s0.3,0,0.3,0.1v0.3
					c0,0.1,0,0.1-0.1,0.1H521.5z"/>
			</g>
			<g>
				<path class="st4" d="M555.1-231.4c0-0.1,0-0.1,0.1-0.1h0.4c0.9,0,1.7-0.2,2.3-0.6c0.6-0.4,0.9-0.9,0.9-1.4v-16
					c0-0.2,0-0.3-0.1-0.3c-0.1,0-0.2,0-0.3-0.1h-5.6c-0.9,0.2-1.5,0.9-1.8,2.1c-0.2,0.6-0.2,1-0.3,1.2c0,0.2-0.1,0.3-0.2,0.3h-0.3
					c-0.1,0-0.1,0-0.1-0.1v-0.5l0.5-4.5c0.1-0.3,0.2-0.4,0.3-0.4c0.1,0,0.3,0.1,0.4,0.3c0.2,0.2,0.4,0.3,0.9,0.3H568
					c0.4,0,0.7,0,0.8-0.1c0.1-0.1,0.2-0.2,0.2-0.3c0.1-0.1,0.2-0.1,0.3-0.1c0.1,0,0.2,0,0.2,0.1c0,0.1,0.1,0.2,0.1,0.3l0.5,4.5v0.5
					c0,0,0,0.1-0.1,0.1h-0.3c-0.1,0-0.1-0.1-0.2-0.2c-0.2-1-0.4-1.7-0.7-2.3c-0.3-0.6-0.7-0.9-1.4-1.1h-5.6c-0.1,0-0.2,0-0.3,0.1
					c-0.1,0-0.1,0.1-0.1,0.3v16c0,0.5,0.3,1,0.9,1.4c0.6,0.4,1.3,0.6,2.3,0.6h0.4c0.1,0,0.1,0,0.1,0.1v0.3c0,0.1,0,0.1-0.1,0.1h-10
					c-0.1,0-0.1,0-0.1-0.1V-231.4z"/>
			</g>
			<g>
				<path class="st4" d="M582.4-231.1c0,0.1,0,0.1-0.1,0.1h-7.4c-0.1,0-0.1,0-0.1-0.1v-0.3c0-0.1,0.1-0.1,0.2-0.1
					c1.3-0.1,2.2-0.8,2.7-2.1l5.9-17.1c0,0,0,0,0-0.1l-0.2-0.5c0,0,0-0.1,0.1-0.1h2.9c0,0,0,0,0.1,0c0,0,0.1,0,0.1,0.1l6.1,17.2
					c0.1,0.3,0.2,0.5,0.3,0.7c0.1,0.2,0.2,0.4,0.3,0.6c0.2,0.4,0.6,0.7,1.1,0.9c0.4,0.2,0.8,0.3,1.2,0.3c0.1,0,0.1,0,0.1,0.1v0.3
					c0,0.1,0,0.1-0.1,0.1h-8.9c-0.1,0-0.1,0-0.1-0.1v-0.3c0-0.1,0.2-0.1,0.5-0.1c0.4,0,0.7,0,0.9-0.1c1.3-0.1,2-0.6,2-1.4
					c0-0.1,0-0.1,0-0.2l-2.2-6.2c0,0,0-0.1-0.1-0.1c-0.1-0.3-0.3-0.5-0.6-0.5H582c-0.3,0-0.5,0.2-0.7,0.5c0,0.1,0,0.1,0,0.1
					l-2.2,6.4v0.1c0,0.3,0.1,0.5,0.4,0.7c0.6,0.5,1.4,0.7,2.4,0.7h0.4c0.1,0,0.1,0,0.1,0.1V-231.1z M586.7-241.6
					c0.2,0,0.3-0.1,0.3-0.2c0-0.1,0-0.2-0.1-0.3l-2.2-5.9c-0.1-0.3-0.2-0.4-0.2-0.4c0,0-0.1,0.1-0.2,0.4l-2,5.9
					c0,0.1-0.1,0.2-0.1,0.3c0,0.1,0.1,0.2,0.2,0.2H586.7z"/>
			</g>
			<g>
				<path class="st4" d="M621.9-239.9c0.1,0,0.2,0.1,0.2,0.2c0,0.2-0.1,0.3-0.2,0.3c-0.3,0.1-0.5,0.2-0.8,0.3
					c-0.3,0.1-0.5,0.2-0.8,0.3c-0.5,0.3-0.8,0.8-0.8,1.4v4.7c0,0.2-0.5,0.5-1.5,0.9c-1,0.4-1.8,0.6-2.5,0.8c-3,0.7-5.7,0.7-8-0.2
					c-2.7-1-4.6-2.9-5.7-5.5c-0.6-1.3-0.8-2.7-0.8-4c0-1.3,0.1-2.4,0.4-3.3c0.8-2.7,2.5-4.9,5-6.3c1.7-1,3.4-1.4,5.2-1.4
					c1.8,0,3.8,0.4,5.8,1.1c0.4,0.1,0.6,0.2,0.6,0.2h0.2l0.6-0.1h0.4c0.1,0,0.2,0.1,0.2,0.2v4.8c0,0.2-0.1,0.3-0.3,0.3h-0.1
					c-0.2,0-0.3-0.3-0.4-0.7c0-0.1,0-0.2,0-0.2c-1-3-3-4.5-6.1-4.5c-2.5,0-4.5,0.9-6,2.8c-1.5,1.9-2.2,4.1-2.2,6.7
					c0,2.6,0.7,4.9,2.2,6.9c1.5,2,3.5,3,6.2,3c1.3,0,2.4-0.2,3.3-0.6c0.3-0.2,0.6-0.4,0.8-0.6v-4c0-0.9-0.3-1.6-0.8-2
					c-0.5-0.4-1.5-0.6-2.8-0.6c-0.1,0-0.2-0.1-0.2-0.3c0-0.2,0.1-0.3,0.2-0.3H621.9z"/>
			</g>
			<g>
				<path class="st4" d="M626.5-231.1v-0.4c0-0.1,0-0.1,0.1-0.1h0.3c0.4,0,0.8,0,1.2-0.1c0.4,0,0.8-0.1,1.2-0.2
					c0.8-0.2,1.2-0.8,1.2-1.7v-15.3c0-1-0.6-1.6-1.7-1.8c-0.3-0.1-0.6-0.1-1-0.2h-0.3c-0.1,0-0.1,0-0.1-0.1v-0.3
					c0-0.1,0-0.1,0.1-0.1h13.8c0.2,0,0.3,0,0.4,0.1c0.1,0.1,0.1,0.2,0.1,0.4l0.3,4.2c0,0.1-0.1,0.1-0.2,0.1s-0.3,0-0.3-0.1
					c-0.1-0.1-0.1-0.4-0.2-1.1c-0.1-0.6-0.3-1.1-0.5-1.5c-0.2-0.4-0.7-0.7-1.3-0.8h-6c-0.1,0-0.2,0.1-0.2,0.2v7.5
					c0,0.1,0,0.1,0.1,0.1h5c1.3,0,1.9-0.8,1.9-2.3c0-0.1,0-0.1,0.1-0.1h0.3c0.1,0,0.1,0,0.1,0.1v6.2c0,0.1,0,0.1-0.1,0.1h-0.3
					c-0.1,0-0.1,0-0.1-0.1c0-1.4-0.4-2.3-1.2-2.5c-0.2-0.1-0.5-0.1-0.7-0.1h-5c-0.1,0-0.1,0-0.1,0.1v7.1c0,0.7,0.3,1.1,1,1.2
					c0.2,0,0.4,0,0.6,0h4.8c1,0,1.8-0.4,2.3-1.3c0.4-0.6,0.6-1.3,0.7-2.2c0-0.3,0.2-0.4,0.4-0.4c0.1,0,0.2,0.1,0.2,0.2l-0.5,4.9
					c-0.1,0.1-0.1,0.2-0.2,0.2h-16.1C626.5-231,626.5-231,626.5-231.1z"/>
			</g>
		</g>
		<g class="st3">
			<g>
				<path class="st4" d="M562.5-152.5c-22,0-43.3-4.9-61.7-14.2h-13.7c-14.5,0-26.3-11.8-26.3-26.3v-0.7h-12.3V-212h-0.8
					c-16.2,0-29.3-13.1-29.3-29.3c0-7.8,3.1-15.2,8.6-20.7c5.5-5.5,12.9-8.6,20.7-8.6h0.8v-18.3h12.3v-0.6
					c0-14.5,11.8-26.3,26.3-26.3h13.7c18.4-9.3,39.7-14.2,61.7-14.2c22,0,43.3,4.9,61.7,14.2h13.7c14.5,0,26.3,11.8,26.3,26.3v0.6
					h12.3v18.3h0.8c16.1,0,29.3,13.1,29.3,29.3c0,7.8-3.1,15.2-8.6,20.7c-5.5,5.5-12.9,8.6-20.7,8.6h-0.8v18.3h-12.3v0.7
					c0,14.5-11.8,26.3-26.3,26.3h-13.7C605.8-157.4,584.5-152.5,562.5-152.5z M453.4-198.7h12.3v5.6c0,11.8,9.6,21.4,21.4,21.4h14.9
					l0.5,0.3c17.8,9.1,38.6,13.9,60,13.9c21.4,0,42.2-4.8,60-13.9l0.5-0.3h14.9c11.8,0,21.4-9.6,21.4-21.4v-5.6h12.3v-18.3h5.8
					c6.5,0,12.6-2.5,17.2-7.1c4.6-4.6,7.1-10.7,7.1-17.2c0-13.4-10.9-24.4-24.3-24.4h-5.8v-18.3h-12.3v-5.6
					c0-11.8-9.6-21.4-21.4-21.4H623l-0.5-0.3c-17.8-9.1-38.6-13.9-60-13.9c-21.4,0-42.2,4.8-60,13.9l-0.5,0.3h-14.9
					c-11.8,0-21.4,9.6-21.4,21.4v5.6h-12.3v18.3h-5.8c-6.5,0-12.6,2.5-17.2,7.1c-4.6,4.6-7.1,10.7-7.1,17.2
					c0,13.4,10.9,24.3,24.4,24.3h5.8V-198.7z"/>
			</g>
			<g>
				<path class="st4" d="M562.5-165.8c-20,0-39.3-4.5-55.8-12.9l-2-1h-16.2c-7.9,0-14.3-6.4-14.3-14.3v-12.1h-12.1V-224h-12.3
					c-9.5,0-17.2-7.7-17.2-17.2c0-4.6,1.8-8.9,5-12.2c3.3-3.3,7.6-5,12.2-5h12.3v-17.9h12.1v-12.1c0-7.9,6.4-14.3,14.3-14.3h16.1
					l2-1c16.5-8.4,35.8-12.9,55.8-12.9c20,0,39.3,4.5,55.8,12.9l1.9,1h16.2c7.9,0,14.3,6.4,14.3,14.3v12.1h12.1v17.9H675
					c9.5,0,17.2,7.7,17.2,17.2c0,4.6-1.8,8.9-5.1,12.2c-3.2,3.3-7.5,5-12.1,5h-12.3v17.9h-12.1v12.1c0,7.9-6.4,14.3-14.3,14.3h-16.2
					l-1.9,1C601.7-170.3,582.4-165.8,562.5-165.8z M464.4-208.3h12.1v14.3c0,6.7,5.4,12.2,12.1,12.2h16.7l2.4,1.2
					c16.2,8.3,35.2,12.7,54.8,12.7c19.6,0,38.6-4.4,54.8-12.7l2.4-1.2h16.7c6.7,0,12.2-5.5,12.2-12.2v-14.3h12.1v-17.9H675
					c4,0,7.8-1.6,10.6-4.4c2.9-2.8,4.4-6.6,4.4-10.6c0-8.3-6.7-15.1-15-15.1h-14.5v-17.9h-12.1v-14.3c0-6.7-5.5-12.2-12.2-12.2
					h-16.7l-2.4-1.2c-16.2-8.3-35.2-12.7-54.8-12.7c-19.6,0-38.6,4.4-54.8,12.7l-2.4,1.2h-16.7c-6.7,0-12.1,5.5-12.1,12.2v14.3
					h-12.1v17.9h-14.5c-4,0-7.8,1.6-10.7,4.4c-2.8,2.8-4.4,6.6-4.4,10.6c0,8.3,6.8,15,15.1,15h14.5V-208.3z"/>
			</g>
		</g>
	</g>
	<g class="st0">
		<g class="st3">
			<g>
				<g>
					<path class="st4" d="M98.8,352.2c-1.8-5.5-5.7-9.8-11.9-9.8c0.9,0.5,1.8,1,2.7,1.5c-4-5.5-10.1-8.2-16.9-8.3c-2.7,0-5.3,0-8,0
						c-11.5,0-23,0-34.4,0c-28.9,0-57.8,0-86.7,0c-11.2,0-22.5,0-33.7,0c-27.8,0-55.5,0-83.3,0c-12.9,0-25.8,0-38.7,0
						c-5.9,0-12.1-0.6-18,0.2c-5.4,0.7-10.2,3.7-13.3,8.1c0.9-0.5,1.8-1,2.7-1.5c-6.2,0-10.1,4.3-11.9,9.8c-1.2,3.8,4.7,5.4,5.9,1.6
						c0.7-2.2,1.5-4,3.8-4.9c1-0.4,2-0.2,3-0.5c1.4-0.5,2.1-1.9,3.2-2.9c2.6-2.5,6-3.7,9.6-3.8c2.2,0,4.4,0,6.6,0
						c11.1,0,22.3,0,33.4,0c29.6,0,59.3,0,88.9,0c11.6,0,23.3,0,34.9,0c28.6,0,57.2,0,85.8,0c12.7,0,25.4,0,38.2,0
						c7.4,0,17.4-1.6,22.9,4.4c0.7,0.8,1.2,1.6,2.1,2.1c0.9,0.4,2,0.2,3,0.5c2.5,0.8,3.5,2.8,4.2,5C94.1,357.6,100,356,98.8,352.2
						L98.8,352.2z"/>
				</g>
				<g>
					<path class="st4" d="M92.9,372.9c-0.7,2.2-1.5,4-3.8,4.9c-1,0.4-2,0.2-3,0.5c-1.4,0.5-2.1,1.9-3.2,2.9c-2.6,2.5-6,3.7-9.6,3.8
						c-2.2,0-4.4,0-6.6,0c-11.1,0-22.3,0-33.4,0c-29.6,0-59.3,0-88.9,0c-11.6,0-23.3,0-34.9,0c-28.6,0-57.2,0-85.8,0
						c-12.7,0-25.4,0-38.2,0c-7.4,0-17.4,1.6-22.9-4.4c-0.7-0.8-1.2-1.6-2.1-2.1c-0.9-0.4-2-0.2-3-0.5c-2.5-0.8-3.5-2.8-4.2-5
						c-1.2-3.8-7.2-2.1-5.9,1.6c1.8,5.5,5.7,9.8,11.9,9.8c-0.9-0.5-1.8-1-2.7-1.5c4,5.5,10.1,8.2,16.9,8.3c2.7,0,5.3,0,8,0
						c11.5,0,23,0,34.4,0c28.9,0,57.8,0,86.7,0c11.2,0,22.5,0,33.7,0c27.8,0,55.5,0,83.3,0c12.9,0,25.8,0,38.7,0
						c5.9,0,12.1,0.6,18-0.2c5.4-0.7,10.2-3.7,13.3-8.1c-0.9,0.5-1.8,1-2.7,1.5c6.2,0,10.1-4.3,11.9-9.8
						C100,370.7,94.1,369.1,92.9,372.9L92.9,372.9z"/>
				</g>
			</g>
			<g>
				<ellipse class="st4" cx="95.8" cy="363.3" rx="4.9" ry="4.8"/>
				<ellipse class="st4" cx="-252.4" cy="363.3" rx="4.9" ry="4.8"/>
			</g>
		</g>
		<g class="st3">
			<path class="st4" d="M-203.1,373.3c-0.9-0.2-1.7-0.6-2.4-1.1l0.1,1.2h-1.5l-0.2-6h1.1c0.1,1.6,0.7,2.9,1.7,3.7
				c1,0.9,2.4,1.3,3.9,1.3c1.2,0,2.2-0.3,3-0.9c0.8-0.6,1.2-1.5,1.2-2.6c0-0.8-0.2-1.5-0.7-2.1c-0.5-0.6-1-1.1-1.7-1.4
				c-0.7-0.4-1.6-0.8-2.7-1.3c-1.3-0.6-2.3-1.1-3.1-1.6c-0.8-0.5-1.4-1-1.9-1.8c-0.5-0.7-0.8-1.7-0.8-2.7c0-0.8,0.2-1.5,0.5-2.3
				c0.4-0.8,1-1.4,1.8-1.9c0.9-0.5,2-0.8,3.5-0.8c0.9,0,1.7,0.1,2.6,0.3c0.9,0.2,1.7,0.6,2.4,1.1l-0.1-1.2h1.5v6.2h-1
				c-0.1-1.5-0.6-2.7-1.5-3.8c-0.9-1-2.1-1.5-3.7-1.5c-1.2,0-2.1,0.3-2.7,0.9c-0.7,0.6-1,1.4-1,2.3c0,0.8,0.2,1.4,0.7,1.9
				c0.4,0.5,1,1,1.6,1.4c0.6,0.4,1.5,0.8,2.7,1.3c1.3,0.6,2.4,1.1,3.2,1.6c0.8,0.5,1.5,1.1,2,1.8s0.8,1.7,0.8,2.8
				c0,1.1-0.3,2-0.8,2.8c-0.5,0.8-1.3,1.4-2.3,1.9c-1,0.5-2.2,0.7-3.6,0.7C-201.2,373.7-202.2,373.6-203.1,373.3z"/>
			<path class="st4" d="M-187.3,372.3c0.5,0,0.9-0.1,1.2-0.3c0.3-0.2,0.5-0.5,0.7-0.8c0.2-0.3,0.4-0.9,0.6-1.6l0.3-0.8l5.9-15.8h0.7
				l6.4,16c0.2,0.5,0.4,1.1,0.5,1.6c0.2,0.6,0.2,1.1,0.2,1.4l2-0.1v1.2h-6.6v-0.9c1.1,0,1.7-0.5,1.7-1.4c0-0.4-0.1-0.8-0.3-1.3
				l-1-2.6l-7.5,0.2c-0.3,0.8-0.6,1.8-1,3c-0.2,0.6-0.4,1.3-0.7,1.9l2.2-0.1v1.2h-5.4V372.3z M-175.4,365.9l-2-5.4l-1.3-3.5h-0.1
				l-1.2,3.2l-1.6,4.3l-0.5,1.4H-175.4z"/>
			<path class="st4" d="M-158.6,372.3c0.8,0,1.4-0.3,1.6-0.7c0.2-0.4,0.4-1.1,0.4-1.9v-0.9l0-14.3l-3,0c-1.2,0-2,0.4-2.6,1.2
				c-0.5,0.8-0.8,2-0.8,3.7h-1.1l0.2-5.9h16.8l0.2,5.9h-1.1c0-1.2-0.1-2.1-0.4-2.8c-0.2-0.7-0.6-1.2-1.1-1.6
				c-0.5-0.3-1.3-0.5-2.3-0.5h-2.5l0,15.3c0,1,0,1.7-0.1,2.2l2.4-0.1v1.2h-6.8V372.3z"/>
			<path class="st4" d="M-139.4,372.3c0.7,0,1.2-0.2,1.4-0.4c0.3-0.3,0.5-0.6,0.5-1c0-0.4,0.1-1.1,0.1-2v-12.2c0-0.8,0-1.5,0.1-2
				l-2.1,0.1v-1.2h6.5v0.9c-0.7,0-1.2,0.2-1.4,0.5c-0.3,0.3-0.5,0.6-0.5,1c0,0.4-0.1,1.1-0.1,2v12c0,1,0,1.7-0.1,2.2l2.1-0.1v1.2
				h-6.5V372.3z"/>
			<path class="st4" d="M-120.5,373.3c-0.9-0.2-1.7-0.6-2.4-1.1l0.1,1.2h-1.5l-0.2-6h1.1c0.1,1.6,0.7,2.9,1.7,3.7
				c1,0.9,2.4,1.3,3.9,1.3c1.2,0,2.2-0.3,3-0.9c0.8-0.6,1.2-1.5,1.2-2.6c0-0.8-0.2-1.5-0.7-2.1c-0.5-0.6-1-1.1-1.7-1.4
				c-0.7-0.4-1.6-0.8-2.7-1.3c-1.3-0.6-2.3-1.1-3.1-1.6c-0.8-0.5-1.4-1-1.9-1.8c-0.5-0.7-0.8-1.7-0.8-2.7c0-0.8,0.2-1.5,0.5-2.3
				c0.4-0.8,1-1.4,1.8-1.9c0.9-0.5,2-0.8,3.5-0.8c0.9,0,1.7,0.1,2.6,0.3c0.9,0.2,1.7,0.6,2.4,1.1l-0.1-1.2h1.5v6.2h-1
				c-0.1-1.5-0.6-2.7-1.5-3.8c-0.9-1-2.1-1.5-3.7-1.5c-1.2,0-2.1,0.3-2.7,0.9c-0.7,0.6-1,1.4-1,2.3c0,0.8,0.2,1.4,0.7,1.9
				c0.4,0.5,1,1,1.6,1.4c0.6,0.4,1.5,0.8,2.7,1.3c1.3,0.6,2.4,1.1,3.2,1.6c0.8,0.5,1.5,1.1,2,1.8c0.6,0.8,0.8,1.7,0.8,2.8
				c0,1.1-0.3,2-0.8,2.8c-0.5,0.8-1.3,1.4-2.3,1.9c-1,0.5-2.2,0.7-3.6,0.7C-118.7,373.7-119.6,373.6-120.5,373.3z"/>
			<path class="st4" d="M-103,372.3c0.7,0,1.2-0.2,1.4-0.4c0.3-0.3,0.5-0.6,0.5-1s0.1-1.1,0.1-2v-12.2c0-0.8,0-1.5,0.1-2l-2.1,0.1
				v-1.2h13.4l0.1,4.9h-1c0-1.5-0.4-2.6-1.1-3.2c-0.7-0.6-1.7-0.8-2.9-0.8l-2.1,0.1c-0.7,0-1.1,0.2-1.4,0.4c-0.3,0.3-0.4,0.6-0.5,1
				c0,0.4-0.1,1.1-0.1,2v4.8l5,0l-0.2-2.4h1.3v5.9h-0.9c0-0.7-0.1-1.2-0.2-1.6c-0.2-0.4-0.4-0.6-0.8-0.7c-0.3-0.1-0.8-0.2-1.4-0.2
				c-0.4,0-0.7,0-1,0l-1.7,0.1v5.9c0,1,0,1.7-0.1,2.2l2.9-0.1v1.2h-7.4V372.3z"/>
			<path class="st4" d="M-84.9,372.3c0.5,0,0.9-0.1,1.2-0.3c0.3-0.2,0.5-0.5,0.7-0.8c0.2-0.3,0.4-0.9,0.6-1.6l0.3-0.8l5.9-15.8h0.7
				l6.4,16c0.2,0.5,0.4,1.1,0.5,1.6c0.2,0.6,0.2,1.1,0.2,1.4l2-0.1v1.2h-6.6v-0.9c1.1,0,1.7-0.5,1.7-1.4c0-0.4-0.1-0.8-0.3-1.3
				l-1-2.6l-7.5,0.2c-0.3,0.8-0.6,1.8-1,3c-0.2,0.6-0.4,1.3-0.7,1.9l2.2-0.1v1.2h-5.4V372.3z M-72.9,365.9l-2-5.4l-1.3-3.5h-0.1
				l-1.2,3.2l-1.6,4.3l-0.5,1.4H-72.9z"/>
			<path class="st4" d="M-55.6,372.4c-1.5-0.9-2.7-2.1-3.5-3.6c-0.8-1.5-1.3-3.2-1.3-5.1c0-1.8,0.4-3.6,1.1-5.2
				c0.8-1.6,1.9-2.9,3.4-3.9c1.5-1,3.3-1.5,5.5-1.5c2.1,0,4.1,0.6,5.8,1.7l-0.1-1.5h1.6v6.5h-1c-0.2-1.7-0.8-3.1-1.9-4.1
				c-1.1-1-2.4-1.5-4.1-1.5c-1.4,0-2.6,0.4-3.7,1.1c-1.1,0.7-2,1.8-2.7,3.2c-0.7,1.4-1,3-1,4.8c0,1.7,0.3,3.3,1,4.6
				c0.7,1.4,1.6,2.4,2.8,3.2c1.2,0.8,2.5,1.1,3.9,1.1c1.3,0,2.5-0.3,3.7-0.8c1.2-0.6,2.2-1.4,2.9-2.4l0.7,0.6
				c-1.1,1.5-2.4,2.6-3.8,3.2c-1.4,0.6-2.9,0.9-4.3,0.9C-52.4,373.7-54.1,373.2-55.6,372.4z"/>
			<path class="st4" d="M-30.3,372.3c0.8,0,1.4-0.3,1.6-0.7c0.2-0.4,0.4-1.1,0.4-1.9v-0.9l0-14.3l-3,0c-1.2,0-2,0.4-2.6,1.2
				c-0.5,0.8-0.8,2-0.8,3.7h-1.1l0.2-5.9h16.8l0.2,5.9h-1.1c0-1.2-0.1-2.1-0.4-2.8c-0.2-0.7-0.6-1.2-1.1-1.6
				c-0.5-0.3-1.3-0.5-2.3-0.5h-2.5l0,15.3c0,1,0,1.7-0.1,2.2l2.4-0.1v1.2h-6.8V372.3z"/>
			<path class="st4" d="M-11.1,372.3c0.7,0,1.2-0.2,1.4-0.4c0.3-0.3,0.5-0.6,0.5-1c0-0.4,0.1-1.1,0.1-2v-12.2c0-0.8,0-1.5,0.1-2
				l-2.1,0.1v-1.2h6.5v0.9c-0.7,0-1.2,0.2-1.4,0.5c-0.3,0.3-0.5,0.6-0.5,1c0,0.4-0.1,1.1-0.1,2v12c0,1,0,1.7-0.1,2.2l2.1-0.1v1.2
				h-6.5V372.3z"/>
			<path class="st4" d="M7.8,372.2c-1.5-1-2.7-2.3-3.4-3.8c-0.7-1.6-1.1-3.2-1.1-5c0-1.7,0.4-3.3,1.1-4.9c0.8-1.6,1.9-2.9,3.4-3.9
				c1.5-1,3.3-1.5,5.5-1.5c2.2,0,4.1,0.5,5.6,1.5c1.5,1,2.7,2.3,3.5,3.9c0.8,1.6,1.2,3.2,1.2,4.9c0,1.7-0.4,3.3-1.1,4.9
				c-0.8,1.6-1.9,2.9-3.4,3.9c-1.5,1-3.3,1.5-5.5,1.5C11.2,373.7,9.3,373.2,7.8,372.2z M17.4,371.3c1.1-0.8,1.9-1.9,2.4-3.2
				c0.5-1.3,0.8-2.7,0.8-4.1c0-1.6-0.3-3.1-0.9-4.6c-0.6-1.5-1.5-2.7-2.6-3.7c-1.1-0.9-2.5-1.4-4-1.4c-1.5,0-2.8,0.4-3.9,1.3
				c-1.1,0.8-1.9,1.9-2.4,3.2c-0.5,1.3-0.8,2.7-0.8,4.2c0,1.5,0.3,3,0.8,4.5c0.6,1.5,1.4,2.7,2.5,3.7c1.1,1,2.5,1.5,4.1,1.5
				C15.1,372.5,16.4,372.1,17.4,371.3z"/>
			<path class="st4" d="M34.6,357.3L34.6,357.3l0.1,12c0,1.3,0,2.2-0.1,2.8l2.1-0.1v1.2h-5.3v-0.9c0.8,0,1.3-0.2,1.5-0.6
				c0.2-0.4,0.4-1,0.4-1.6l0-15.4l-1.9,0.1v-1.2h3.4l12.3,16h0l0-12.9c0-0.8,0-1.5,0.1-2l-2.1,0.1v-1.2h5.3v0.9
				c-0.6,0-1,0.1-1.3,0.3c-0.3,0.2-0.5,0.5-0.5,0.8c-0.1,0.3-0.1,0.8-0.1,1.3v1l-0.1,15.8h-1.4L34.6,357.3z"/>
		</g>
	</g>
	<g>
		<g>
			<g class="st0">
				<path class="st2" d="M280.8,137.3c-0.1,0.3,0.1-0.1-0.2,0.4c-0.3,0.6-0.7,1.2-1.1,1.7c-1.4,2-3.4,3.5-5.4,4.8
					c-9.5,5.7-21.9,4.9-32.4,3.1c-19.5-3.3-37.3-12.6-57.1-14.2c-11.3-0.9-23.3,0.4-33.3,6.2c-4.1,2.4-8.4,5.7-10.8,9.9
					c0.8,0,1.6,0,2.4,0c-1.9-3.4-5.3-6.3-8.5-8.5c-8.6-5.9-19.4-8-29.7-7.9c-8.6,0.1-17.2,1.6-25.5,3.8c-10.4,2.8-20.3,6.9-30.8,9.3
					c-11.6,2.7-25.7,4.7-36.9-0.6c-2.7-1.3-5.3-3.1-7.2-5.5c-0.5-0.6-0.9-1.3-1.3-2c-0.3-0.6-0.2-0.4-0.3-0.6
					c-0.6-1.7-3.3-1-2.7,0.7c1.1,3.1,3.8,5.7,6.4,7.6c7.8,5.5,18.2,6.2,27.4,5.5c19.8-1.5,37.5-10.8,56.8-14.1
					c12.7-2.2,26.8-2.2,38.4,3.8c4.3,2.2,9.1,5.6,11.4,9.8c0.5,0.9,1.9,0.9,2.4,0c1.9-3.4,5.5-6.2,8.8-8.3c10-6.2,22.2-7.4,33.7-6.3
					c20.2,1.8,38.4,11.7,58.5,14.5c10.2,1.4,21.9,1.7,31.2-3.6c3.4-1.9,7.1-5,8.4-8.9C284.1,136.3,281.4,135.6,280.8,137.3
					L280.8,137.3z"/>
			</g>
			<g>
				<path class="st7" d="M283.6,5.1c-1.1,3.1-3.8,5.7-6.4,7.6c-7.8,5.5-18.2,6.2-27.4,5.5C230,16.7,212.3,7.5,192.9,4.1
					c-12.7-2.2-26.8-2.2-38.4,3.8c-4.3,2.2-9.1,5.6-11.4,9.8c-0.5,0.9-1.9,0.9-2.4,0c-1.9-3.4-5.5-6.2-8.8-8.3
					c-10-6.2-22.2-7.4-33.7-6.3C77.9,5,59.7,14.8,39.7,17.6C29.5,19.1,17.8,19.3,8.5,14c-3.4-1.9-7.1-5-8.4-8.9
					c-0.6-1.7,2.1-2.4,2.7-0.7C2.9,4.7,2.7,4.3,3,4.8C3.3,5.4,3.7,6,4.1,6.6c1.4,2,3.4,3.5,5.4,4.8c9.5,5.7,21.9,4.9,32.4,3.1
					C61.3,11.2,79.1,1.9,99,0.3c11.3-0.9,23.3,0.4,33.3,6.2c4.1,2.4,8.4,5.7,10.8,9.9c-0.8,0-1.6,0-2.4,0c1.9-3.4,5.3-6.3,8.5-8.5
					c8.6-5.9,19.4-8,29.7-7.9c8.6,0.1,17.2,1.6,25.5,3.8c10.4,2.8,20.3,6.9,30.8,9.3c11.6,2.7,25.7,4.7,36.9-0.6
					c2.7-1.3,5.3-3.1,7.2-5.5c0.5-0.6,0.9-1.3,1.3-2c0.3-0.6,0.2-0.4,0.3-0.6C281.4,2.7,284.1,3.4,283.6,5.1L283.6,5.1z"/>
			</g>
		</g>
		<g class="st0">
			<g class="st3">
				<g>
					<path class="st4" d="M39.5,58.7c0.6,0,1.1-0.1,1.4-0.2c0.3-0.1,0.6-0.4,0.7-0.8c0.2-0.4,0.3-1,0.3-1.9V43c0-1.2,0-2.3,0.1-3
						l-2.5,0.1v-2.6l9.5-0.1c3,0,5.3,0.6,7,1.8c1.7,1.2,2.5,3.1,2.5,5.5c0,1.3-0.4,2.5-1.1,3.6c-0.7,1.2-1.8,2.1-3.2,2.8
						c-1.4,0.7-3.2,1.1-5.2,1.2l-1.3,0l-1.1,0v2.9c0,1.3,0,2.3-0.1,3c0.7-0.1,1.7-0.1,2.8-0.1v2.6h-9.9V58.7z M52.1,48.7
						c0.8-0.9,1.2-2.2,1.2-4c0-3.3-1.5-4.9-4.5-4.9c-0.8,0-1.3,0.2-1.7,0.5c-0.4,0.3-0.5,1-0.5,2.1V50c0.5,0.1,1,0.1,1.5,0.1
						C50,50.1,51.3,49.6,52.1,48.7z"/>
					<path class="st4" d="M67.2,58.7c0.6,0,1.1-0.1,1.4-0.2c0.3-0.1,0.6-0.4,0.7-0.8c0.2-0.4,0.3-1,0.3-1.9V43c0-1.2,0-2.3,0.1-3
						l-2.5,0.1v-2.6l9.5-0.1c3,0,5.4,0.5,7,1.6c1.7,1.1,2.5,2.9,2.5,5.3c0,1.5-0.5,2.9-1.5,4.1c-1,1.2-2.4,2.1-4.4,2.6v0
						c0.4,0.2,0.8,0.4,1.2,0.8c0.4,0.4,0.8,0.8,1.1,1.3l1.6,2.3c0.8,1.2,1.4,2,1.9,2.4c0.5,0.4,1.1,0.7,1.8,0.7v2.2h-5.5
						c-0.4-0.3-0.8-0.7-1.1-1.2c-0.4-0.5-0.8-1.2-1.3-2l-2.5-4c-0.6-0.9-1-1.5-1.4-1.9h-1.7v3.6c0,1.3,0,2.3-0.1,3
						c0.7-0.1,1.7-0.1,2.8-0.1v2.6h-9.9V58.7z M80,48.2c0.8-0.8,1.2-2.1,1.2-3.8c0-1.9-0.5-3.1-1.4-3.7c-0.9-0.6-2-0.9-3.1-0.9
						c-0.8,0-1.3,0.2-1.7,0.5c-0.4,0.3-0.5,1-0.5,2.1v6.9c0.7,0.1,1.2,0.1,1.6,0.1C77.9,49.4,79.2,49,80,48.2z"/>
					<path class="st4" d="M96.8,58.7c0.6,0,1.1-0.1,1.4-0.2c0.3-0.1,0.6-0.4,0.7-0.8c0.2-0.4,0.3-1,0.3-1.9V43c0-1.2,0-2.3,0.1-3
						l-2.5,0.1v-2.6h16.7l0.2,6.5h-2.2c0-1.6-0.4-2.8-1.2-3.4c-0.8-0.6-1.7-0.9-2.8-0.9l-1.2,0c-0.5,0-1,0.1-1.3,0.2
						c-0.3,0.1-0.6,0.4-0.7,0.8c-0.2,0.4-0.2,1-0.2,1.9v5h3.9c0-0.4-0.1-1.3-0.1-2.9h2.6v8.1h-2.2c0-0.9-0.1-1.5-0.4-2
						c-0.3-0.4-0.6-0.7-1.1-0.8c-0.4-0.1-1-0.2-1.8-0.2l-0.9,0v5.5c0,1.2,0,2.2-0.1,2.9h4.5c1.1,0,2.1-0.4,2.9-1.2
						c0.8-0.8,1.2-2,1.2-3.7h2.2l-0.2,7.4H96.8V58.7z"/>
					<path class="st4" d="M131.7,50.3c-0.3-0.8-0.7-1.9-1.2-3.3c-0.5-1.4-0.8-2.8-1.1-4.3h0c0.1,2,0.1,3.9,0.1,5.5v1.1l0,6.1
						c0,1.4-0.1,2.4-0.2,3c0.7-0.1,1.6-0.1,2.5-0.1v2.6h-7.6v-2.2c0.6,0,1.1-0.1,1.4-0.2c0.3-0.1,0.6-0.4,0.7-0.8
						c0.2-0.4,0.3-1,0.3-1.9l0.2-12.8c0-1.6,0.1-2.6,0.1-3l-2.5,0.1v-2.6h7.4l5,12.9c0.3,0.9,0.7,1.8,1.1,2.9c0.4,1,0.6,1.9,0.8,2.4
						h0c0.1-0.2,0.3-0.9,0.7-2.1c0.3-0.9,0.6-1.7,0.8-2.3l5.2-13.8h7.7v2.2c-0.6,0-1.1,0.1-1.4,0.2c-0.3,0.1-0.6,0.4-0.8,0.8
						c-0.2,0.4-0.3,1-0.2,1.9l0.5,12.8c0.1,1.1,0,2.1-0.1,3c0.7-0.1,1.6-0.1,2.5-0.1v2.6h-9.3v-2.2c0.6,0,1.1-0.1,1.4-0.2
						c0.3-0.1,0.6-0.4,0.8-0.8c0.2-0.4,0.3-1,0.2-1.9l-0.3-7.1l-0.1-1.3c-0.1-2.2-0.2-3.7-0.2-4.5h0l-6.8,18.3h-3.1L131.7,50.3z"/>
					<path class="st4" d="M163.3,58.7c0.6,0,1.1-0.1,1.4-0.2c0.3-0.1,0.6-0.4,0.7-0.8c0.2-0.4,0.3-1,0.3-1.9V43c0-1.2,0-2.3,0.1-3
						l-2.5,0.1v-2.6h9.6v2.2c-0.6,0-1.1,0.1-1.4,0.2c-0.3,0.1-0.6,0.4-0.7,0.8c-0.2,0.4-0.3,1-0.3,1.9v12.8c0,1.2,0,2.3-0.1,3
						c0.7-0.1,1.5-0.1,2.5-0.1v2.6h-9.6V58.7z"/>
					<path class="st4" d="M186.6,58.7c-1.5-1.9-2.2-4.4-2.2-7.6V43c0-1.2,0-2.3,0.1-3l-2.5,0.1v-2.6h9.6v2.2c-0.6,0-1,0.1-1.3,0.2
						c-0.3,0.1-0.6,0.4-0.7,0.8c-0.2,0.4-0.3,1-0.3,1.9v9.2c0,4.7,1.9,7.1,5.6,7.1c1.8,0,3.1-0.6,4.1-1.8c1-1.2,1.4-3,1.4-5.3V43
						c0-1.5,0-2.5,0.1-3l-2.5,0.1v-2.6h7.7v2.2c-0.6,0-1.1,0.1-1.4,0.2c-0.3,0.1-0.6,0.4-0.7,0.8c-0.2,0.4-0.3,1-0.3,1.9V51
						c0,3.7-0.8,6.3-2.5,8c-1.7,1.7-3.9,2.5-6.8,2.5C190.5,61.5,188,60.5,186.6,58.7z"/>
					<path class="st4" d="M222.3,50.3c-0.3-0.8-0.7-1.9-1.2-3.3c-0.5-1.4-0.8-2.8-1.1-4.3h0c0.1,2,0.1,3.9,0.1,5.5v1.1l0,6.1
						c0,1.4-0.1,2.4-0.2,3c0.7-0.1,1.6-0.1,2.5-0.1v2.6h-7.6v-2.2c0.6,0,1.1-0.1,1.4-0.2c0.3-0.1,0.6-0.4,0.7-0.8
						c0.2-0.4,0.3-1,0.3-1.9l0.2-12.8c0-1.6,0.1-2.6,0.1-3l-2.5,0.1v-2.6h7.4l5,12.9c0.3,0.9,0.7,1.8,1.1,2.9c0.4,1,0.6,1.9,0.8,2.4
						h0c0.1-0.2,0.3-0.9,0.7-2.1c0.3-0.9,0.6-1.7,0.8-2.3l5.2-13.8h7.7v2.2c-0.6,0-1.1,0.1-1.4,0.2c-0.3,0.1-0.6,0.4-0.8,0.8
						c-0.2,0.4-0.3,1-0.2,1.9l0.5,12.8c0.1,1.1,0,2.1-0.1,3c0.7-0.1,1.6-0.1,2.5-0.1v2.6h-9.3v-2.2c0.6,0,1.1-0.1,1.4-0.2
						c0.3-0.1,0.6-0.4,0.8-0.8c0.2-0.4,0.3-1,0.2-1.9l-0.3-7.1l-0.1-1.3c-0.1-2.2-0.2-3.7-0.2-4.5h0l-6.8,18.3h-3.1L222.3,50.3z"/>
				</g>
				<g>
					<path class="st4" d="M63.8,119.1c0.6,0.5,1.1,0.9,1.5,1.1c0.5,0.2,0.9,0.4,1.4,0.4v1.2h-1.2c-1.1,0-1.9,0-2.5-0.1
						c-0.6-0.1-1.2-0.2-1.8-0.5c-0.6-0.3-1.3-0.8-2-1.5c-0.7-0.6-1.5-1.5-2.5-2.5c-1.1-1.1-1.9-1.8-2.5-2.3c-0.6-0.4-1.3-0.7-2-0.7
						c-2.9-0.1-5.4-0.7-7.3-2.1c-1.9-1.3-3.4-3-4.3-5.1c-0.9-2.1-1.4-4.2-1.4-6.5c0-2.2,0.5-4.4,1.5-6.5c1-2.1,2.4-3.8,4.4-5.2
						c1.9-1.4,4.3-2,7.1-2c2.9,0,5.3,0.7,7.3,2c2,1.4,3.5,3.1,4.5,5.2c1,2.1,1.5,4.2,1.5,6.5c0,1.9-0.4,3.8-1.1,5.7
						c-0.7,1.9-1.9,3.5-3.4,4.9c-1.5,1.4-3.3,2.3-5.5,2.8c1,0,1.9,0.2,2.7,0.5c0.8,0.3,1.6,0.9,2.7,1.9
						C62.2,117.7,63.2,118.6,63.8,119.1z M43.9,105.8c0.7,2,1.8,3.6,3.3,4.9c1.5,1.3,3.2,2,5.3,2c1.9,0,3.6-0.6,5-1.7
						c1.4-1.1,2.4-2.5,3.1-4.3c0.7-1.7,1.1-3.6,1.1-5.5c0-2.1-0.4-4.2-1.2-6.1c-0.8-2-1.9-3.6-3.3-4.9C55.7,89,54,88.4,52,88.4
						c-1.9,0-3.6,0.6-5,1.7c-1.4,1.1-2.4,2.5-3.1,4.3c-0.7,1.8-1.1,3.6-1.1,5.5C42.8,101.9,43.2,103.9,43.9,105.8z"/>
					<path class="st4" d="M82.3,112.9c-1.5-0.9-2.6-2.4-3.3-4.3c-0.7-1.9-1-4.5-1-7.6v-7.6c0-1.6,0-3,0.1-4.3l-2.7,0.1v-1.6h8.3v1.2
						c-1.1,0-1.8,0.3-2.1,0.9c-0.3,0.6-0.4,1.3-0.4,2.1v9.4c0,2.2,0.2,4,0.6,5.6c0.4,1.6,1.1,2.9,2.3,3.9c1.1,1,2.7,1.5,4.9,1.5
						c2.6,0,4.5-0.9,5.7-2.7c1.3-1.8,1.9-4.2,2-7.3l0.1-10.5c0-1,0-1.9,0.1-2.7l-2.6,0.1v-1.6h6.9v1.2c-0.9,0-1.5,0.2-1.9,0.6
						c-0.4,0.4-0.6,0.8-0.6,1.3c-0.1,0.5-0.1,1.4-0.1,2.7l-0.1,8.7c0,3.6-0.8,6.6-2.4,8.8c-1.6,2.3-4.1,3.4-7.6,3.4
						C85.9,114.3,83.8,113.8,82.3,112.9z"/>
					<path class="st4" d="M108.6,112.4c0.6,0,1.1-0.1,1.5-0.4c0.4-0.3,0.7-0.7,0.9-1.1c0.2-0.5,0.5-1.2,0.8-2.1l0.4-1l7.7-20.9h0.9
						l8.3,21.2c0.3,0.7,0.5,1.4,0.7,2.2c0.2,0.8,0.3,1.4,0.3,1.9l2.5-0.1v1.6h-8.5v-1.2c1.5,0,2.2-0.6,2.2-1.8
						c0-0.5-0.1-1.1-0.4-1.8l-1.3-3.5l-9.7,0.2c-0.4,1-0.8,2.4-1.3,4c-0.2,0.8-0.6,1.7-0.9,2.6l2.9-0.1v1.6h-7V112.4z M124.1,104
						l-2.6-7.1l-1.7-4.6h-0.1l-1.6,4.2l-2,5.7l-0.6,1.8H124.1z"/>
					<path class="st4" d="M141.6,112.4c0.9,0,1.5-0.2,1.9-0.6c0.4-0.4,0.6-0.8,0.6-1.3c0-0.5,0.1-1.4,0.1-2.7V91.7
						c0-1,0-1.9,0.1-2.7l-2.7,0.1v-1.6h8.4v1.2c-0.9,0-1.5,0.2-1.9,0.6c-0.4,0.4-0.6,0.8-0.6,1.3c-0.1,0.5-0.1,1.4-0.1,2.7v16
						c0,1.3,0,2.3-0.1,2.9l7-0.1c1.6,0,2.8-0.5,3.6-1.5c0.8-1,1.2-2.6,1.2-4.7h1.3l-0.2,7.7h-18.5V112.4z"/>
					<path class="st4" d="M170.6,112.4c0.9,0,1.5-0.2,1.9-0.6c0.4-0.4,0.6-0.8,0.6-1.3c0-0.5,0.1-1.4,0.1-2.7V91.7
						c0-1,0-1.9,0.1-2.7l-2.7,0.1v-1.6h8.4v1.2c-0.9,0-1.5,0.2-1.9,0.6c-0.4,0.4-0.6,0.8-0.6,1.3c-0.1,0.5-0.1,1.4-0.1,2.7v15.9
						c0,1.3,0,2.3-0.1,2.9l2.7-0.1v1.6h-8.4V112.4z"/>
					<path class="st4" d="M196.2,112.4c1.1,0,1.8-0.3,2.1-0.9c0.3-0.5,0.5-1.4,0.5-2.5v-1.2l0-18.9l-3.8,0c-1.5,0-2.6,0.5-3.3,1.6
						c-0.7,1-1,2.7-1,4.9h-1.4l0.2-7.9h21.7l0.2,7.9H210c0-1.6-0.2-2.8-0.5-3.8c-0.3-0.9-0.8-1.6-1.5-2.1c-0.7-0.5-1.7-0.7-2.9-0.7
						H202l0,20.3c0,1.3,0,2.3-0.1,2.9l3.1-0.1v1.6h-8.7V112.4z"/>
					<path class="st4" d="M228.5,112.4c1.1,0,1.8-0.3,2.1-0.9c0.3-0.5,0.5-1.4,0.5-2.5v-1.2l0-4.3l-6.5-10.3c-1.1-1.8-1.8-3.2-2-4.2
						l-2.3,0.1v-1.6h9.6v1.2c-1.9,0-2.9,0.5-2.9,1.6c0,0.6,0.3,1.5,0.9,2.4l1.2,1.8c1.6,2.6,3,4.7,4.1,6.3h0.1
						c0.9-1.7,2.2-4.3,4-7.6l0.8-1.5c0.7-1.4,1.3-2.3,1.8-2.8l-2.9,0.1v-1.6h7.6v1.2c-1.2,0.1-2.1,0.5-2.9,1.2
						c-0.8,0.7-1.6,1.9-2.5,3.6l-4.7,8.9c0,1.2,0,2.5-0.1,3.9c0,1.4,0,2.3,0,2.9c0,1.3,0,2.3-0.1,2.9l3.1-0.1v1.6h-8.7V112.4z"/>
				</g>
			</g>
			<rect x="13.1" y="74.8" class="st2" width="257.5" height="1.2"/>
		</g>
	</g>
	<g class="st0">
		<g class="st3">
			<path class="st4" d="M-334.1-232.8c3.9,1.6,7.8,3.1,11.6,4.4v-68.2c0,0,0,0,0.1,0c0,0,0,0,0,0c16.3-5.9,25.3-9.1,40-24.9
				c-7.8,3.5-15.5,5.1-23.4,5.1c-10.9,0-20.7-3.2-30.3-6.2c-9.5-3-18.5-5.9-28.4-5.9c-8.1,0-16,2-24.1,6.1c9.2,10.3,14.7,19,25.1,37
				l0.9,1.6l-0.9,1.6c-9.6,15.9-15,25.3-23.8,43.7c6.1-2.2,12.3-3.3,18.5-3.3C-356.1-241.7-344.9-237.2-334.1-232.8z"/>
			<path class="st4" d="M-316.4-295.5c0.5,0.5,1.1,1,1.6,1.4c9.9,3.1,21.7,6,34.9,8.5v-34.1C-293.7-304.8-302.9-300.4-316.4-295.5z"
				/>
			<path class="st4" d="M112.7-295.4c-2.1-0.8-4.1-1.5-6-2.3c-0.5-0.2-0.9-0.4-1.4-0.6c-0.5-0.2-0.9-0.4-1.3-0.6
				c-0.4-0.2-0.9-0.4-1.3-0.6c-0.7-0.3-1.4-0.7-2.1-1c-0.6-0.3-1.2-0.6-1.8-0.9c-0.5-0.2-0.9-0.5-1.4-0.8c-1.3-0.7-2.6-1.5-4-2.4
				c-0.8-0.5-1.7-1.1-2.5-1.7c-0.4-0.3-0.9-0.6-1.3-1c-0.4-0.3-0.9-0.7-1.3-1c-0.9-0.7-1.8-1.4-2.7-2.2c-0.4-0.4-0.9-0.8-1.4-1.2
				c-1.8-1.6-3.7-3.5-5.7-5.5c-0.5-0.5-1-1-1.5-1.6c-0.3-0.3-0.6-0.6-0.9-0.9v34.1c13.3-2.6,25-5.5,35-8.6
				C111.7-294.5,112.2-295,112.7-295.4z"/>
			<path class="st4" d="M115.6-227.4v-64.8c-0.9,0.3-1.9,0.6-2.8,0.9c-1.2,0.4-2.4,0.8-3.6,1.1h0c-1.2,0.4-2.4,0.7-3.7,1.1
				c-8.7,2.5-18.6,4.7-29.3,6.8c-0.5,0.1-1,0.2-1.6,0.3c-0.5,0.1-1,0.2-1.6,0.3C26.9-273.1-35.4-268-101.8-268
				c-66.4,0-128.7-5-174.9-13.6c-0.5-0.1-1-0.2-1.6-0.3c-0.5-0.1-1-0.2-1.6-0.3c-10.7-2.1-20.5-4.3-29.2-6.8c-1.2-0.3-2.4-0.7-3.6-1
				c-1.3-0.4-2.5-0.7-3.7-1.1h0c-1-0.3-1.9-0.6-2.9-0.9v64.8v1.6v1.7v21c43.8,15.1,126.7,24.5,217.5,24.5
				c90.7,0,173.7-9.4,217.5-24.5v-17.7v-3.4v-1.7V-227.4z"/>
			<path class="st4" d="M160.8-330v1.6c-9.9,0-18.9,2.9-28.4,5.9c-9.5,3-19.4,6.2-30.3,6.2c-7.9,0-15.6-1.7-23.4-5.1
				c14.7,15.8,23.7,19,40,24.8v68.2c3.9-1.3,7.7-2.9,11.6-4.4c10.8-4.3,22.1-8.8,34.8-8.8c6.2,0,12.3,1.1,18.5,3.2
				c-8.8-18.4-14.2-27.8-23.8-43.7l-1-1.6l0.9-1.6c10.4-18,16-26.8,25.1-37c-8.1-4.1-16-6.1-24.1-6.1L160.8-330L160.8-330z"/>
		</g>
		<g class="st3">
			<path class="st8" d="M-231.2-217.4c-1.8-1.4-3.2-3.1-4-5.3c-0.9-2.1-1.2-4.4-0.9-6.8c0.3-2.8,1.2-5.1,2.9-6.9
				c1.6-1.8,3.6-3.1,5.9-3.9c2.3-0.8,4.6-1,6.9-0.8c2.6,0.3,4.8,1.1,6.6,2.5c1.8,1.4,3.1,3.2,4,5.2c0.8,2.1,1.1,4.2,0.9,6.4
				c-0.3,2.5-1.1,4.6-2.7,6.6c-1.5,1.9-3.4,3.4-5.7,4.3c-2.3,1-4.7,1.3-7.3,1C-227.2-215.2-229.4-216.1-231.2-217.4z M-219-216.7
				c1.3-0.8,2.4-1.9,3.2-3.6c0.9-1.6,1.4-3.6,1.6-6c0.3-2.5,0.1-4.7-0.4-6.8c-0.6-2-1.5-3.7-2.8-4.9c-1.3-1.3-2.9-2-4.9-2.2
				c-2.5-0.3-4.4,0.5-6,2.2c-1.5,1.7-2.5,4.2-2.8,7.6c-0.3,2.6-0.1,5,0.5,7.2c0.6,2.2,1.5,3.9,2.8,5.2c1.3,1.3,2.8,2.1,4.5,2.2
				C-221.7-215.7-220.3-216-219-216.7z"/>
			<path class="st8" d="M-173.3-211.6c0,0.2,0,0.2-0.1,0.2l-7.2-0.5c-0.6,0-1.6-1.2-3.1-3.5c-1.5-2.3-3.2-5.4-5.3-9.4
				c-0.2,0-0.5,0-0.9,0c-1.1-0.1-1.8-0.1-2.2-0.2l-0.6,9c-0.1,0.8,0,1.5,0.1,1.8c0.1,0.4,0.4,0.7,0.7,0.8c0.4,0.2,1,0.3,1.9,0.3
				c0.1,0,0.1,0.1,0.1,0.2c0,0.2,0,0.2-0.1,0.2c-0.9-0.1-1.6-0.1-2.1-0.2l-3.1-0.2l-3-0.2c-0.5,0-1.3,0-2.2-0.1
				c-0.1,0-0.1-0.1-0.1-0.3c0-0.2,0.1-0.2,0.1-0.2c0.9,0.1,1.5,0,1.9-0.1c0.4-0.1,0.7-0.4,0.9-0.7c0.2-0.4,0.3-1,0.3-1.8l1.3-18.8
				c0.1-0.8,0-1.4-0.1-1.8c-0.1-0.4-0.4-0.7-0.8-0.8c-0.4-0.2-1-0.3-1.9-0.4c-0.1,0-0.1-0.1-0.1-0.2c0-0.2,0-0.2,0.1-0.2l2.2,0.2
				c1.2,0.1,2.2,0.2,3,0.3c0.9,0.1,1.9,0.1,2.9,0.1c0.4,0,0.8,0,1.3,0c0.5,0,1.1,0,1.8,0.1c2.5,0.2,4.3,0.8,5.6,1.8
				c1.3,1,1.9,2.3,1.8,3.9c-0.1,1.5-0.6,2.8-1.5,4c-0.9,1.2-2,2-3.5,2.7c1.9,3.4,3.6,6.1,4.9,8c1.3,1.9,2.5,3.4,3.6,4.3
				c1.1,0.9,2.2,1.4,3.2,1.5C-173.3-211.8-173.2-211.7-173.3-211.6z M-189.7-225.8c1.6,0.1,2.7-0.3,3.5-1.1c0.8-0.8,1.2-2.2,1.3-4.2
				c0.2-2.2-0.1-3.8-0.7-4.7c-0.6-0.9-1.5-1.4-2.7-1.5c-1.1-0.1-1.9,0.1-2.4,0.5c-0.5,0.4-0.8,1-0.8,2l-0.6,8.6
				C-191.4-225.9-190.7-225.8-189.7-225.8z"/>
			<path class="st8" d="M-137-235.1c0,0.2,0,0.2-0.1,0.2c-1.1,0-2,0.4-2.6,1.2c-0.7,0.8-1,2-1.1,3.4l-0.8,20.9
				c0,0.1-0.1,0.1-0.2,0.2c-0.1,0-0.2,0-0.3-0.1l-18.3-22.5l-0.6,15.8c-0.1,1.4,0.2,2.6,0.8,3.5c0.6,0.9,1.4,1.3,2.4,1.4
				c0.1,0,0.1,0.1,0.1,0.2c0,0.2,0,0.2-0.1,0.2c-0.8,0-1.3-0.1-1.7-0.1l-2.2-0.1l-2.5-0.1c-0.5,0-1.1,0-2,0c-0.1,0-0.1-0.1-0.1-0.2
				c0-0.2,0.1-0.2,0.1-0.2c1.2,0,2.2-0.3,2.9-1.2c0.7-0.8,1.1-1.9,1.2-3.4l0.6-17.2c-0.9-1-1.6-1.7-2.2-2.1c-0.6-0.4-1.3-0.6-2-0.6
				c-0.1,0-0.1-0.1-0.1-0.2c0-0.2,0-0.2,0.1-0.2l1.7,0.1c0.4,0,0.9,0.1,1.5,0.1l3.1,0.1c0.4,0,0.8,0,1.4,0c0.2,0,0.4,0.1,0.5,0.2
				c0.1,0.1,0.3,0.4,0.5,0.7c0.4,0.6,0.7,1.1,0.9,1.3l13.5,16.8l0.5-13.2c0.1-1.5-0.2-2.6-0.8-3.5c-0.6-0.9-1.4-1.3-2.4-1.4
				c-0.1,0-0.1-0.1-0.1-0.2c0-0.2,0-0.2,0.1-0.2l1.7,0.1c0.9,0.1,1.6,0.1,2.2,0.2c0.5,0,1.3,0,2.3,0l1.8,0
				C-137-235.4-137-235.3-137-235.1z"/>
			<path class="st8" d="M-101.7-209.7c0,0.2-0.1,0.2-0.2,0.2c-0.5,0-1.4,0-2.5-0.1c-1.2-0.1-2.1-0.1-2.6-0.1c-0.7,0-1.5,0-2.5,0.1
				c-0.9,0-1.7,0.1-2.2,0.1c-0.1,0-0.2-0.1-0.2-0.2c0-0.2,0.1-0.2,0.2-0.2c0.7,0,1.2-0.1,1.5-0.2s0.5-0.4,0.5-0.8
				c0-0.5-0.3-1.2-0.8-2.3l-2.7-5.5l-10-0.1l-1.6,3.5c-0.4,0.8-0.5,1.5-0.6,2.2c0,1,0.3,1.7,1,2.3c0.7,0.6,1.6,0.8,2.8,0.8
				c0.1,0,0.2,0.1,0.2,0.2c0,0.2-0.1,0.2-0.2,0.2c-0.5,0-1.2,0-2.1-0.1c-1-0.1-1.9-0.1-2.7-0.1c-0.7,0-1.6,0-2.7,0.1
				c-0.9,0-1.7,0.1-2.2,0.1c-0.1,0-0.2-0.1-0.2-0.2c0-0.2,0.1-0.2,0.2-0.2c0.8,0,1.4-0.1,1.9-0.5c0.5-0.3,1-0.9,1.6-1.7
				c0.5-0.8,1.1-2,1.9-3.6l9-19.4c0.1-0.1,0.2-0.1,0.4-0.1c0.2,0,0.3,0,0.4,0.1l10,20.1c0.9,1.9,1.7,3.3,2.3,4
				c0.6,0.7,1.3,1.1,1.9,1.1C-101.8-210-101.7-209.9-101.7-209.7z M-122.7-220.2l8.9,0.1l-4.6-9.3L-122.7-220.2z"/>
			<path class="st8" d="M-61.6-210.4c0,0.2,0,0.2-0.1,0.2c-0.9,0-1.7,0-2.2,0l-3,0l-3.1,0.1c-0.5,0-1.2,0.1-2.1,0.1
				c-0.1,0-0.1-0.1-0.1-0.2c0-0.2,0-0.2,0.1-0.2c1.1,0,1.9-0.2,2.3-0.5c0.4-0.3,0.6-0.9,0.6-1.7l-0.1-0.7l-1.2-16.7l-8,19.9
				c-0.1,0.1-0.2,0.2-0.3,0.2c-0.2,0-0.3,0-0.3-0.2l-10.7-19.4l0,14.7c0,1.5,0.3,2.6,0.9,3.4c0.6,0.8,1.5,1.2,2.6,1.2
				c0.1,0,0.1,0.1,0.1,0.2c0,0.2,0,0.2-0.1,0.2c-0.7,0-1.3,0-1.7,0l-2.2,0l-2.6,0.1c-0.4,0-1,0.1-1.8,0.1c-0.1,0-0.1-0.1-0.1-0.2
				c0-0.2,0-0.2,0.1-0.2c1.1,0,2-0.5,2.6-1.3c0.6-0.9,1-2,0.9-3.4l0-16.9l0,0c-0.6-1-1.1-1.7-1.7-2.2c-0.6-0.4-1.3-0.7-2-0.7
				c-0.1,0-0.1-0.1-0.1-0.2c0-0.2,0-0.2,0.1-0.2l1.9,0c0.4,0,0.9,0,1.5,0l2.2-0.1c0.2,0,0.6-0.1,0.9-0.1c0.4,0,0.6,0.1,0.8,0.4
				c0.2,0.2,0.6,0.8,1.1,1.7l9.2,16.5l7.4-17.9c0.2-0.4,0.3-0.7,0.5-0.8c0.2-0.2,0.4-0.2,0.7-0.2c0.2,0,0.5,0,0.8,0
				c0.3,0,0.7,0,1.1,0l2.4-0.1c0.4,0,0.9-0.1,1.6-0.1c0.1,0,0.1,0.1,0.1,0.2c0,0.2,0,0.2-0.1,0.2c-1.3,0-2.2,0.3-2.8,0.8
				c-0.6,0.5-0.8,1.3-0.7,2.4l1.4,18.5c0.1,0.8,0.2,1.5,0.3,1.8c0.2,0.4,0.4,0.6,0.8,0.8c0.4,0.1,1,0.2,1.9,0.2
				C-61.7-210.7-61.6-210.6-61.6-210.4z"/>
			<path class="st8" d="M-34.3-218c0.1,0,0.2,0,0.2,0.1c0.1,0,0.1,0.1,0.1,0.1c-0.2,2.1-0.2,4.1-0.1,5.8c0,0.2,0,0.4-0.1,0.5
				c-0.1,0.1-0.2,0.2-0.5,0.2l-18,0.9c-0.1,0-0.1-0.1-0.1-0.2c0-0.2,0-0.2,0.1-0.2c0.9,0,1.5-0.1,1.9-0.3c0.4-0.2,0.6-0.4,0.8-0.8
				c0.1-0.4,0.2-1,0.1-1.8l-0.9-18.9c0-0.8-0.1-1.4-0.3-1.8c-0.2-0.4-0.4-0.6-0.9-0.8c-0.4-0.1-1-0.2-1.9-0.1
				c-0.1,0-0.1-0.1-0.1-0.2c0-0.2,0-0.2,0.1-0.3l17.3-0.8c0.3,0,0.4,0.1,0.4,0.3l0.3,5.4c0,0.1-0.1,0.1-0.2,0.1
				c-0.1,0-0.2,0-0.3-0.1c-0.5-1.6-1.3-2.7-2.4-3.4c-1.1-0.7-2.4-1-4.1-0.9l-1.2,0.1c-0.8,0-1.4,0.2-1.8,0.6
				c-0.4,0.4-0.5,0.9-0.5,1.7l0.4,8.3l3.4-0.2c1.6-0.1,2.8-0.4,3.6-1c0.8-0.6,1.2-1.4,1.2-2.3c0-0.1,0.1-0.1,0.2-0.1
				c0.1,0,0.2,0,0.2,0.1l0.1,3.7l0.1,2c0.1,0.9,0.2,1.7,0.2,2.2c0,0.1-0.1,0.1-0.2,0.1c-0.2,0-0.2,0-0.2-0.1c-0.1-1.1-0.5-2-1.4-2.6
				c-0.9-0.6-2.1-0.9-3.7-0.8l-3.3,0.2l0.4,9.2c0,0.8,0.2,1.4,0.5,1.7c0.3,0.4,0.8,0.5,1.5,0.5l1.3-0.1c2.1-0.1,3.8-0.6,5-1.6
				c1.2-0.9,2.1-2.3,2.6-4.2C-34.5-218-34.4-218-34.3-218z"/>
			<path class="st8" d="M1.9-239.4c0,0.2,0,0.2-0.1,0.2c-1.1,0.1-1.9,0.6-2.5,1.5c-0.6,0.9-0.8,2.1-0.7,3.5l1.6,20.8
				c0,0.1-0.1,0.1-0.2,0.2c-0.1,0-0.2,0-0.3,0l-20.8-20.2l1.2,15.8c0.1,1.4,0.5,2.6,1.2,3.3c0.7,0.8,1.5,1.1,2.6,1.1
				c0.1,0,0.1,0.1,0.1,0.2c0,0.2,0,0.2-0.1,0.2c-0.8,0.1-1.3,0.1-1.8,0.1l-2.2,0.1l-2.5,0.2c-0.5,0.1-1.1,0.1-2,0.2
				c-0.1,0-0.1-0.1-0.1-0.2c0-0.2,0-0.2,0.1-0.3c1.2-0.1,2.1-0.6,2.7-1.5c0.6-0.9,0.9-2.1,0.8-3.5l-1.3-17.2c-1-0.9-1.8-1.5-2.5-1.8
				c-0.7-0.3-1.3-0.4-2-0.4c-0.1,0-0.1-0.1-0.1-0.2c0-0.2,0-0.2,0.1-0.3l1.7-0.1c0.4,0,0.9,0,1.5-0.1l3.1-0.3
				c0.4-0.1,0.8-0.1,1.4-0.1c0.2,0,0.4,0,0.5,0.1c0.1,0.1,0.3,0.3,0.6,0.6c0.5,0.6,0.9,1,1.1,1.2l15.3,15.1l-1-13.1
				c-0.1-1.5-0.5-2.6-1.2-3.4c-0.7-0.8-1.5-1.1-2.6-1.1c-0.1,0-0.1-0.1-0.1-0.2c0-0.2,0-0.2,0.1-0.2l1.8-0.1c0.9,0,1.6,0,2.2-0.1
				c0.5,0,1.3-0.1,2.3-0.3l1.8-0.2C1.9-239.6,1.9-239.5,1.9-239.4z"/>
			<path class="st8" d="M10.5-233.2c0,0.1-0.1,0.1-0.2,0.1c-0.1,0-0.2,0-0.2-0.1c0-1.1-0.1-2.5-0.1-4.2c-0.1-1.7-0.1-3-0.2-3.9
				c0-0.1,0.1-0.2,0.2-0.2c0.1,0,0.2,0,0.2,0.2c0.1,0.6,0.9,0.8,2.4,0.6c2.3-0.2,5-0.5,8.2-0.8c1.6-0.2,3.3-0.4,5.1-0.7l2.7-0.4
				c1-0.1,1.8-0.3,2.2-0.5c0.5-0.2,0.7-0.5,0.8-0.9c0-0.1,0.1-0.2,0.2-0.2c0.1,0,0.2,0,0.2,0.1c0,0.8,0.1,2.1,0.2,3.9
				c0.1,1.8,0.2,3.2,0.4,4.3c0,0.1-0.1,0.1-0.2,0.1c-0.1,0-0.2,0-0.3-0.1c-0.6-2-1.6-3.5-2.8-4.4c-1.2-0.9-2.6-1.3-4.3-1.1
				c-0.8,0.1-1.3,0.3-1.5,0.7c-0.2,0.4-0.3,1-0.2,2l2.1,18.7c0.1,0.8,0.2,1.4,0.5,1.8c0.2,0.4,0.5,0.6,1,0.7c0.5,0.1,1.2,0.1,2.2,0
				c0.1,0,0.1,0.1,0.1,0.2c0,0.2,0,0.2-0.1,0.3c-1,0.1-1.7,0.2-2.3,0.2l-3.4,0.3l-3.3,0.4c-0.6,0.1-1.3,0.2-2.3,0.3
				c-0.1,0-0.1-0.1-0.1-0.2c0-0.2,0-0.2,0.1-0.3c1-0.1,1.7-0.3,2.1-0.5c0.5-0.2,0.7-0.5,0.9-0.9c0.1-0.4,0.1-1,0.1-1.8l-2.2-18.8
				c-0.1-0.9-0.3-1.5-0.6-1.8c-0.3-0.3-0.8-0.4-1.6-0.3C13.5-239.9,11.5-237.6,10.5-233.2z"/>
		</g>
	</g>
	<g class="st0">
		<g class="st3">
			<polygon class="st4" points="534.3,381.2 534.3,391.3 471.2,391.3 484.6,368.1 485.2,367.1 484.6,366 471.2,342.9 514,342.9 
				514,381.2 			"/>
			<polygon class="st4" points="706.7,352.9 682.3,379.2 516,379.2 516,326.7 682.3,326.7 			"/>
			<path class="st4" d="M682.3,379.2H516v-52.5h166.2l24.4,26.2L682.3,379.2z"/>
		</g>
		<g class="st3">
			<path class="st8" d="M540.4,359.6c-1.1-0.6-2-1.5-2.6-2.7c-0.6-1.2-0.9-2.6-0.9-4.1c0-1.6,0.3-2.9,1-4c0.7-1.1,1.6-2,2.8-2.6
				c1.2-0.6,2.5-0.9,3.9-0.9c1,0,1.9,0.1,2.9,0.3c0.9,0.2,1.7,0.4,2.4,0.8c-0.2,0.8-0.2,2-0.2,3.4c-0.4,0.2-0.8,0.2-1.5,0.2
				c-0.1-1.4-0.4-2.3-1-2.8c-0.6-0.5-1.4-0.8-2.5-0.8c-1.1,0-2,0.3-2.7,0.8c-0.7,0.5-1.3,1.2-1.6,2.1c-0.4,0.9-0.5,1.9-0.5,2.9
				c0,1.3,0.2,2.5,0.6,3.6c0.4,1.1,0.9,1.9,1.7,2.5c0.7,0.6,1.6,0.9,2.6,0.9c0.4,0,0.7,0,1-0.1c0.3,0,0.6-0.1,0.8-0.2
				c0.3-0.1,0.5-0.3,0.6-0.5c0.1-0.2,0.2-0.6,0.2-1.1v-1c0-0.6,0-1.1-0.1-1.3c-0.1-0.3-0.2-0.4-0.5-0.5c-0.2-0.1-0.6-0.2-1.2-0.2
				c-0.1-0.3-0.1-0.7-0.1-1.2c0.4,0,1.4,0.1,2.8,0.1c1.4,0,2.3,0,2.7,0c0,0.5,0,0.9-0.1,1.2c-0.3,0-0.5,0.1-0.6,0.2
				c-0.1,0.1-0.2,0.3-0.3,0.5c0,0.3-0.1,0.7-0.1,1.3v0.9c0,0.4,0,0.7,0.1,1c0,0.3,0.1,0.5,0.3,0.7c-0.7,0.5-1.5,0.9-2.5,1.2
				c-1,0.3-2.1,0.5-3.2,0.5C542.9,360.6,541.6,360.2,540.4,359.6z"/>
			<path class="st8" d="M569.5,356.9c-0.3,1-0.6,2.2-0.7,3.5c-1.3,0-3,0-5,0c-2.9,0-4.9,0-6,0.1c0-0.5,0-0.9,0.1-1.2
				c0.4,0,0.7-0.1,0.9-0.2c0.2-0.1,0.4-0.3,0.4-0.6c0.1-0.3,0.1-0.8,0.1-1.4v-8.4c0-0.5,0-1-0.1-1.2c-0.1-0.3-0.2-0.5-0.5-0.6
				c-0.2-0.1-0.5-0.2-0.9-0.2c-0.1-0.3-0.1-0.7-0.1-1.2c1,0,2.4,0.1,4.3,0.1c2.4,0,4.4,0,6.1-0.1c0.1,1.7,0.3,2.9,0.5,3.6
				c-0.3,0.2-0.8,0.3-1.3,0.3c-0.1-0.8-0.4-1.5-0.9-2c-0.5-0.5-1.4-0.7-2.6-0.7h-1.8v5.7h1c0.9,0,1.4-0.1,1.8-0.4
				c0.3-0.2,0.5-0.7,0.5-1.4c0.4-0.1,0.8-0.2,1.3-0.2c0,0.7-0.1,1.5-0.1,2.4c0,1,0,1.8,0.1,2.6c-0.5,0-1,0-1.3-0.1
				c-0.1-0.7-0.2-1.2-0.6-1.5c-0.3-0.2-0.9-0.4-1.7-0.4h-1v3.5c0,0.6,0.1,1.1,0.2,1.4c0.1,0.3,0.3,0.5,0.6,0.6
				c0.3,0.1,0.7,0.2,1.2,0.2h0.2c0.9,0,1.5-0.1,2-0.3c0.5-0.2,0.9-0.5,1.1-0.9c0.3-0.4,0.5-0.9,0.7-1.7
				C568.7,356.5,569.2,356.7,569.5,356.9z"/>
			<path class="st8" d="M590.2,345.4c0,0.5,0,0.9-0.1,1.2c-0.4,0-0.6,0.1-0.8,0.3c-0.2,0.2-0.3,0.5-0.4,0.9
				c-0.1,0.4-0.1,1.1-0.1,1.9v10.7c-0.3,0.1-0.7,0.2-1.3,0.2l-8.7-11.4v7c0,0.9,0,1.5,0.1,2c0.1,0.4,0.2,0.8,0.5,1
				c0.2,0.2,0.6,0.3,1,0.3c0.1,0.3,0.1,0.7,0.1,1.2c-0.7,0-1.4-0.1-2.3-0.1c-1.1,0-1.9,0-2.4,0.1c0-0.5,0-0.9,0.1-1.2
				c0.4,0,0.8-0.1,1-0.3c0.2-0.2,0.4-0.5,0.5-1c0.1-0.4,0.1-1.1,0.1-2v-8.6l-0.2-0.2c-0.2-0.2-0.4-0.4-0.6-0.5
				c-0.2-0.1-0.5-0.1-0.9-0.2c-0.1-0.3-0.1-0.7-0.1-1.2c0.5,0,1.1,0.1,2,0.1c0.7,0,1.3,0,1.8-0.1l7.9,10.5v-6.2c0-0.8,0-1.5-0.1-1.9
				c-0.1-0.4-0.2-0.7-0.5-0.9c-0.2-0.2-0.6-0.3-1-0.3c-0.1-0.4-0.1-0.8-0.1-1.2c0.6,0,1.4,0.1,2.3,0.1
				C588.9,345.5,589.6,345.4,590.2,345.4z"/>
			<path class="st8" d="M608.1,357.5c-0.2,0.7-0.5,1.3-1,1.8c-0.8,0.8-2,1.2-3.7,1.2c-1.4,0-2.5-0.2-3.3-0.6c-0.8-0.4-1.4-1-1.7-1.8
				c-0.3-0.8-0.5-1.8-0.5-3v-6.6c0-0.6,0-1-0.1-1.3c-0.1-0.3-0.2-0.5-0.4-0.6c-0.2-0.1-0.5-0.2-0.9-0.2c-0.1-0.3-0.1-0.7-0.1-1.2
				c0.6,0,1.5,0.1,2.7,0.1c1.4,0,2.4,0,3.1-0.1c0,0.5,0,0.9-0.1,1.2c-0.5,0-0.8,0.1-1,0.2c-0.2,0.1-0.3,0.3-0.4,0.6
				c-0.1,0.3-0.1,0.7-0.1,1.3v6.3c0,1.4,0.3,2.4,0.8,3.2c0.5,0.7,1.4,1.1,2.6,1.1c0.4,0,0.8-0.1,1.2-0.2c0.4-0.1,0.7-0.4,1-0.6
				c0.3-0.3,0.5-0.8,0.7-1.3c0.1-0.6,0.2-1.4,0.2-2.6v-5c0-0.7,0-1.3-0.1-1.7c-0.1-0.4-0.2-0.7-0.4-0.8c-0.2-0.2-0.5-0.3-0.9-0.3
				c-0.1-0.4-0.1-0.8-0.1-1.2c0.5,0,1.3,0.1,2.2,0.1c0.9,0,1.6,0,2.2-0.1c0,0.4,0,0.8-0.1,1.2c-0.4,0-0.6,0.2-0.8,0.3
				c-0.2,0.2-0.3,0.4-0.4,0.8c-0.1,0.4-0.1,0.9-0.1,1.6v5C608.3,355.7,608.3,356.8,608.1,357.5z"/>
			<path class="st8" d="M617.8,347.4c-0.1-0.3-0.2-0.5-0.4-0.6c-0.2-0.1-0.5-0.2-0.9-0.2c-0.1-0.3-0.1-0.7-0.1-1.2
				c0.8,0,1.8,0.1,3,0.1c1.1,0,2.1,0,3-0.1c0,0.2,0,0.4,0,0.6c0,0.2-0.1,0.4-0.1,0.5c-0.4,0-0.7,0.1-0.9,0.2
				c-0.2,0.1-0.4,0.3-0.4,0.6c-0.1,0.3-0.1,0.7-0.1,1.2v8.6c0,0.6,0,1,0.1,1.3c0.1,0.3,0.2,0.5,0.4,0.6c0.2,0.1,0.5,0.2,0.9,0.2
				c0.1,0.2,0.1,0.6,0.1,1.2c-0.8,0-1.8-0.1-2.9-0.1c-1.2,0-2.3,0-3.1,0.1c0-0.5,0-0.9,0.1-1.2c0.4,0,0.7-0.1,0.9-0.2
				c0.2-0.1,0.4-0.3,0.4-0.6c0.1-0.3,0.1-0.7,0.1-1.3v-8.6C618,348.1,617.9,347.7,617.8,347.4z"/>
			<path class="st8" d="M643.3,345.4c0,0.5,0,0.9-0.1,1.2c-0.4,0-0.6,0.1-0.8,0.3c-0.2,0.2-0.3,0.5-0.4,0.9
				c-0.1,0.4-0.1,1.1-0.1,1.9v10.7c-0.3,0.1-0.7,0.2-1.3,0.2l-8.7-11.4v7c0,0.9,0,1.5,0.1,2c0.1,0.4,0.2,0.8,0.5,1
				c0.2,0.2,0.6,0.3,1,0.3c0.1,0.3,0.1,0.7,0.1,1.2c-0.7,0-1.4-0.1-2.3-0.1c-1.1,0-1.9,0-2.4,0.1c0-0.5,0-0.9,0.1-1.2
				c0.4,0,0.8-0.1,1-0.3s0.4-0.5,0.5-1c0.1-0.4,0.1-1.1,0.1-2v-8.6l-0.2-0.2c-0.2-0.2-0.4-0.4-0.6-0.5c-0.2-0.1-0.5-0.1-0.9-0.2
				c-0.1-0.3-0.1-0.7-0.1-1.2c0.5,0,1.1,0.1,2,0.1c0.7,0,1.3,0,1.8-0.1l7.9,10.5v-6.2c0-0.8,0-1.5-0.1-1.9c-0.1-0.4-0.2-0.7-0.5-0.9
				c-0.2-0.2-0.6-0.3-1-0.3c-0.1-0.4-0.1-0.8-0.1-1.2c0.6,0,1.4,0.1,2.3,0.1C642,345.5,642.8,345.4,643.3,345.4z"/>
			<path class="st8" d="M661.6,356.9c-0.3,1-0.6,2.2-0.7,3.5c-1.3,0-3,0-5,0c-2.9,0-4.9,0-6,0.1c0-0.5,0-0.9,0.1-1.2
				c0.4,0,0.7-0.1,0.9-0.2c0.2-0.1,0.4-0.3,0.4-0.6c0.1-0.3,0.1-0.8,0.1-1.4v-8.4c0-0.5,0-1-0.1-1.2c-0.1-0.3-0.2-0.5-0.5-0.6
				c-0.2-0.1-0.5-0.2-0.9-0.2c-0.1-0.3-0.1-0.7-0.1-1.2c1,0,2.4,0.1,4.3,0.1c2.4,0,4.4,0,6.1-0.1c0.1,1.7,0.3,2.9,0.5,3.6
				c-0.3,0.2-0.8,0.3-1.3,0.3c-0.1-0.8-0.4-1.5-0.9-2c-0.5-0.5-1.4-0.7-2.6-0.7h-1.8v5.7h1c0.9,0,1.4-0.1,1.8-0.4
				c0.3-0.2,0.5-0.7,0.5-1.4c0.4-0.1,0.8-0.2,1.3-0.2c0,0.7-0.1,1.5-0.1,2.4c0,1,0,1.8,0.1,2.6c-0.5,0-1,0-1.3-0.1
				c-0.1-0.7-0.2-1.2-0.6-1.5c-0.3-0.2-0.9-0.4-1.7-0.4h-1v3.5c0,0.6,0.1,1.1,0.2,1.4c0.1,0.3,0.3,0.5,0.6,0.6
				c0.3,0.1,0.7,0.2,1.2,0.2h0.2c0.9,0,1.5-0.1,2-0.3c0.5-0.2,0.9-0.5,1.1-0.9c0.3-0.4,0.5-0.9,0.7-1.7
				C660.8,356.5,661.3,356.7,661.6,356.9z"/>
		</g>
	</g>
	<g class="st0">
		<g class="st3">
			<g>
				<polygon class="st4" points="-47.8,109.7 -53.1,103 -54.3,101.5 -53.1,100.1 -47.8,93.3 -53.1,86.6 -54.3,85.2 -53.1,83.7 
					-47.8,77 -53.1,70.4 -54.3,68.9 -53.1,67.4 -49.6,63.1 -64.5,63.1 -76.3,63.1 -76.3,98.1 -76.3,102 -106.1,123.6 -49.6,123.6 
					-53.1,119.2 -54.3,117.8 -53.1,116.3 				"/>
				<polygon class="st4" points="-78.7,32.7 -357.7,32.7 -357.7,98.1 -109.4,98.1 -78.7,98.1 				"/>
				<polygon class="st4" points="-329.6,120.8 -329.6,100.7 -357.3,100.7 				"/>
				<polygon class="st4" points="-106.7,100.7 -106.7,120.8 -79.1,100.7 				"/>
				<polygon class="st4" points="-360,98.1 -360,98.1 -360,63.1 -375.9,63.1 -386.8,63.1 -383.3,67.4 -382.1,68.9 -383.3,70.4 
					-388.6,77 -383.3,83.7 -382.1,85.2 -383.3,86.6 -388.6,93.3 -383.3,100.1 -382.1,101.5 -383.3,103 -388.6,109.7 -383.3,116.3 
					-382.1,117.8 -383.3,119.2 -386.8,123.6 -330.3,123.6 -360,102 				"/>
			</g>
		</g>
		<g class="st3">
			<path class="st8" d="M-329.1,74.4c-1.4-0.8-2.5-1.9-3.3-3.4c-0.8-1.5-1.2-3.2-1.2-5.2c0-1.8,0.4-3.5,1.1-5.1
				c0.7-1.6,1.8-2.9,3.3-3.9c1.5-1,3.2-1.5,5.3-1.5c1,0,2,0.1,3,0.4c1,0.3,1.9,0.6,2.7,1.1l-0.1-1.3h1.5v6.3h-1
				c-0.1-1.7-0.7-3-1.8-4c-1.1-1-2.5-1.4-4.1-1.4c-1.3,0-2.5,0.4-3.6,1.1c-1.1,0.8-1.9,1.8-2.6,3.1c-0.6,1.3-1,2.8-1,4.5
				c0,1.7,0.3,3.3,0.9,4.7c0.6,1.4,1.5,2.4,2.6,3.2c1.1,0.8,2.4,1.2,3.9,1.2c0.8,0,1.6-0.1,2.5-0.3c0.8-0.2,1.6-0.6,2.3-1v-6.1
				l-1.9,0.1v-1.2h6.3v0.9c-0.9,0-1.4,0.3-1.7,1c-0.2,0.7-0.3,1.4-0.3,2.3v4.2h-0.7c-0.8,0-1.8,0.2-3,0.7c-0.6,0.2-1.2,0.4-2,0.5
				c-0.8,0.1-1.4,0.2-2.1,0.2C-326.1,75.6-327.7,75.2-329.1,74.4z"/>
			<path class="st8" d="M-303,74.6c-1.1-0.7-1.9-1.8-2.4-3.2c-0.5-1.4-0.7-3.3-0.7-5.7v-5.6c0-1.2,0-2.3,0.1-3.2l-2,0.1v-1.2h6.2
				v0.9c-0.8,0-1.3,0.2-1.6,0.6c-0.2,0.4-0.3,0.9-0.3,1.6v7c0,1.6,0.1,3,0.4,4.2c0.3,1.2,0.8,2.1,1.7,2.9c0.8,0.7,2,1.1,3.6,1.1
				c1.9,0,3.3-0.7,4.3-2c0.9-1.3,1.4-3.1,1.5-5.4l0.1-7.8c0-0.8,0-1.4,0.1-2l-2,0.1v-1.2h5.2v0.9c-0.7,0-1.1,0.2-1.4,0.4
				c-0.3,0.3-0.4,0.6-0.5,1c0,0.4-0.1,1-0.1,2l-0.1,6.4c0,2.7-0.6,4.9-1.8,6.6c-1.2,1.7-3.1,2.5-5.7,2.5
				C-300.3,75.6-301.8,75.2-303,74.6z"/>
			<path class="st8" d="M-283.9,74.2c0.5,0,0.8-0.1,1.1-0.3c0.3-0.2,0.5-0.5,0.7-0.8s0.4-0.9,0.6-1.5l0.3-0.8l5.7-15.5h0.7l6.2,15.8
				c0.2,0.5,0.4,1,0.5,1.6c0.1,0.6,0.2,1.1,0.2,1.4l1.9-0.1v1.2h-6.3v-0.9c1.1,0,1.6-0.5,1.6-1.3c0-0.4-0.1-0.8-0.3-1.3l-1-2.6
				l-7.2,0.2c-0.3,0.8-0.6,1.7-1,3c-0.2,0.6-0.4,1.2-0.7,1.9l2.2-0.1v1.2h-5.2V74.2z M-272.4,68l-2-5.3l-1.2-3.4h-0.1l-1.2,3.1
				l-1.5,4.2l-0.5,1.4H-272.4z"/>
			<path class="st8" d="M-259.9,74.2c0.6,0,1.1-0.2,1.4-0.4c0.3-0.3,0.4-0.6,0.5-1s0.1-1,0.1-2v-12c0-0.8,0-1.4,0.1-2l-2,0.1v-1.2
				c1.9,0,3.4-0.1,4.3-0.1c0.9,0,1.6,0,2,0c2.6,0,4.5,0.5,5.7,1.3c1.2,0.8,1.8,2.1,1.8,3.6c0,1.3-0.4,2.4-1.1,3.4
				c-0.8,1-2.1,1.7-4,2.1c0.3,0.2,0.6,0.5,0.9,0.9c0.3,0.3,0.6,0.8,1.1,1.6l1.9,3c0.4,0.6,0.7,1.1,1,1.5c0.3,0.3,0.6,0.6,1,0.8
				c0.4,0.2,0.8,0.3,1.4,0.3v0.9h-3.5c-0.5-0.4-0.9-0.9-1.3-1.3c-0.3-0.5-0.7-1-1.2-1.8l-1.9-3l-0.4-0.6c-0.3-0.5-0.6-0.9-0.8-1.2
				c-0.2-0.3-0.5-0.6-0.7-0.8c-0.2,0-0.4,0-0.8,0c-0.5,0-0.9,0-1.1,0v5.4c0,1,0,1.7-0.1,2.2l2-0.1v1.2h-6.2V74.2z M-248.7,61
				c0-1.4-0.4-2.5-1.2-3.2c-0.8-0.7-2.1-1.1-3.7-1.1c-0.6,0-1.1,0.1-1.4,0.4c-0.3,0.3-0.4,0.6-0.5,0.9c0,0.4-0.1,1-0.1,2v5.3
				c0.6,0,1,0.1,1.2,0.1C-250.6,65.5-248.7,64-248.7,61z"/>
			<path class="st8" d="M-237.8,74.2c0.5,0,0.8-0.1,1.1-0.3c0.3-0.2,0.5-0.5,0.7-0.8s0.4-0.9,0.6-1.5l0.3-0.8l5.7-15.5h0.7l6.2,15.8
				c0.2,0.5,0.4,1,0.5,1.6c0.1,0.6,0.2,1.1,0.2,1.4l1.9-0.1v1.2h-6.3v-0.9c1.1,0,1.6-0.5,1.6-1.3c0-0.4-0.1-0.8-0.3-1.3l-1-2.6
				l-7.2,0.2c-0.3,0.8-0.6,1.7-1,3c-0.2,0.6-0.4,1.2-0.7,1.9l2.2-0.1v1.2h-5.2V74.2z M-226.3,68l-2-5.3l-1.2-3.4h-0.1l-1.2,3.1
				l-1.5,4.2l-0.5,1.4H-226.3z"/>
			<path class="st8" d="M-210.7,59.4L-210.7,59.4l0.1,11.9c0,1.2,0,2.2-0.1,2.7l2-0.1v1.2h-5.1v-0.9c0.7,0,1.2-0.2,1.5-0.6
				c0.2-0.4,0.4-0.9,0.4-1.6l0-15.2l-1.9,0.1v-1.2h3.3l11.8,15.8h0l0-12.7c0-0.8,0-1.4,0.1-2l-2,0.1v-1.2h5.1v0.9
				c-0.6,0-1,0.1-1.2,0.3c-0.3,0.2-0.4,0.5-0.5,0.8c-0.1,0.3-0.1,0.8-0.1,1.3v1l-0.1,15.5h-1.3L-210.7,59.4z"/>
			<path class="st8" d="M-183.5,74.2c0.8,0,1.3-0.3,1.5-0.7c0.2-0.4,0.3-1,0.3-1.9v-0.9l0-14l-2.9,0c-1.1,0-2,0.4-2.5,1.1
				c-0.5,0.8-0.7,2-0.7,3.6h-1l0.2-5.8h16.1l0.2,5.8h-1.1c0-1.2-0.1-2.1-0.3-2.8c-0.2-0.7-0.6-1.2-1.1-1.6c-0.5-0.3-1.2-0.5-2.2-0.5
				h-2.4l0,15.1c0,1,0,1.7-0.1,2.2l2.3-0.1v1.2h-6.5V74.2z"/>
			<path class="st8" d="M-165,74.2c0.6,0,1.1-0.2,1.4-0.4s0.4-0.6,0.5-1c0-0.4,0.1-1,0.1-2v-12c0-0.8,0-1.4,0.1-2l-2,0.1v-1.2h13.3
				l0.1,4.8h-0.9c0-1.5-0.3-2.5-1-3.1c-0.7-0.6-1.6-0.8-2.8-0.8l-2.4,0.1c-0.7,0-1.1,0.1-1.4,0.4c-0.3,0.2-0.5,0.6-0.6,1
				c-0.1,0.4-0.1,1.1-0.1,2v4.4l5.2,0l-0.2-2.4h1.2V68h-0.9c0-0.7-0.1-1.2-0.2-1.6c-0.2-0.4-0.4-0.6-0.8-0.7
				c-0.3-0.1-0.8-0.2-1.4-0.2l-0.9,0l-2,0.1V72c0,1,0,1.7-0.1,2.2l5.3-0.1c1.3,0,2.3-0.3,3-1c0.7-0.6,1-1.7,1-3.3h0.9l-0.2,5.4H-165
				V74.2z"/>
			<path class="st8" d="M-142.8,74.2c0.6,0,1.1-0.2,1.4-0.4s0.4-0.6,0.5-1c0-0.4,0.1-1,0.1-2v-12c0-0.8,0-1.4,0.1-2l-2,0.1v-1.2
				h13.3l0.1,4.8h-0.9c0-1.5-0.3-2.5-1-3.1c-0.7-0.6-1.6-0.8-2.8-0.8l-2.4,0.1c-0.7,0-1.1,0.1-1.4,0.4c-0.3,0.2-0.5,0.6-0.6,1
				c-0.1,0.4-0.1,1.1-0.1,2v4.4l5.2,0l-0.2-2.4h1.2V68h-0.9c0-0.7-0.1-1.2-0.2-1.6c-0.2-0.4-0.4-0.6-0.8-0.7
				c-0.3-0.1-0.8-0.2-1.4-0.2l-0.9,0l-2,0.1V72c0,1,0,1.7-0.1,2.2l5.3-0.1c1.3,0,2.3-0.3,3-1c0.7-0.6,1-1.7,1-3.3h0.9l-0.2,5.4
				h-14.3V74.2z"/>
			<path class="st8" d="M-120.6,74.2c0.6,0,1.1-0.2,1.4-0.4c0.3-0.3,0.4-0.6,0.5-1c0-0.4,0.1-1,0.1-2v-12c0-0.8,0-1.4,0.1-2l-2,0.1
				v-1.2l6.5,0c3.5,0,6.2,0.8,8.3,2.4c2,1.6,3,4.1,3,7.3c0,1.7-0.4,3.3-1.2,4.8c-0.8,1.5-2,2.7-3.6,3.5c-1.6,0.9-3.5,1.3-5.7,1.3
				h-7.3V74.2z M-109.3,73c1.2-0.8,2.1-1.8,2.8-3.1c0.7-1.3,1-2.8,1-4.5c0-2.7-0.7-4.8-2.2-6.3c-1.5-1.5-3.7-2.3-6.7-2.3
				c-0.6,0-1.1,0.1-1.4,0.4c-0.3,0.3-0.4,0.6-0.5,1c0,0.4-0.1,1-0.1,2v11.8c0,1,0,1.7-0.1,2.2c0.6,0,1.6,0.1,3,0.1
				C-111.8,74.1-110.5,73.7-109.3,73z"/>
		</g>
	</g>
	<g class="st0">
		<g class="st3">
			<path class="st4" d="M394.6,185.2c0,0,3.3,18,9.8,26.9c-21.4-10.4-40.3-25-55.8-42.7l42.5-6.3l6.6-34.9
				c9.4,10.5,20.7,19.2,33.4,25.6L394.6,185.2z"/>
			<path class="st4" d="M706.7,169.5c-15.5,17.7-34.5,32.2-55.9,42.7c6.5-8.9,9.8-26.9,9.8-26.9l-36.6-31.4
				c12.7-6.4,24-15.1,33.4-25.6l6.7,34.9L706.7,169.5z"/>
			<path class="st4" d="M657.2,185.5l-34.7-29.8l-10.2-8.8c-21.8,23.8-52.5,37.5-84.6,37.7c-32.2-0.2-62.9-13.9-84.6-37.7l-10.2,8.8
				L398,185.5c5.3,6,11.1,11.6,17.3,16.8c31.3,26.6,71.2,41.3,112.3,41.4c41.1-0.2,81-14.9,112.3-41.4
				C646,197.1,651.8,191.5,657.2,185.5z"/>
		</g>
		<g class="st3">
			<path class="st8" d="M441,180.2c0.3-1.5,0.6-2.6,1-3.1l-1.5-0.9l1.4-2.1l8,5.3l-1.2,1.8c-1.2-0.8-2-0.9-2.5-0.1
				c-0.2,0.3-0.3,0.7-0.4,1.1l-1.6,7.8c-0.1,0.6-0.3,1.5-0.5,2.5c-0.1,0.4-0.3,1.1-0.5,2.4l0,0l3.8-2.9l5.8-4.3
				c1.2-1,2.1-1.5,2.8-1.7l0,0l-1.5-0.9l-0.7-0.4l1.4-2.1l6.1,4.1l-1.2,1.8c-0.7-0.4-1.4-0.5-2.1-0.4c-0.7,0.1-1.6,0.6-2.7,1.3
				l-15,10.8l-2.2-1.5L441,180.2z"/>
			<path class="st8" d="M458.8,208.6c0.5,0.2,1,0.3,1.3,0.3c0.3,0,0.6-0.1,1-0.4c0.3-0.3,0.6-0.8,1-1.6l5-11.4
				c0.5-1.1,0.9-2,1.3-2.6l-2.3-0.9l1-2.3l8.5,3.8l-0.9,2c-0.5-0.2-1-0.3-1.3-0.3c-0.3,0-0.6,0.1-1,0.4c-0.3,0.3-0.6,0.8-1,1.6
				l-5,11.4c-0.5,1.1-0.9,2-1.3,2.6c0.7,0.2,1.4,0.5,2.3,0.9l-1,2.3l-8.5-3.8L458.8,208.6z"/>
			<path class="st8" d="M488.1,207.9c-0.4-0.8-0.8-1.7-1.2-2.8l0,0l-2.3,9.8c-0.3,1.2-0.6,2.1-0.8,2.8c0.7,0.1,1.5,0.3,2.4,0.5
				l-0.6,2.4l-7.2-1.7l0.5-2.1c0.6,0.1,1,0.2,1.3,0.1c0.3,0,0.6-0.2,0.9-0.6c0.3-0.3,0.5-0.9,0.7-1.7l2.8-12.1
				c0.3-1.4,0.6-2.4,0.8-2.8l-2.4-0.5l0.6-2.4l5,1.2l6.7,14.5c0.6,1.4,1.1,2.6,1.5,3.5l0,0l2.4-10c0.3-1.4,0.6-2.3,0.8-2.8l-2.4-0.5
				l0.6-2.4l7.2,1.7l-0.5,2.1c-0.6-0.1-1-0.2-1.3-0.1c-0.3,0-0.6,0.2-0.9,0.6c-0.3,0.3-0.5,0.9-0.7,1.7l-4.2,17.6l-2.7-0.6
				L488.1,207.9z"/>
			<path class="st8" d="M517,223.5c0.6,0,1-0.1,1.3-0.2c0.3-0.1,0.6-0.4,0.7-0.7c0.2-0.4,0.3-1,0.3-1.8l0.4-15.6l-1.5,0
				c-1.3,0-2.3,0.4-3,1.2c-0.7,0.8-1.1,2.1-1.1,3.8l-2.1-0.1l0.4-7.3l19.7,0.5v7.3l-2.1-0.1c0-1.7-0.3-3-1-3.9
				c-0.7-0.9-1.6-1.3-2.9-1.4l-1.6,0l-0.4,15.2c0,1.5-0.1,2.4-0.2,2.9c0.7,0,1.6-0.1,2.6,0l-0.1,2.5l-9.5-0.3L517,223.5z"/>
			<path class="st8" d="M539.9,223.2c0.6-0.1,1-0.3,1.3-0.7c0.3-0.4,0.5-0.8,0.7-1.3c0.1-0.5,0.3-1.2,0.5-2.1l3.4-18.2l2.2-0.4
				l9.8,16.3c0.2,0.4,0.5,0.9,0.8,1.5c0.3,0.6,0.5,1.1,0.6,1.5c0.7-0.2,1.3-0.3,1.8-0.4l0.4,2.5l-8.6,1.5l-0.4-2.1
				c1-0.2,1.5-0.7,1.3-1.5c-0.1-0.4-0.3-0.9-0.6-1.5l-0.9-1.7l-6.9,1.3l-0.3,1.6c0,0.2-0.1,0.6-0.2,1.2c-0.1,0.6-0.2,1.2-0.3,1.5
				c0.7-0.2,1.4-0.3,2.3-0.5l0.4,2.6l-6.9,1.2L539.9,223.2z M551.1,214.4l-2.2-3.8c-0.9-1.6-1.6-3-2-4.2l0,0
				c-0.1,1.6-0.2,3.1-0.5,4.4l-0.7,4.4L551.1,214.4z"/>
			<path class="st8" d="M576,216.3c-1.9-0.3-3.6-1.2-5.1-2.5c-1.5-1.3-2.6-3-3.4-5c-0.8-1.9-1.1-3.9-1-6c0.1-2.1,0.7-3.9,1.9-5.7
				c1.2-1.7,2.9-3,5.1-3.9c0.9-0.3,1.9-0.6,3.1-0.8c1.2-0.2,2.3-0.2,3.2,0l0,0l-0.6-1.2l2.3-0.9l2.8,7.1l-2,0.8
				c-0.9-1.5-2-2.5-3.4-3c-1.3-0.5-2.8-0.4-4.2,0.1c-1.3,0.5-2.3,1.4-2.9,2.5c-0.6,1.2-0.9,2.5-0.8,4c0.1,1.5,0.4,3,1,4.5
				c1.1,2.7,2.5,4.6,4.2,5.9c1.8,1.2,3.6,1.4,5.6,0.7c0.6-0.3,1.4-0.6,2.1-1.1s1.4-0.9,1.8-1.4l-1.1-2.8c-0.4-1.1-0.8-2.1-0.9-2.8
				c-0.5,0.2-1,0.5-1.5,0.6l-0.8,0.3l-0.9-2.3l8.1-3.2l0.8,2c-0.5,0.2-0.9,0.4-1.1,0.7c-0.2,0.2-0.3,0.6-0.3,1c0,0.4,0.2,1,0.4,1.8
				l1.9,4.8l-0.7,0.3c-0.5,0.2-0.9,0.4-1.3,0.7c-0.4,0.3-0.9,0.7-1.6,1.2c-0.9,0.7-1.7,1.3-2.4,1.7c-0.7,0.4-1.4,0.8-2.3,1.2
				C580,216.4,578,216.6,576,216.3z"/>
			<path class="st8" d="M602.2,203.2c0.5-0.3,0.8-0.6,1-0.9c0.2-0.3,0.2-0.6,0.2-1c-0.1-0.4-0.3-1-0.8-1.7l-6.8-10.4
				c-0.7-1-1.2-1.9-1.5-2.5l-2,1.4l-1.4-2.1l13.6-8.9l3.6,5.2l-1.8,1.2c-0.9-1.3-1.8-2.1-2.8-2.2c-1-0.1-1.9,0.2-2.8,0.8l-1,0.7
				c-0.4,0.3-0.7,0.6-0.9,0.9c-0.2,0.3-0.2,0.6-0.1,1c0.1,0.4,0.4,1,0.8,1.7l2.7,4.1l3.2-2.1c-0.2-0.3-0.8-1.1-1.7-2.3l2.1-1.4
				l4.3,6.6l-1.8,1.2c-0.5-0.7-0.9-1.2-1.4-1.4c-0.5-0.2-0.9-0.2-1.3-0.1c-0.4,0.1-0.9,0.4-1.5,0.8l-0.7,0.5l2.9,4.5
				c0.6,1,1.1,1.8,1.5,2.5l3.6-2.4c0.9-0.6,1.5-1.4,1.7-2.5c0.2-1-0.1-2.3-1-3.6l1.8-1.2l3.8,6.1l-14.4,9.4L602.2,203.2z"/>
		</g>
	</g>
	<g class="st0">
		<path class="st5" d="M-210.8-83.1c-0.1,0.4-0.2,0.8-0.3,1.2c0,0,0,0,0,0c-0.3,1.5-0.2,3.1,0.2,4.6c0.1,0.2,0.1,0.4,0.2,0.6
			c0.1,0.2,0.1,0.4,0.2,0.5c0.1,0.3,0.2,0.5,0.3,0.8c0.1,0.2,0.2,0.4,0.3,0.6c0.1,0.1,0.1,0.2,0.2,0.3c0.2,0.4,0.4,0.7,0.6,1.1
			l12,19c1.9,0,3.8,0,5.7,0c0-2.8,0-5.6,0-8.4c0-6.6,0-13.2,0-19.8c0-2.1,0-4.2,0-6.2c-4-3.4-9-4-13.7-1.2c-2.6,1.5-4.7,4-5.6,6.8
			L-210.8-83.1z"/>
		<path class="st5" d="M-212.2-60.3l-0.1-0.2c-1.9-3-4.1-6-5.7-9.1c-0.1-0.1-0.1-0.3-0.2-0.4c0,0,0,0,0-0.1c-0.5-1-1-2.1-1.4-3.2
			c0-0.1-0.1-0.1-0.1-0.2c-0.1-0.2-0.1-0.5-0.2-0.7c-0.1-0.2-0.1-0.4-0.2-0.7c-0.1-0.4-0.2-0.8-0.3-1.2c0-0.2-0.1-0.4-0.1-0.6
			c-0.1-0.3-0.1-0.6-0.1-1c0-0.4-0.1-0.8-0.1-1.1c0-0.1,0-0.2,0-0.4c0-0.7,0-1.5,0-2.2c-4.2-0.6-8.4,1.5-10.8,4.2
			c-1.4,1.5-5.5,7.1-1,14.2l5.4,8.5h18.7C-209.8-56.4-211-58.4-212.2-60.3z"/>
		<path class="st5" d="M-182-54.4c1.9,0,3.8,0,5.7,0l11.9-18.8c3.6-5.9,2.2-12.8-3.5-16.5c-4.7-3-9.9-2.6-14.2,0.9
			C-182-77.4-182-65.9-182-54.4z"/>
		<path class="st5" d="M-152.8-81.3c0.3,4.3-0.8,8.6-3.3,12.6c0,0.1-0.1,0.2-0.1,0.2c0,0,0,0.1-0.1,0.1c0,0,0,0,0,0.1l-8.8,13.9
			h18.7l5.4-8.5c4.5-7.1,0.4-12.7-1-14.2C-144.4-79.8-148.5-81.9-152.8-81.3z"/>
		<rect x="-232.6" y="-39.1" class="st2" width="91.7" height="10.8"/>
		<path class="st2" d="M-135-83.5c-5.4-6-13.5-8.5-20.8-6.9c-1.5-2.6-3.5-4.9-6.1-6.8c-7.5-5.6-17.5-5.4-24.9-0.1
			c-6.7-4.8-15.4-5.5-22.9-1.2c-3.4,1.9-6.2,4.8-8.1,8.1c-7.3-1.6-15.3,0.9-20.8,6.9c-6.6,7.3-7.4,17.1-2,25.6l8.2,12.9h33.1
			c1.5,0.1,3.1,0,4.6,0c2.7,0,5.3,0,8,0c3.7,0,7.4,0,11,0c0,0,0,0,0,0h34.6l8.2-12.9l0,0C-127.6-66.3-128.3-76.2-135-83.5z
			 M-167.9-89.8c5.7,3.7,7.1,10.6,3.5,16.5l-11.9,18.8c-1.9,0-3.8,0-5.7,0c0-11.5,0-22.9,0-34.4C-177.8-92.4-172.6-92.8-167.9-89.8z
			 M-205.2-90.1c4.6-2.7,9.6-2.2,13.7,1.2c0,2.1,0,4.2,0,6.2c0,6.6,0,13.2,0,19.8c0,2.8,0,5.6,0,8.4c-1.9,0-3.8,0-5.7,0l-12-19
			c-0.2-0.4-0.4-0.7-0.6-1.1c-0.1-0.1-0.1-0.2-0.2-0.3c-0.1-0.2-0.2-0.4-0.3-0.6c-0.1-0.3-0.2-0.5-0.3-0.8c-0.1-0.2-0.1-0.4-0.2-0.5
			c-0.1-0.2-0.1-0.4-0.2-0.6c-0.4-1.6-0.5-3.1-0.2-4.6c0,0,0,0,0,0c0.1-0.4,0.2-0.8,0.3-1.2l0.1-0.2
			C-209.8-86.1-207.8-88.6-205.2-90.1z M-232.6-62.9c-4.5-7.1-0.4-12.7,1-14.2c2.4-2.7,6.6-4.8,10.8-4.2c0,0.7,0,1.5,0,2.2
			c0,0.1,0,0.2,0,0.4c0,0.4,0.1,0.8,0.1,1.1c0,0.3,0.1,0.7,0.1,1c0,0.2,0.1,0.4,0.1,0.6c0.1,0.4,0.2,0.8,0.3,1.2
			c0.1,0.2,0.1,0.4,0.2,0.7c0.1,0.2,0.1,0.5,0.2,0.7c0,0.1,0.1,0.1,0.1,0.2c0.4,1.1,0.8,2.1,1.4,3.2c0,0,0,0,0,0.1
			c0.1,0.1,0.1,0.3,0.2,0.4c1.7,3.2,3.8,6.1,5.7,9.1l0.1,0.2c1.2,1.9,2.4,3.9,3.6,5.9h-18.7L-232.6-62.9z M-141-62.9l-5.4,8.5h-18.7
			l8.8-13.9c0,0,0,0,0-0.1c0,0,0-0.1,0.1-0.1c0-0.1,0.1-0.2,0.1-0.2c2.4-4,3.5-8.3,3.3-12.6c4.2-0.6,8.4,1.5,10.8,4.2
			C-140.6-75.6-136.4-70-141-62.9z"/>
		
			<rect x="-193.8" y="-121.7" transform="matrix(0.7071 -0.7071 0.7071 0.7071 26.3705 -165.6437)" class="st2" width="14.1" height="14.1"/>
	</g>
	<path class="st6" d="M706.7,2.7l-37.3,74.8C652,66.1,627.8,59,601,59c-26.8,0-51,7.1-68.4,18.4L495.3,2.7l42.4,10.8
		c2.1,11.3,10.9,19.8,21.5,19.8c12.1,0,21.9-11.1,21.9-24.9c0-6-1.9-11.5-5-15.8l0,0L601-35.7l24.9,28.3l0,0c-3.1,4.3-5,9.8-5,15.8
		c0,13.7,9.8,24.9,21.9,24.9c10.6,0,19.4-8.5,21.5-19.8L706.7,2.7z"/>
	<g class="st0">
		<g class="st3">
			<path class="st4" d="M378.6-255.9l-12.4,33.1v0.1c-1.9-1.2-3.8-2.4-5.9-3.5c-3.9-2.1-8-4-12.4-5.6c-1.5-0.6-3-1.1-4.6-1.6
				c-1.2-0.4-2.4-0.8-3.7-1.1c-2.6-0.8-5.3-1.4-8.1-2c-1.9-0.4-3.9-0.7-5.9-1c-1.3-0.2-2.6-0.4-3.9-0.5c-1.7-0.2-3.4-0.4-5.2-0.5
				c-3.1-0.3-6.3-0.4-9.5-0.4c-4.8,0-9.5,0.3-14,0.8c-1.8,0.2-3.5,0.4-5.3,0.7c-3.1,0.4-6.1,1-9,1.8c-1.3,0.3-2.5,0.6-3.8,0.9
				c-1.5,0.4-2.9,0.8-4.4,1.3c-2,0.6-3.8,1.3-5.7,2c-1.7,0.6-3.3,1.3-4.8,2c-1.1,0.5-2.2,1-3.3,1.5c-3,1.5-5.9,3.1-8.5,4.8
				c-0.2,0.1-0.3,0.2-0.5,0.3c0,0.1-0.1,0.1-0.1,0.1l-12.3-33.1h0.1c5,2.8,9.8,3.6,14.2,2c9.9-3.6,14.6-18.4,13-36.8
				c0-0.1-0.1-0.1,0-0.1c-0.1-0.9-0.2-1.8-0.4-2.6c4.7,10.8,11.5,17.6,19.1,17.6h0.5c0.3,0,0.5,0,0.8-0.1
				c11.5-0.7,21.2-16.8,24.3-38.6c3,21.8,12.7,37.9,24.3,38.6c0.3,0.1,0.5,0.1,0.8,0.1h0.5c7.5,0,14.3-6.8,19-17.6
				c-0.2,0.9-0.3,1.8-0.4,2.6c0.1,0.1,0,0.1,0,0.1c-1.5,18.4,3.1,33.2,13,36.8C368.7-252.3,373.6-253.1,378.6-255.9z"/>
		</g>
		<path class="st2" d="M365.2-219.9l-2.8,7.5c-14.3-9.7-35.5-15.5-55.3-15.5c-19.9,0-41,5.8-55.3,15.4L249-220
			c2.4-1.6,5.1-3.1,7.9-4.4c1.1-0.5,2.2-1.1,3.3-1.6c1.5-0.7,3.1-1.4,4.8-1.9c1.9-0.7,3.7-1.5,5.7-2.1c1.4-0.4,2.9-0.8,4.4-1.3
			c1.2-0.3,2.5-0.7,3.8-0.9c2.9-0.7,5.9-1.4,9-1.8c1.8-0.3,3.5-0.5,5.3-0.7c4.5-0.4,9.2-0.7,14-0.7c3.2,0,6.4,0.1,9.5,0.4
			c1.8,0.1,3.5,0.2,5.2,0.4c1.3,0.1,2.6,0.3,3.9,0.5c2,0.2,4,0.6,5.9,0.9c2.8,0.7,5.5,1.3,8.1,2c1.3,0.3,2.5,0.7,3.7,1
			c1.5,0.5,3,1,4.6,1.6c4.4,1.6,8.5,3.6,12.4,5.6C362-221.9,363.7-221,365.2-219.9z"/>
		<path class="st2" d="M365.2-219.9l-2.8,7.5c-14.3-9.7-35.5-15.5-55.3-15.5c-19.9,0-41,5.8-55.3,15.4L249-220
			c2.4-1.6,5.1-3.1,7.9-4.4c1.1-0.5,2.2-1.1,3.3-1.6c1.5-0.7,3.1-1.4,4.8-1.9c1.9-0.7,3.7-1.5,5.7-2.1c1.4-0.4,2.9-0.8,4.4-1.3
			c1.2-0.3,2.5-0.7,3.8-0.9c2.9-0.7,5.9-1.4,9-1.8c1.8-0.3,3.5-0.5,5.3-0.7c4.5-0.4,9.2-0.7,14-0.7c3.2,0,6.4,0.1,9.5,0.4
			c1.8,0.1,3.5,0.2,5.2,0.4c1.3,0.1,2.6,0.3,3.9,0.5c2,0.2,4,0.6,5.9,0.9c2.8,0.7,5.5,1.3,8.1,2c1.3,0.3,2.5,0.7,3.7,1
			c1.5,0.5,3,1,4.6,1.6c4.4,1.6,8.5,3.6,12.4,5.6C362-221.9,363.7-221,365.2-219.9z"/>
	</g>
	<g class="st0">
		<g class="st3">
			<path class="st4" d="M384,362c-10.4,8-23,0.7-30.4-5.1c-7.7-6.1-16.8-9.8-26.2-10.1c-33.8-1.2-37.7,37.2-37.7,37.2
				s21.6-36.3,47.1-23.7c0,0,17.8,7.8,20.9,31c0,0,5.6-11-1.3-21.5C362.9,372.9,373.6,375.8,384,362z"/>
			<path class="st4" d="M180.8,362c10.4,8,23,0.7,30.4-5.1c7.7-6.1,16.8-9.8,26.2-10.1c33.8-1.2,37.7,37.2,37.7,37.2
				s-21.6-36.3-47.1-23.7c0,0-17.8,7.8-20.9,31c0,0-5.6-11,1.3-21.5C201.8,372.9,191.1,375.8,180.8,362z"/>
		</g>
		<path class="st2" d="M314,338.6c-11.9-2.3-22.8,12.5-29.5,24.4c-0.8,1.4-1.5,2.8-2.2,4.1c-0.6-1.3-1.4-2.7-2.2-4.1
			c-6.7-11.9-17.5-26.8-29.5-24.5c9.3-14.5,23.8-7,31.7,16.7C290.2,331.6,304.7,324.1,314,338.6z"/>
		<path class="st2" d="M277.7,324.3c-1.4-7.2,4.6-17,4.6-17s6,9.8,4.6,17C286,329.7,278.8,329.7,277.7,324.3z"/>
	</g>
	<g class="st0">
		<path class="st5" d="M-354.5,286.6c-5.2-4.8-10.4-9.9-15.4-15.2c-2,0.5-3.8,2-5.4,4.3c-1.6,2.3-2.3,5-2.3,7.9
			c0,2.9,0.5,5.5,1.3,7.8c0.9,2.3,2.1,4.3,3.7,6.1c1.5,1.8,3.3,3.4,5.4,4.9c2,1.5,4.2,2.7,6.5,3.6c4.8,2,9.5,3,14,3
			c6.4,0,11.3-1.2,14.8-3.6c0.2-0.2,0.4-0.2,0.4-0.2l-10.2-7.5C-345,295.1-349.2,291.5-354.5,286.6z"/>
		<path class="st2" d="M-297,306c-0.4,0-0.9,0.1-1.6,0.3c-3.9,1.3-7.8,1.3-11.6,0c-0.7-0.2-1.6-0.7-2.7-1.3
			c-1.1-0.6-1.9-1.1-2.3-1.3c-0.4-0.3-1.3-0.8-2.6-1.7c-1.3-0.9-2.1-1.5-2.4-1.7l0.9-1.4c1.4-2.1,3-5.2,4.7-9.3
			c0.8-2,1.5-4.2,2.1-6.8c0.6-2.5,0.9-5.6,0.9-9.2c0-3.6-0.3-6.2-0.8-7.8c-0.2-0.6-0.4-1.1-0.5-1.5c-0.1-0.2-0.2-0.4-0.2-0.6h-6.5
			c1.5,1.8,2.2,5.7,2.2,11.6c0,7.8-2.4,15.1-7.1,22l-3.2-2.5c-0.1-0.1-0.9-0.7-2.3-1.8c-1.4-1.1-2.5-2-3.4-2.6
			c-0.9-0.7-2.1-1.7-3.8-3.1c-1.7-1.4-3.5-3-5.6-4.8c-2-1.8-4.2-3.8-6.4-5.8c-2.2-2.1-3.9-3.6-4.9-4.6c-1.1-1-3.2-3-6.3-5.9
			c-3.1-3-5.8-6-8.2-9.2c-2.2-2.9-3.3-5.9-3.3-8.9c0-2.5,1-4.6,3-6.2c2-1.7,4.3-2.5,6.9-2.5c2.6,0,4.9,0.9,6.9,2.7
			c2,1.8,3,3.9,3,6.4c0,2.5-0.9,4.2-2.8,5.1c-0.8,0.4-1.8,0.8-3.1,1.3c-1.3,0.4-2,0.9-2,1.3c0,0.8,0.7,1.4,2.2,2
			c1.5,0.6,3,0.8,4.4,0.8c3.2,0,5.7-1.2,7.5-3.6c0.8-1.1,1.4-2.3,1.9-3.5c0.5-1.3,0.7-2.8,0.7-4.6c0-1.8-0.8-3.7-2.5-5.7
			c-1.6-2-3.8-3.7-6.6-4.9c-2.7-1.2-5.6-1.8-8.6-1.8c-6.3,0-11.3,1.8-15,5.4c-1.7,1.6-3,3.5-3.9,5.6c-0.9,2.1-1.4,4.4-1.4,7
			c0,2.6,1.2,5.9,3.7,10.1c1.4,2.3,2.9,4.1,4.5,5.4c-3.1,0.9-5.8,2.2-8,4c-5.1,3.9-7.6,9.2-7.6,15.9c0,5.5,1.3,10.3,4.1,14.3
			c5.1,7.7,13.4,12.5,24.7,14.2c7.5,1.1,14.3,0.8,20.6-1.1c5.7-1.7,9.8-4,12.2-7l1.2,0.8c1.9,1.3,4.8,3.1,8.8,5.2
			c2.5,1.3,4.9,2,7.2,2c4,0,7.3-0.9,10-2.7c2.7-1.8,4.1-4,4.1-6.4C-295.8,306.4-296.2,306-297,306z M-331.9,305.4
			c-3.5,2.4-8.4,3.6-14.8,3.6c-4.6,0-9.2-1-14-3c-2.3-1-4.4-2.2-6.5-3.6c-2-1.5-3.8-3.1-5.4-4.9c-1.5-1.8-2.8-3.8-3.7-6.1
			c-0.9-2.3-1.3-4.9-1.3-7.8c0-2.9,0.8-5.5,2.3-7.9c1.5-2.3,3.3-3.8,5.4-4.3c5,5.3,10.2,10.4,15.4,15.2c5.2,4.9,9.5,8.5,12.7,11
			l10.2,7.5C-331.5,305.1-331.7,305.2-331.9,305.4z"/>
	</g>
	<g class="st0">
		<g class="st3">
			<path class="st4" d="M-301.3,173.7c0.6-13.8-13.3-13.3-13.3-13.3S-315,174.3-301.3,173.7z"/>
			<g>
				<path class="st4" d="M-293,181.9c-10.5-8.9-18.6,2.4-18.6,2.4S-301,193.2-293,181.9z"/>
				<path class="st4" d="M-293,181.9c-8.9-10.5,2.4-18.6,2.4-18.6S-281.8,174-293,181.9z"/>
			</g>
			<g>
				<path class="st4" d="M-282.2,192.7c-10.5-8.9-18.6,2.4-18.6,2.4S-290.1,204-282.2,192.7z"/>
				<path class="st4" d="M-282.2,192.7c-8.9-10.5,2.4-18.6,2.4-18.6S-270.9,184.8-282.2,192.7z"/>
			</g>
			<g>
				<path class="st4" d="M-271.4,203.6c-10.5-8.9-18.6,2.4-18.6,2.4S-279.3,214.8-271.4,203.6z"/>
				<path class="st4" d="M-271.4,203.6c-8.9-10.5,2.4-18.6,2.4-18.6S-260.1,195.6-271.4,203.6z"/>
			</g>
			<g>
				<path class="st4" d="M-260.5,214.4c-10.5-8.9-18.6,2.4-18.6,2.4S-268.5,225.7-260.5,214.4z"/>
				<path class="st4" d="M-260.5,214.4c-8.9-10.5,2.4-18.6,2.4-18.6S-249.3,206.5-260.5,214.4z"/>
			</g>
			<g>
				<path class="st4" d="M-249.7,225.3c-10.5-8.9-18.6,2.4-18.6,2.4S-257.6,236.5-249.7,225.3z"/>
				<path class="st4" d="M-249.7,225.3c-8.9-10.5,2.4-18.6,2.4-18.6S-238.4,217.3-249.7,225.3z"/>
			</g>
		</g>
		<g class="st3">
			<path class="st4" d="M-163,173.7c-0.6-13.8,13.3-13.3,13.3-13.3S-149.3,174.3-163,173.7z"/>
			<g>
				<path class="st4" d="M-171.3,181.9c10.5-8.9,18.6,2.4,18.6,2.4S-163.3,193.2-171.3,181.9z"/>
				<path class="st4" d="M-171.3,181.9c8.9-10.5-2.4-18.6-2.4-18.6S-182.5,174-171.3,181.9z"/>
			</g>
			<g>
				<path class="st4" d="M-182.1,192.7c10.5-8.9,18.6,2.4,18.6,2.4S-174.2,204-182.1,192.7z"/>
				<path class="st4" d="M-182.1,192.7c8.9-10.5-2.4-18.6-2.4-18.6S-193.4,184.8-182.1,192.7z"/>
			</g>
			<g>
				<path class="st4" d="M-192.9,203.6c10.5-8.9,18.6,2.4,18.6,2.4S-185,214.8-192.9,203.6z"/>
				<path class="st4" d="M-192.9,203.6c8.9-10.5-2.4-18.6-2.4-18.6S-204.2,195.6-192.9,203.6z"/>
			</g>
			<g>
				<path class="st4" d="M-203.8,214.4c10.5-8.9,18.6,2.4,18.6,2.4S-195.8,225.7-203.8,214.4z"/>
				<path class="st4" d="M-203.8,214.4c8.9-10.5-2.4-18.6-2.4-18.6S-215,206.5-203.8,214.4z"/>
			</g>
			<g>
				<path class="st4" d="M-214.6,225.3c10.5-8.9,18.6,2.4,18.6,2.4S-206.7,236.5-214.6,225.3z"/>
				<path class="st4" d="M-214.6,225.3c8.9-10.5-2.4-18.6-2.4-18.6S-225.9,217.3-214.6,225.3z"/>
			</g>
		</g>
	</g>
	<g class="st0">
		<polygon class="st2" points="-320.2,-11.5 -354.4,-42 -388.6,-11.5 -388.6,-137.2 -320.2,-137.2 		"/>
		<g class="st3">
			<g>
				<path class="st8" d="M-371.4-118.9L-371.4-118.9l0,10.4c0,1.1,0,1.9,0,2.4l1.8-0.1v1.1h-4.5v-0.8c0.7,0,1.1-0.2,1.3-0.6
					c0.2-0.4,0.3-0.8,0.3-1.4l0-13.4l-1.6,0.1v-1.1h2.9l10.4,13.9h0l0-11.2c0-0.7,0-1.3,0.1-1.8l-1.8,0.1v-1.1h4.5v0.8
					c-0.5,0-0.9,0.1-1.1,0.3c-0.2,0.2-0.4,0.4-0.5,0.7c-0.1,0.3-0.1,0.7-0.1,1.2v0.9l0,13.7h-1.2L-371.4-118.9z"/>
				<path class="st8" d="M-349.7-106c-1.3-0.9-2.3-2-2.9-3.3c-0.6-1.4-0.9-2.8-0.9-4.3c0-1.4,0.3-2.9,1-4.2c0.6-1.4,1.6-2.5,2.9-3.4
					c1.3-0.9,2.8-1.3,4.6-1.3c1.9,0,3.5,0.4,4.8,1.3c1.3,0.9,2.3,2,2.9,3.4c0.7,1.4,1,2.8,1,4.2c0,1.4-0.3,2.8-1,4.2
					c-0.6,1.4-1.6,2.5-2.9,3.4c-1.3,0.9-2.8,1.3-4.6,1.3C-346.8-104.7-348.4-105.1-349.7-106z M-341.5-106.8c0.9-0.7,1.6-1.7,2-2.8
					c0.5-1.1,0.7-2.3,0.7-3.6c0-1.4-0.3-2.7-0.8-4c-0.5-1.3-1.2-2.4-2.2-3.2c-1-0.8-2.1-1.2-3.4-1.2c-1.3,0-2.4,0.4-3.3,1.1
					c-0.9,0.7-1.6,1.7-2.1,2.8c-0.5,1.2-0.7,2.4-0.7,3.6c0,1.3,0.2,2.6,0.7,3.9c0.5,1.3,1.2,2.4,2.1,3.2c1,0.9,2.1,1.3,3.5,1.3
					C-343.5-105.7-342.4-106-341.5-106.8z"/>
				<path class="st8" d="M-333.9-105.1c-0.3-0.3-0.4-0.7-0.4-1.1c0-0.4,0.1-0.8,0.4-1.1c0.3-0.3,0.6-0.5,1-0.5c0.4,0,0.7,0.2,1,0.5
					c0.3,0.3,0.4,0.7,0.4,1.1c0,0.4-0.1,0.8-0.4,1.1c-0.3,0.3-0.6,0.5-1,0.5C-333.3-104.7-333.6-104.8-333.9-105.1z"/>
			</g>
			<g>
				<path class="st8" d="M-368.5-59.8c0-0.7,0.2-1.5,0.6-2.7c0.4-1.1,0.9-2.5,1.6-4.3l0.6-1.5l0.5-1.4c1.4-3.5,2.5-6.3,3.4-8.5
					c0.9-2.2,1.9-4.3,2.9-6.5l-10.9,0c-2.3,0.1-3.5,1.1-3.5,3.2h-1v-6.1h17.2v2.8c-1.3,2.6-2.3,5.1-3.2,7.5c-0.9,2.4-1.6,4.7-2.2,7
					c-0.6,2.2-1.4,5.5-2.5,9.7c-0.4,1.7-1.2,2.5-2.1,2.5C-368-58-368.5-58.6-368.5-59.8z"/>
				<path class="st8" d="M-345.9-58.9c-1.3-0.6-2.2-1.3-2.9-2.2c-0.7-0.9-1-1.7-1-2.6c0-0.7,0.2-1.2,0.5-1.6
					c0.4-0.4,0.8-0.6,1.5-0.6c0.6,0,1.1,0.2,1.4,0.6s0.4,0.8,0.4,1.3c0,0.5-0.2,1-0.5,1.6c0.2,0.9,0.7,1.6,1.7,2.1
					c1,0.5,2,0.7,3.1,0.7c1.9,0,3.4-0.7,4.4-2c1-1.3,1.5-3,1.5-4.9c0-5.4-2.1-8.1-6.4-8.1c-0.8,0-1.7,0.1-2.8,0.4
					c-1.1,0.3-2,0.6-2.6,1l-1.2-1.1l-0.1-13.2h10.6c1.5,0,2.6-0.2,3.2-0.6c0.6-0.4,0.9-1.1,0.9-2.1h1.1l-0.2,5.4l-13.7,0.3v9
					c0.8-0.3,1.7-0.6,2.7-0.8c1.1-0.2,2.1-0.3,3.2-0.3c2.1,0,3.9,0.4,5.3,1.3c1.4,0.9,2.5,2,3.1,3.4c0.7,1.4,1,2.9,1,4.5
					c0,1.9-0.5,3.6-1.4,5c-0.9,1.4-2.1,2.5-3.7,3.2c-1.5,0.7-3.2,1.1-5.1,1.1C-343.2-58-344.7-58.3-345.9-58.9z"/>
			</g>
		</g>
	</g>
	<g class="st0">
		<g class="st3">
			<polygon class="st4" points="451,36.4 435,36.4 424.1,36.4 424.1,58.2 424.1,59.5 424.1,59.5 406.3,75.7 451,75.7 440.1,56.1 			
				"/>
			<polygon class="st4" points="422.3,19 360,19 360,58.2 379.3,58.2 405.2,58.2 405.2,58.2 422.3,58.2 			"/>
			<polygon class="st4" points="377.5,74.6 377.5,60 361.4,60 			"/>
			<polygon class="st4" points="404.9,60 404.9,74.6 420.9,60 			"/>
			<polygon class="st4" points="358.3,58.2 358.3,36.4 331.4,36.4 342.3,56.1 331.4,75.7 376.1,75.7 358.3,59.5 			"/>
		</g>
		<polygon class="st1" points="391.2,23.1 395.7,32.3 405.9,33.7 398.5,40.9 400.3,51 391.2,46.3 382.1,51 383.8,40.9 376.5,33.7 
			386.6,32.3 		"/>
	</g>
	<g class="st0">
		<g class="st3">
			<path class="st4" d="M305.2,187.8c-1.8-9.3,6.2-21.9,6.2-21.9s8,12.6,6.2,21.9C316.2,194.8,306.6,194.8,305.2,187.8z"/>
		</g>
		<g class="st3">
			<path class="st4" d="M299.2,257.5c-0.8,0-1.6-0.1-2.4-0.2c-0.4-0.1-0.8-0.2-1.1-0.3c-4.8-1.3-8.6-4.9-10.2-9.8
				c-1.7-5.2-0.7-10.9,2.7-15.2l0.3-0.4c2.2-3,6.2-6.3,10.6-8.8c11.2-6.4,10.9-15.6,10.9-15.7c0-0.1,0-0.1,0-0.2
				c0.3-3.3-2.2-6.2-5.4-6.4c-2.4-0.2-4.5,1.6-4.8,4.1c-0.1,0.9,0.3,1.8,0.9,2.5c0.9,1,2,1.3,3,1c0.9-0.3,1.5-1.1,1.5-2
				c0.1-0.8,0.8-1.4,1.6-1.4c0.8,0.1,1.4,0.8,1.4,1.6c-0.2,2.1-1.5,3.9-3.5,4.6c-2.1,0.7-4.4,0.1-6.2-1.8c-1.2-1.3-1.9-3.1-1.7-4.8
				c0.4-4.1,3.9-7.1,8-6.8c4.9,0.4,8.5,4.7,8.2,9.6c0,1.2-0.2,11.3-12.4,18.3c-4,2.3-7.7,5.4-9.7,8.1l-0.3,0.4
				c-2.8,3.5-3.6,8.1-2.2,12.4c1.3,4,4.3,6.8,8.1,7.9c0.3,0.1,0.6,0.2,0.9,0.2c2.8,0.6,5.7-0.2,8.1-2c3.5-2.7,5-6.3,4.2-9.9
				c-0.7-3.1-3.2-5.6-6.4-6.2c-1.6-0.3-3.3,0.1-4.7,1.1c-2.1,1.6-3.1,3.7-2.6,5.8c0.4,1.8,1.9,3.2,3.7,3.6c0.9,0.2,1.8,0,2.6-0.5
				c0.8-0.5,1.3-1.3,1.5-2.2c0.2-0.8,0.9-1.3,1.7-1.2c0.8,0.2,1.3,0.9,1.2,1.7c-0.3,1.7-1.3,3.2-2.7,4.1c-1.4,1-3.1,1.3-4.8,1
				c-3-0.6-5.3-2.9-6-5.8c-0.7-3.2,0.6-6.5,3.7-8.8c2.1-1.6,4.6-2.2,7-1.7c4.3,0.8,7.7,4.1,8.7,8.4c1.1,4.7-0.9,9.5-5.3,12.9
				C304.9,256.6,302.1,257.5,299.2,257.5z"/>
		</g>
		<g class="st3">
			<path class="st4" d="M323.6,257.5c-2.9,0-5.7-1-8.1-2.8c-4.4-3.4-6.4-8.2-5.3-12.9c1-4.3,4.4-7.6,8.7-8.4c2.4-0.5,5,0.1,7,1.7
				c3,2.3,4.4,5.6,3.7,8.8c-0.7,3-3,5.2-6,5.8c-1.7,0.3-3.4,0-4.8-1c-1.4-1-2.4-2.4-2.7-4.1c-0.2-0.8,0.4-1.6,1.2-1.7
				c0.8-0.2,1.6,0.4,1.7,1.2c0.2,0.9,0.7,1.7,1.5,2.2c0.8,0.5,1.7,0.7,2.6,0.5c1.8-0.4,3.2-1.8,3.7-3.6c0.5-2.1-0.5-4.2-2.6-5.8
				c-1.4-1-3.1-1.5-4.7-1.1c-3.1,0.6-5.6,3-6.4,6.2c-0.8,3.6,0.7,7.2,4.2,9.9c2.4,1.9,5.3,2.6,8.1,2c0.3-0.1,0.6-0.1,0.9-0.2
				c3.9-1.1,6.8-3.9,8.1-7.9c1.4-4.3,0.6-8.9-2.2-12.4l-0.3-0.4c-2-2.7-5.7-5.8-9.7-8.1c-12.2-7-12.4-17.1-12.4-18.3
				c-0.3-4.9,3.3-9.2,8.2-9.6c4-0.3,7.6,2.7,8,6.8c0.1,1.7-0.5,3.5-1.7,4.8c-1.8,1.8-4.1,2.5-6.2,1.8c-2-0.7-3.3-2.5-3.5-4.6
				c-0.1-0.8,0.5-1.5,1.4-1.6c0.8-0.1,1.5,0.5,1.6,1.4c0.1,0.9,0.7,1.7,1.5,2c1,0.3,2.1,0,3-1c0.6-0.7,1-1.6,0.9-2.5
				c-0.2-2.4-2.4-4.3-4.8-4.1c-3.2,0.3-5.7,3.1-5.4,6.4c0,0.1,0,0.1,0,0.2c0,0.4-0.2,9.4,10.9,15.7c4.4,2.5,8.3,5.8,10.6,8.9
				l0.3,0.3c3.4,4.3,4.4,9.9,2.7,15.2c-1.6,4.9-5.3,8.5-10.2,9.8c-0.4,0.1-0.8,0.2-1.1,0.3C325.2,257.5,324.4,257.5,323.6,257.5z"/>
		</g>
	</g>
	<g class="st0">
		<g class="st3">
			<g>
				<path class="st4" d="M72.5-49.2c-4.1,0-8.3-0.7-12.3-2.2l-1-0.4c-7.9-2.7-17.8-8.9-26.2-16.5C10.9-88.4-9-81-9.2-81
					c-0.1,0-0.2,0.1-0.3,0.1C-17.2-79-21.9-71.1-20-63.4c1.4,5.9,7.3,9.5,13.1,8.1c2.1-0.5,4-2.1,5.1-4.2c1.6-3.1,1.6-6.1-0.2-8.3
					c-1.5-1.9-3.9-2.7-6.2-2.1c-1.4,0.3-2.7-0.5-3.1-1.8c-0.3-1.4,0.5-2.7,1.8-3.1c4.2-1,8.7,0.5,11.4,3.9c3,3.8,3.2,8.9,0.7,13.8
					c-1.8,3.4-4.9,5.9-8.5,6.7c-8.5,2-17.2-3.3-19.3-11.8c-2.5-10.4,3.7-20.9,14-23.6c2.2-0.8,23.8-7.8,47.3,13.7
					c7.8,7.1,17.2,13,24.5,15.5l1.1,0.4c9.6,3.6,20.3,2,28.6-4.1c7.9-5.8,12.2-14.7,11.6-24.3c0-0.7-0.1-1.5-0.2-2.3
					c-0.9-6.8-4.6-12.8-10.6-16.8c-8.5-5.8-17.5-6.6-24.8-2.2c-6.6,4-10.2,11.6-9.2,19.2c0.5,3.9,2.8,7.6,6.2,10
					c5.2,3.6,10.6,4.2,15,1.5c3.9-2.4,6.1-6.9,5.5-11.4c-0.3-2.3-1.5-4.4-3.3-5.8c-1.8-1.4-4.1-2-6.4-1.7c-1.4,0.2-2.7-0.8-2.8-2.2
					c-0.2-1.4,0.8-2.7,2.2-2.8c3.6-0.5,7.2,0.5,10.1,2.7c2.9,2.3,4.8,5.5,5.3,9.2c0.8,6.6-2.2,13-7.9,16.4c-6.1,3.7-13.8,3-20.6-1.7
					c-4.6-3.2-7.6-8.1-8.3-13.5c-1.2-9.7,3.3-19.1,11.6-24.2c8.9-5.5,20.2-4.6,30.3,2.3c7.2,4.9,11.7,12.2,12.7,20.4
					c0.1,0.9,0.2,1.7,0.2,2.6c0.6,11.3-4.4,21.8-13.7,28.7C87.3-51.6,79.9-49.2,72.5-49.2z"/>
			</g>
			<g>
				<path class="st4" d="M-32.5-49.2c-7.5,0-14.9-2.4-21.1-7C-63-63-68-73.5-67.3-84.8c0-0.9,0.1-1.7,0.2-2.6
					c1-8.2,5.6-15.5,12.7-20.4c10.1-6.9,21.4-7.8,30.3-2.3c8.3,5.1,12.8,14.5,11.6,24.2c-0.7,5.4-3.7,10.3-8.3,13.5
					c-6.8,4.8-14.5,5.4-20.6,1.7c-5.6-3.4-8.7-9.9-7.9-16.4c0.5-3.7,2.4-6.9,5.3-9.2c2.9-2.2,6.5-3.2,10.1-2.7
					c1.4,0.2,2.4,1.5,2.2,2.8c-0.2,1.4-1.4,2.4-2.8,2.2c-2.3-0.3-4.5,0.3-6.4,1.7c-1.9,1.4-3,3.5-3.3,5.8c-0.6,4.6,1.6,9.1,5.5,11.4
					c4.4,2.6,9.8,2.1,15-1.5c3.4-2.4,5.7-6,6.2-10c1-7.7-2.6-15.2-9.2-19.2c-7.3-4.4-16.3-3.6-24.8,2.2c-6,4.1-9.7,10.1-10.6,16.8
					c-0.1,0.8-0.2,1.5-0.2,2.3c-0.5,9.6,3.7,18.5,11.6,24.3c8.3,6.1,19,7.7,28.6,4.1l1-0.4C-13.7-59-4.3-65,3.6-72
					c23.5-21.5,45-14.5,47.2-13.7c10.3,2.6,16.6,13.2,14,23.6c-2.1,8.6-10.7,13.9-19.3,11.8c-3.5-0.8-6.7-3.4-8.5-6.7
					c-2.5-4.9-2.3-10,0.7-13.8c2.7-3.4,7.2-5,11.4-3.9c1.4,0.3,2.2,1.7,1.8,3.1c-0.3,1.4-1.7,2.2-3.1,1.8c-2.3-0.6-4.7,0.3-6.2,2.1
					c-1.7,2.2-1.8,5.2-0.2,8.3c1.1,2.1,3,3.6,5.1,4.2c5.8,1.4,11.7-2.2,13.1-8.1c1.9-7.7-2.8-15.6-10.5-17.5c-0.1,0-0.2-0.1-0.3-0.1
					C48.4-81.3,28.9-88.3,7-68.3c-8.5,7.6-18.3,13.8-26.3,16.5l-0.9,0.4C-24.3-49.9-28.4-49.2-32.5-49.2z"/>
			</g>
		</g>
		<g class="st3">
			<path class="st4" d="M20-91.6c-1,0-2-0.6-2.4-1.6c-0.3-0.8-7.9-20-6.1-34.7c0.9-7,4.9-10.2,8.5-10.2c3.6,0,7.6,3.1,8.5,10.2
				c1.8,14.7-5.8,33.9-6.1,34.7C21.9-92.2,21-91.6,20-91.6z M20-133c-1.4,0-3,2-3.4,5.7c0,0,0,0,0,0c-1,8.3,1.4,18.6,3.4,25.3
				c2-6.7,4.5-17,3.4-25.3C22.9-131.1,21.3-133,20-133z M14-127.6L14-127.6L14-127.6z"/>
		</g>
		<g class="st3">
			<g>
				<path class="st4" d="M35.3-93.9c-0.7,0-1.3-0.3-1.8-0.7c-0.6-0.6-0.9-1.5-0.7-2.3c0.2-1,2.4-10.2,7.9-14l0,0
					c2.7-1.8,5.9-1.5,8.2,0.7c2.2,2.2,2.6,5.6,0.8,8.3c-3.7,5.6-12.8,7.8-13.9,8C35.7-93.9,35.5-93.9,35.3-93.9z M42.2-108.8
					l1.4,2.1c-1.9,1.3-3.4,3.9-4.4,6.4c2.4-1,5-2.5,6.3-4.4c0.6-0.9,0.1-1.6-0.1-1.9c-0.3-0.3-0.9-0.7-1.8-0.1L42.2-108.8z"/>
			</g>
			<g>
				<path class="st4" d="M4.6-93.9c-0.2,0-0.4,0-0.5-0.1c-1-0.2-10.1-2.4-13.9-8c-1.8-2.7-1.4-6.1,0.8-8.3c2.2-2.2,5.5-2.5,8.2-0.7
					l0,0C4.7-107.2,6.8-98,7-97c0.2,0.8-0.1,1.7-0.7,2.3C5.9-94.2,5.2-93.9,4.6-93.9z M-4.6-107c-0.4,0-0.7,0.2-0.9,0.4
					c-0.3,0.2-0.8,0.9-0.1,1.9c1.3,1.9,3.9,3.4,6.3,4.4c-1-2.4-2.5-5.1-4.4-6.4C-4-106.9-4.3-107-4.6-107z"/>
			</g>
		</g>
	</g>
	<g class="st0">
		<g class="st3">
			<g>
				<g>
					<path class="st4" d="M-15.7,271.7l-5.1-6.2c0,0,1.1-9.8,21.5-12.7C0.6,252.8-16,257.5-15.7,271.7z"/>
					<path class="st4" d="M-15.7,231l-5.1,6.2c0,0,1.1,9.8,21.5,12.7C0.6,249.9-16,245.1-15.7,231z"/>
				</g>
				<polygon class="st4" points="-38.3,251.3 -29.6,255.4 -9.2,251.3 -29.6,247.2 				"/>
			</g>
			<g>
				<g>
					<path class="st4" d="M227.6,271.7l5.1-6.2c0,0-1.1-9.8-21.5-12.7C211.2,252.8,227.8,257.5,227.6,271.7z"/>
					<path class="st4" d="M227.6,231l5.1,6.2c0,0-1.1,9.8-21.5,12.7C211.2,249.9,227.8,245.1,227.6,231z"/>
				</g>
				<polygon class="st4" points="250.1,251.3 241.5,255.4 221.1,251.3 241.5,247.2 				"/>
			</g>
		</g>
		<g class="st3">
			<path class="st4" d="M22.1,259c-1.4-0.9-2.4-2.2-3.1-3.7c-0.7-1.6-1-3.3-1-5.3c0-2,0.3-3.8,1-5.3c0.7-1.6,1.7-2.8,3.1-3.8
				c1.4-0.9,3.1-1.4,5.1-1.4c2,0,3.7,0.5,5.1,1.4c1.4,0.9,2.4,2.2,3.1,3.8c0.7,1.6,1.1,3.4,1.1,5.3c0,2-0.4,3.8-1.1,5.3
				c-0.7,1.6-1.7,2.8-3.1,3.7c-1.4,0.9-3.1,1.4-5.1,1.4C25.2,260.3,23.5,259.9,22.1,259z M30.5,257.5c1-0.8,1.7-1.8,2.2-3.1
				c0.5-1.3,0.8-2.8,0.8-4.4c0-1.4-0.2-2.7-0.6-4.1c-0.4-1.4-1-2.5-1.9-3.5c-0.9-0.9-2.1-1.4-3.6-1.4c-1.3,0-2.5,0.4-3.4,1.2
				c-1,0.8-1.7,1.9-2.2,3.3c-0.5,1.4-0.8,2.9-0.8,4.6c0,2.5,0.5,4.5,1.6,6.1c1.1,1.6,2.6,2.4,4.5,2.4
				C28.4,258.7,29.5,258.3,30.5,257.5z"/>
			<path class="st4" d="M56.3,259.6c-0.6-0.5-1.1-1.3-1.7-2.6l-2.1-4.5c-0.2-0.4-0.4-0.6-0.6-0.8c-0.2-0.2-0.7-0.4-1.3-0.6
				c-0.4-0.2-0.5-0.4-0.5-0.7c0-0.4,0.2-0.6,0.5-0.6c0.1,0,0.2,0,0.4,0.1c0.2,0.1,0.5,0.1,0.9,0.1c1.4,0,2.5-0.4,3.3-1.2
				c0.8-0.8,1.2-1.8,1.2-3.2c0-1.4-0.4-2.6-1.3-3.4c-0.8-0.9-2-1.3-3.5-1.3c-0.7,0-1.2,0.1-1.6,0.3c-0.4,0.2-0.6,0.6-0.6,1v12
				c0,1.1,0.1,2,0.3,2.7c0.2,0.7,0.5,1.3,1,2l0.3,0.5l-0.3,0.5h-6.2l-0.3-1l0.6-0.2c0.7-0.2,1.2-0.5,1.4-0.8
				c0.2-0.4,0.4-0.9,0.4-1.8v-13.8c0-0.2,0-0.4-0.1-0.5c-0.1-0.1-0.3-0.2-0.5-0.2h-1.6l-0.3-1.1c0.9-0.4,2-0.6,3.3-0.9
				c1.3-0.2,2.5-0.4,3.6-0.4c2.6,0,4.6,0.5,6,1.6c1.4,1.1,2.1,2.6,2.1,4.5c0,1.5-0.4,2.7-1.2,3.7c-0.8,1-1.9,1.7-3.3,2
				c0.5,0.4,0.9,0.8,1.2,1.4l2.6,5.3c0.2,0.6,0.6,0.8,1.1,0.8c0.4,0,0.7-0.1,1.1-0.4l0.5,0.8c-0.8,0.7-1.7,1.1-2.6,1.1
				C57.6,260.3,56.8,260.1,56.3,259.6z"/>
			<path class="st4" d="M68.8,259l0.7-0.2c0.7-0.2,1.2-0.5,1.4-0.8c0.2-0.3,0.3-0.9,0.3-1.8v-12.7c0-0.9-0.1-1.5-0.4-1.8
				c-0.2-0.3-0.7-0.6-1.4-0.8l-0.7-0.2l0.3-1h6.2l0.4,0.4l-0.4,0.5c-0.5,0.6-0.8,1.2-1,1.9c-0.2,0.7-0.3,1.6-0.3,2.7v11
				c0,0.8,0.1,1.4,0.3,1.7c0.2,0.3,0.7,0.6,1.4,0.8l0.6,0.2l-0.2,0.9h-6.9L68.8,259z"/>
			<path class="st4" d="M91.4,267.2c-0.8-0.4-1.4-0.9-1.7-1.5c-0.4-0.6-0.6-1.3-0.6-1.9c0-0.9,0.3-1.8,0.9-2.4c0.6-0.7,1.5-1,2.6-1
				c0.4,0,0.5,0.1,0.5,0.3c0,0.1-0.1,0.3-0.4,0.5c-0.3,0.3-0.5,0.6-0.7,1c-0.2,0.4-0.3,0.9-0.3,1.5c0,0.8,0.3,1.4,0.8,1.9
				c0.5,0.5,1.2,0.7,2.1,0.7c1.2,0,2.2-0.5,2.8-1.4c0.6-0.9,0.9-2.5,0.9-4.6v-2.7c-1.5,1.2-3.2,1.9-4.9,1.9c-1.9,0-3.5-0.4-4.8-1.3
				c-1.3-0.9-2.3-2.1-2.9-3.6c-0.6-1.5-1-3.2-1-5.1c0-1.8,0.3-3.5,1-5c0.7-1.5,1.7-2.7,3.1-3.6c1.4-0.9,3.1-1.4,5.1-1.4
				c1.3,0,2.5,0.2,3.5,0.6c1,0.4,1.8,0.9,2.4,1.6c0.6,0.7,0.9,1.4,0.9,2.3c0,1-0.3,1.8-0.8,2.4c-0.6,0.6-1.3,0.9-2.1,0.9
				c-0.3,0-0.4,0-0.5-0.1c-0.1,0-0.1-0.1-0.1-0.3c0-0.1,0.1-0.2,0.2-0.5c0.2-0.3,0.3-0.6,0.4-0.9c0.1-0.3,0.2-0.7,0.2-1.2
				c0-1-0.4-1.8-1.1-2.3c-0.7-0.6-1.7-0.9-2.9-0.9c-1.5,0-2.7,0.4-3.6,1.3c-0.9,0.8-1.6,1.9-2,3.2c-0.4,1.3-0.6,2.5-0.6,3.9
				c0,1.5,0.2,3,0.7,4.2c0.5,1.3,1.2,2.3,2.1,3c0.9,0.7,1.9,1.1,3.1,1.1c1.9,0,3.5-0.6,4.7-1.9v-1.4c0-0.8-0.1-1.4-0.4-1.8
				c-0.3-0.3-0.7-0.6-1.5-0.8l-0.6-0.2l0.3-1h5.9l0.3,0.5l-0.3,0.5c-0.5,0.6-0.8,1.3-1,2c-0.2,0.7-0.3,1.6-0.3,2.7v3.2
				c0,5.5-2.2,8.3-6.6,8.3C93.1,267.8,92.2,267.6,91.4,267.2z"/>
			<path class="st4" d="M110.4,259l0.7-0.2c0.7-0.2,1.2-0.5,1.4-0.8c0.2-0.3,0.3-0.9,0.3-1.8v-12.7c0-0.9-0.1-1.5-0.4-1.8
				c-0.2-0.3-0.7-0.6-1.4-0.8l-0.7-0.2l0.3-1h6.2l0.4,0.4l-0.4,0.5c-0.5,0.6-0.8,1.2-1,1.9c-0.2,0.7-0.3,1.6-0.3,2.7v11
				c0,0.8,0.1,1.4,0.3,1.7c0.2,0.3,0.7,0.6,1.4,0.8l0.6,0.2l-0.2,0.9h-6.9L110.4,259z"/>
			<path class="st4" d="M126.2,259l0.6-0.2c0.7-0.2,1.2-0.5,1.4-0.8c0.2-0.3,0.3-0.9,0.3-1.8v-12.7c0-0.9-0.1-1.5-0.4-1.8
				c-0.2-0.3-0.7-0.6-1.4-0.8l-0.6-0.2l0.3-1h4.5l10.7,15.9v-12.1c0-0.8-0.1-1.4-0.4-1.8c-0.2-0.4-0.7-0.6-1.4-0.8l-0.7-0.2l0.4-1
				h5.3l0.4,0.4l-0.4,0.5c-0.5,0.6-0.8,1.2-1,1.9c-0.2,0.7-0.3,1.6-0.3,2.7v12c0,0.6,0.1,1.1,0.4,1.5l0.3,0.5l-0.3,0.5h-2.8
				l-10.7-15.9v10.2c0,1.2,0.1,2.1,0.3,2.8c0.2,0.7,0.5,1.3,1,1.9l0.4,0.5l-0.4,0.5h-5.3L126.2,259z"/>
			<path class="st4" d="M152.8,259l0.6-0.2c0.8-0.2,1.3-0.5,1.6-0.8c0.3-0.3,0.6-0.9,0.9-1.8l4.4-12.7c0.2-0.7,0.3-1.1,0.3-1.4
				c0-0.4-0.1-0.6-0.3-0.8c-0.2-0.2-0.5-0.3-0.9-0.4l-0.6-0.2l0.3-1h5.4l5.7,16.2c0.3,0.9,0.6,1.5,1,2c0.3,0.4,0.9,0.9,1.6,1.5
				l-0.4,0.5H166l-0.3-1l0.7-0.2c0.4-0.1,0.7-0.3,0.9-0.4c0.2-0.2,0.3-0.5,0.3-0.8c0-0.2,0-0.4-0.1-0.7c-0.1-0.3-0.2-0.5-0.2-0.6
				l-1.3-3.9h-6.5l-0.7,2c-0.4,1.3-0.6,2.3-0.6,2.9c0,0.7,0.1,1.2,0.4,1.7l0.2,0.5l-0.5,0.5h-5.1L152.8,259z M160.1,250.5h5.3
				l-2.7-7.9L160.1,250.5z"/>
			<path class="st4" d="M193.1,260.3c-0.1-0.1-0.2-0.2-0.4-0.3c-0.2-0.1-0.4-0.1-0.8-0.1h-11.2l-0.3-0.9l0.6-0.2
				c0.7-0.2,1.1-0.5,1.4-0.8c0.2-0.3,0.3-0.9,0.3-1.7v-12.9c0-0.9-0.1-1.5-0.4-1.8c-0.2-0.3-0.7-0.6-1.4-0.8l-0.7-0.2l0.3-1h6.2
				l0.4,0.4l-0.4,0.5c-0.5,0.6-0.8,1.2-1,1.9c-0.2,0.7-0.3,1.6-0.3,2.7v10.8c0,0.6,0,1,0.1,1.3c0.1,0.3,0.3,0.5,0.5,0.6
				c0.2,0.1,0.6,0.2,1.1,0.2h2.4c1,0,1.7-0.2,2.1-0.5c0.4-0.3,0.7-1,1-2l0.2-0.6l1,0.3v4.8l-0.6,0.3L193.1,260.3z"/>
		</g>
	</g>
	<g class="st0">
		<g class="st3">
			<g>
				<g>
					<g>
						<path class="st4" d="M625.3-73.6c0-13.8,0-27.6,0-41.4c0-2,0-4,0-5.9c0-1.5-2.4-1.5-2.4,0c0,13.8,0,27.6,0,41.4c0,2,0,4,0,5.9
							C622.9-72.1,625.3-72.1,625.3-73.6L625.3-73.6z"/>
					</g>
					<g>
						<path class="st4" d="M625.3-128.3c0-1.7,0-3.4,0-5.1c0-1.5-2.4-1.5-2.4,0c0,1.7,0,3.4,0,5.1
							C622.9-126.7,625.3-126.7,625.3-128.3L625.3-128.3z"/>
					</g>
				</g>
			</g>
			<g>
				<g>
					<g>
						<g>
							<path class="st4" d="M615.2-73c-7.2-11.2-14.3-22.5-21.5-33.7c-0.8-1.3-2.9-0.1-2.1,1.2c7.2,11.2,14.3,22.5,21.5,33.7
								C614-70.5,616-71.7,615.2-73L615.2-73z"/>
						</g>
						<g>
							<path class="st4" d="M590.6-112c-0.7-1.2-1.5-2.5-2.2-3.7c-0.8-1.3-2.9-0.1-2.1,1.2c0.7,1.2,1.5,2.5,2.2,3.7
								C589.3-109.4,591.3-110.6,590.6-112L590.6-112z"/>
						</g>
					</g>
				</g>
				<g>
					<g>
						<g>
							<path class="st4" d="M635-71.8c7.2-11.2,14.3-22.5,21.5-33.7c0.8-1.3-1.2-2.5-2.1-1.2c-7.2,11.2-14.3,22.5-21.5,33.7
								C632.1-71.7,634.2-70.5,635-71.8L635-71.8z"/>
						</g>
						<g>
							<path class="st4" d="M659.6-110.8c0.7-1.2,1.5-2.5,2.2-3.7c0.8-1.3-1.3-2.5-2.1-1.2c-0.7,1.2-1.5,2.5-2.2,3.7
								C656.8-110.6,658.9-109.4,659.6-110.8L659.6-110.8z"/>
						</g>
					</g>
				</g>
			</g>
		</g>
		<g class="st3">
			<g>
				<g>
					<g>
						<path class="st4" d="M604.1-70.3c-13-2.9-26-5.7-39-8.6c-1.5-0.3-2.1,2-0.6,2.3c13,2.9,26,5.7,39,8.6
							C605-67.6,605.6-69.9,604.1-70.3L604.1-70.3z"/>
					</g>
					<g>
						<path class="st4" d="M559.1-80.4c-1.4-0.4-2.8-0.7-4.2-1.1c-1.5-0.4-2.1,1.9-0.6,2.3c1.4,0.4,2.8,0.7,4.2,1.1
							C560-77.7,560.6-80,559.1-80.4L559.1-80.4z"/>
					</g>
				</g>
			</g>
			<g>
				<g>
					<g>
						<path class="st4" d="M644-70.3c13-2.9,26-5.7,39-8.6c1.5-0.3,2.1,2,0.6,2.3c-13,2.9-26,5.7-39,8.6
							C643.1-67.6,642.5-69.9,644-70.3L644-70.3z"/>
					</g>
					<g>
						<path class="st4" d="M689-80.4c1.4-0.4,2.8-0.7,4.2-1.1c1.5-0.4,2.1,1.9,0.6,2.3c-1.4,0.4-2.8,0.7-4.2,1.1
							C688.1-77.7,687.5-80,689-80.4L689-80.4z"/>
					</g>
				</g>
			</g>
		</g>
	</g>
	<g class="st0">
		<path class="st2" d="M181-98.2c-4.6-13,0.9-14.9,0.9-14.9h310.9c0,0,5.5,1.9,0.9,14.9c-4.6,13,9.5,16.6,9.5,16.6s-14,3.6-9.5,16.6
			c4.6,13-0.9,14.9-0.9,14.9H181.9c0,0-5.5-1.9-0.9-14.9c4.6-13-9.5-16.6-9.5-16.6S185.6-85.2,181-98.2z"/>
		<g class="st3">
			<path class="st8" d="M219.7-69.2c0.9,0,1.6-0.2,2-0.6c0.4-0.4,0.6-0.9,0.7-1.4c0.1-0.5,0.1-1.5,0.1-2.8v-17.2
				c0-1.1,0-2.1,0.1-2.9l-2.8,0.2v-1.7c3.7-0.1,6.6-0.1,8.7-0.1c3.9,0,6.8,0.7,8.8,2.1c2,1.4,3,3.4,3,6.1c0,1.5-0.4,3-1.2,4.4
				c-0.8,1.4-2.2,2.6-4.1,3.5c-1.9,0.9-4.5,1.4-7.7,1.4c-0.6,0-1.1,0-1.4,0v5.8c0,1.4,0,2.5-0.1,3.1l3.6-0.2v1.8h-9.6V-69.2z
				 M232.5-80.8c1.2-0.6,2.2-1.5,2.9-2.6c0.7-1.1,1.1-2.4,1.1-4c0-2.4-0.7-4.1-2.2-5.2c-1.4-1.1-3.4-1.7-6-1.7
				c-0.9,0-1.5,0.2-1.9,0.6c-0.4,0.4-0.6,0.8-0.6,1.3c-0.1,0.5-0.1,1.5-0.1,2.8v9.5c0.7,0.1,1.5,0.1,2.5,0.1
				C229.8-79.9,231.2-80.2,232.5-80.8z"/>
			<path class="st8" d="M251.9-69.2c0.9,0,1.6-0.2,2-0.6c0.4-0.4,0.6-0.9,0.7-1.4c0.1-0.5,0.1-1.5,0.1-2.8v-17.2
				c0-1.1,0-2.1,0.1-2.9l-2.8,0.2v-1.7c2.7-0.1,4.8-0.1,6.2-0.1c1.3,0,2.2,0,2.8,0c3.7,0.1,6.4,0.7,8.1,1.9c1.7,1.2,2.6,2.9,2.6,5.2
				c0,1.8-0.5,3.5-1.6,4.9c-1.1,1.5-3,2.5-5.7,3c0.4,0.3,0.8,0.8,1.2,1.2s0.9,1.2,1.5,2.2l2.7,4.3c0.6,0.9,1.1,1.6,1.4,2.1
				c0.4,0.5,0.8,0.9,1.4,1.2c0.5,0.3,1.2,0.5,2,0.5v1.3h-4.9c-0.7-0.6-1.3-1.2-1.8-1.9c-0.5-0.6-1.1-1.5-1.7-2.5l-2.6-4.3l-0.5-0.8
				c-0.4-0.7-0.8-1.3-1.1-1.7c-0.3-0.5-0.7-0.8-1-1.2c-0.2,0-0.6,0-1.1,0c-0.7,0-1.2,0-1.6,0v7.7c0,1.4,0,2.5-0.1,3.1l2.8-0.2v1.7
				h-8.8V-69.2z M267.7-88.2c0-2-0.6-3.5-1.7-4.5c-1.1-1-2.9-1.5-5.3-1.5c-0.9,0-1.6,0.2-2,0.6c-0.4,0.4-0.6,0.8-0.7,1.4
				c-0.1,0.5-0.1,1.5-0.1,2.8v7.6c0.8,0.1,1.4,0.1,1.7,0.1C265-81.8,267.7-84,267.7-88.2z"/>
			<path class="st8" d="M285.1-69.2c0.9,0,1.6-0.2,2-0.6c0.4-0.4,0.6-0.9,0.7-1.4c0.1-0.5,0.1-1.5,0.1-2.8v-17.2
				c0-1.1,0-2.1,0.1-2.9l-2.8,0.2v-1.7H304l0.2,7h-1.3c0-2.2-0.5-3.7-1.4-4.5c-0.9-0.8-2.2-1.2-3.9-1.1l-3.4,0.1
				c-0.9,0-1.6,0.2-2,0.5c-0.4,0.3-0.7,0.8-0.8,1.4c-0.1,0.6-0.2,1.5-0.2,2.8v6.4l7.4,0l-0.3-3.4h1.7v8.3h-1.3c0-1-0.1-1.7-0.4-2.2
				c-0.2-0.5-0.6-0.9-1.1-1c-0.5-0.2-1.2-0.3-2-0.3l-1.2,0l-2.9,0.1v9.1c0,1.4,0,2.4-0.1,3.1l7.5-0.1c1.8,0,3.2-0.5,4.2-1.4
				c1-0.9,1.5-2.5,1.5-4.7h1.3l-0.2,7.7h-20.2V-69.2z"/>
			<path class="st8" d="M330.7-72.5c-2-4.5-3.5-8-4.6-10.6c-1.1-2.6-2.2-5.3-3.2-8.2l0,1.7c-0.2,7.8-0.4,13.3-0.4,16.6
				c0,0.4,0,0.7,0,0.9c0,0.9,0,1.7-0.1,2.5l2.9-0.2v1.7h-7.5v-1.3c1.1,0,1.8-0.3,2.1-0.9c0.3-0.6,0.5-1.5,0.6-2.7l0.9-21.3l-2.8,0.1
				v-1.7h6l5.3,12.5c1.9,4.6,3.4,8.1,4.5,10.5h0.1c0.3-0.8,1-2.5,2-5.1c1-2.5,2.1-5.3,3.4-8.4c1.5-3.5,2.8-6.7,3.8-9.5h5.8v1.3
				c-0.9,0-1.6,0.2-2.1,0.8c-0.4,0.5-0.7,1.5-0.7,2.8l0,0.8l1,18.1c0.1,0.6,0.1,1.4,0.1,2.5l2.9-0.1v1.7h-8.8v-1.3
				c1,0,1.7-0.3,2.1-0.9c0.4-0.6,0.5-1.5,0.5-2.7c0-0.5,0-0.9,0-1.2l-1-16.9c-0.1,0.1-0.1,0.3-0.2,0.5c-0.1,0.2-0.2,0.5-0.3,0.8
				l-8.8,22.1h-1.2L330.7-72.5z"/>
			<path class="st8" d="M391-68.8c-1.6-1-2.8-2.5-3.4-4.6c-0.7-2.1-1-4.8-1-8.1v-8.1c0-1.7,0.1-3.2,0.2-4.6l-2.8,0.1v-1.7h8.8v1.3
				c-1.1,0-1.9,0.3-2.2,0.9c-0.3,0.6-0.5,1.4-0.5,2.2v10c0,2.3,0.2,4.3,0.6,6c0.4,1.7,1.2,3.1,2.4,4.1c1.2,1.1,2.9,1.6,5.1,1.6
				c2.7,0,4.7-0.9,6.1-2.8c1.3-1.9,2-4.5,2.1-7.7l0.1-11.2c0-1.1,0-2.1,0.1-2.9l-2.8,0.2v-1.7h7.3v1.3c-0.9,0-1.6,0.2-2,0.6
				c-0.4,0.4-0.6,0.9-0.7,1.4c-0.1,0.5-0.1,1.5-0.1,2.8l-0.1,9.2c0,3.8-0.9,7-2.5,9.4c-1.7,2.4-4.3,3.6-8,3.6
				C394.8-67.3,392.6-67.8,391-68.8z"/>
			<path class="st8" d="M363.9-69.2c0.9,0,1.6-0.2,2-0.6c0.4-0.4,0.6-0.9,0.7-1.4c0.1-0.5,0.1-1.5,0.1-2.8v-17.2
				c0-1.1,0-2.1,0.1-2.9l-2.8,0.2v-1.7h8.8v1.3c-0.9,0-1.6,0.2-2,0.6c-0.4,0.4-0.6,0.9-0.7,1.4c-0.1,0.5-0.1,1.5-0.1,2.8v16.9
				c0,1.4,0,2.5-0.1,3.1l2.8-0.2v1.7h-8.8V-69.2z"/>
			<path class="st8" d="M435.1-72.5c-2-4.5-3.5-8-4.6-10.6s-2.2-5.3-3.2-8.2l0,1.7c-0.2,7.8-0.4,13.3-0.4,16.6c0,0.4,0,0.7,0,0.9
				c0,0.9,0,1.7-0.1,2.5l2.9-0.2v1.7h-7.5v-1.3c1.1,0,1.8-0.3,2.1-0.9c0.3-0.6,0.5-1.5,0.6-2.7l0.9-21.3l-2.8,0.1v-1.7h6l5.3,12.5
				c1.9,4.6,3.4,8.1,4.5,10.5h0.1c0.3-0.8,1-2.5,2-5.1c1-2.5,2.1-5.3,3.4-8.4c1.5-3.5,2.8-6.7,3.8-9.5h5.8v1.3
				c-0.9,0-1.6,0.2-2.1,0.8c-0.4,0.5-0.7,1.5-0.7,2.8l0,0.8l1,18.1c0.1,0.6,0.1,1.4,0.1,2.5l2.9-0.1v1.7h-8.8v-1.3
				c1,0,1.7-0.3,2.1-0.9c0.4-0.6,0.5-1.5,0.5-2.7c0-0.5,0-0.9,0-1.2l-1-16.9c-0.1,0.1-0.1,0.3-0.2,0.5c-0.1,0.2-0.2,0.5-0.3,0.8
				l-8.8,22.1h-1.2L435.1-72.5z"/>
		</g>
		<g class="st3">
			<path class="st8" d="M486.6-106c1.1,0.5,1.7,1.8,2,2.9c0.3,1.2,0.2,2.5,0.1,3.7c-0.2,1.2-0.5,2.4-0.8,3.6c-0.4,1.2-0.8,2.3-1,3.5
				c-0.4,2.4,0.1,4.9,1.8,6.7c1.5,1.8,3.8,3,6,3.7l0.7,0.2l-0.7,0.2c-2.3,0.7-4.5,1.9-6,3.7c-1.6,1.8-2.2,4.4-1.8,6.7
				c0.2,1.2,0.6,2.3,1,3.5c0.4,1.2,0.6,2.4,0.8,3.6c0.1,1.2,0.2,2.5-0.1,3.7c-0.2,1.2-0.9,2.4-2,2.9c1.1-0.6,1.7-1.8,1.9-3
				c0.2-1.2,0.1-2.4,0-3.6c-0.2-1.2-0.5-2.4-0.8-3.6c-0.4-1.2-0.8-2.3-1-3.5c-0.4-2.4,0.1-5.1,1.8-7c1.6-1.9,3.8-3.2,6.2-3.9v0.4
				c-2.4-0.7-4.6-2-6.2-3.9c-1.7-1.9-2.2-4.6-1.8-7c0.2-1.2,0.6-2.4,1-3.5c0.4-1.2,0.6-2.4,0.8-3.6c0.2-1.2,0.2-2.4,0-3.6
				C488.3-104.2,487.7-105.4,486.6-106z"/>
			<path class="st8" d="M191.9-57.2c-1.1-0.5-1.7-1.8-2-2.9c-0.3-1.2-0.2-2.5-0.1-3.7c0.2-1.2,0.5-2.4,0.8-3.6
				c0.4-1.2,0.8-2.3,1-3.5c0.4-2.4-0.1-4.9-1.8-6.7c-1.5-1.8-3.8-3-6-3.7l-0.7-0.2l0.7-0.2c2.3-0.7,4.5-1.9,6-3.7
				c1.6-1.8,2.2-4.4,1.8-6.7c-0.2-1.2-0.6-2.3-1-3.5c-0.4-1.2-0.6-2.4-0.8-3.6c-0.1-1.2-0.2-2.5,0.1-3.7c0.2-1.2,0.9-2.4,2-2.9
				c-1.1,0.6-1.7,1.8-1.9,3c-0.2,1.2-0.1,2.4,0,3.6c0.2,1.2,0.5,2.4,0.8,3.6c0.4,1.2,0.8,2.3,1,3.5c0.4,2.4-0.1,5.1-1.8,7
				c-1.6,1.9-3.8,3.2-6.2,3.9v-0.4c2.4,0.7,4.6,2,6.2,3.9c1.7,1.9,2.2,4.6,1.8,7c-0.2,1.2-0.6,2.4-1,3.5c-0.4,1.2-0.6,2.4-0.8,3.6
				c-0.2,1.2-0.2,2.4,0,3.6C190.2-59,190.8-57.7,191.9-57.2z"/>
		</g>
	</g>
</g>
</svg>
