<?xml version="1.0"?>
<svg xmlns="http://www.w3.org/2000/svg" id="Layer_1" enable-background="new 0 0 512 512" height="512px" viewBox="0 0 512 512" width="512px"><g><path d="m382.297 49.987 10.489 12.493c6.026 7.194 14.316 10.473 22.753 8.987 8.935-1.571 16.772-8.256 19.967-17.032 3.03-8.321 1.407-17.098-4.454-24.08l-17.41-20.733c-4.866-5.845-12.836-9.622-20.304-9.622h-274.676c-7.469 0-15.438 3.777-20.284 9.597l-17.431 20.76c-5.86 6.981-7.483 15.757-4.453 24.079 3.195 8.775 11.032 15.46 19.967 17.032 1.333.234 2.663.35 3.981.35 7.018 0 13.699-3.279 18.767-9.33l10.495-12.5h63.401v23.236h-9.931c-23.777 0-28.065 15.646-30.903 25.999l-2.889 10.556h-15.937c-31.367 0-56.886 25.545-56.886 56.944v120.044c0 4.174 3.383 7.557 7.556 7.557s7.556-3.383 7.556-7.557v-120.044c0-23.065 18.739-41.829 41.774-41.829h106.151c4.173 0 7.556-3.383 7.556-7.557s-3.383-7.557-7.556-7.557h-74.545l1.795-6.56c2.8-10.217 4.079-14.88 16.328-14.88h17.488 111.505 17.488c12.261 0 13.53 4.672 16.31 14.908l1.798 6.532h-74.444c-4.173 0-7.556 3.383-7.556 7.557s3.383 7.557 7.556 7.557h84.334c.008 0 .016.002.024.002.01 0 .019-.002.029-.002h19.4c23.034 0 41.774 18.764 41.774 41.829v206.44h-79.369-55.282-57.903-55.311-79.345v-53.063c0-4.174-3.383-7.557-7.556-7.557s-7.556 3.384-7.556 7.557v65.012c0 27.019 18.902 49.686 44.159 55.489l-28.37 45.379c-.025.04-.049.079-.073.119-.309.516-.687 1.053-1.087 1.622l-.495.71c-.667.976-1.285 1.871-1.852 2.691-4.452 6.446-7.394 10.705-4.699 15.843 2.642 5.035 8.178 5.035 12.22 5.035h40.472 235.912 40.501c4.515 0 8.348-2.253 10.252-6.026 1.746-3.463 2.524-9.356-3.687-17.765-8.21-11.131-16.753-25.438-25.015-39.274-1.702-2.851-3.358-5.619-4.989-8.329 25.269-5.795 44.183-28.468 44.183-55.495v-218.388c0-31.399-25.519-56.944-56.886-56.944h-13.668l-2.889-10.494c-2.818-10.378-7.077-26.061-30.894-26.061h-9.931v-23.237zm-90.515 338.291h40.17v38.663h-40.17zm-57.903 0h42.79v38.663h-42.79zm-55.312 0h40.198v38.663h-40.198zm-2.838 53.777h50.594 57.903 50.641l9.403 19.872h-178.25zm-83.927-53.777h71.652v38.663h-30.011c-21.968 0-40.017-17.074-41.641-38.663zm54.983 78.587-14.669 30.021h-28.895l.332-.475c.475-.677 1.064-1.514 1.64-2.47l32.438-51.885h21.277l-11.461 23.455c-.264.425-.486.878-.662 1.354zm2.151 30.02 9.696-19.844h192.788l9.389 19.844zm258.496 0h-29.903l-25.944-54.83h21.422c2.835 4.62 5.757 9.512 8.813 14.63 8.377 14.026 17.034 28.525 25.612 40.2zm-30.329-69.944h-30.039v-38.663h71.681c-1.623 21.589-19.672 38.663-41.642 38.663zm-250.921-392.068c-2.233 0-4.351.988-5.787 2.698l-12.765 15.204c-2.573 3.071-5.45 4.352-8.551 3.806-3.598-.633-7.046-3.641-8.384-7.317-1.182-3.245-.567-6.337 1.826-9.188l17.451-20.783c2.016-2.421 5.67-4.178 8.69-4.178h274.676c3.02 0 6.674 1.757 8.711 4.203l17.429 20.757c2.394 2.852 3.009 5.944 1.827 9.189-1.338 3.675-4.785 6.684-8.384 7.317-3.101.546-5.979-.736-8.556-3.813l-12.76-15.198c-1.436-1.71-3.554-2.698-5.786-2.698h-73.653-111.505-74.479zm178.427 38.351h-96.392v-23.237h96.392z" data-original="#000000" class="active-path" data-old_color="#000000" fill="#FFFFFF"/><path d="m397.135 231.022v-53.378c0-15.236-14.671-27.631-32.706-27.631h-218.31c-18.034 0-32.706 12.396-32.706 27.631v53.378c0 14.056 15.79 24.146 48.271 30.846 24.791 5.114 57.881 7.949 93.269 8.004.102.004.202.015.306.015.085 0 .167-.01.251-.013.162 0 .323.002.486.002 35.583 0 68.76-2.825 93.421-7.955 32.109-6.678 47.718-16.786 47.718-30.899zm-149.432 23.679c-26.417-.348-51.79-2.348-72.17-5.666l17.058-25.952c2.293-3.487 1.324-8.173-2.163-10.466-3.487-2.291-8.172-1.324-10.465 2.164l-20.465 31.135c-25.244-5.889-30.972-12.657-30.972-14.894v-53.378c0-6.785 8.057-12.517 17.593-12.517h101.585v89.574zm134.319-23.679c0 3.002-7.458 10.231-35.682 16.102-8.366 1.74-17.799 3.198-28.003 4.364l14.697-22.36c2.293-3.487 1.324-8.173-2.163-10.466-3.487-2.292-8.172-1.325-10.465 2.164l-21.327 32.446c-11.503.83-23.687 1.323-36.263 1.453v-89.598h101.613c9.536 0 17.593 5.732 17.593 12.517z" data-original="#000000" class="active-path" data-old_color="#000000" fill="#FFFFFF"/><path d="m272.434 291.214h-34.548c-4.173 0-7.556 3.383-7.556 7.557s3.383 7.557 7.556 7.557h34.548c4.173 0 7.556-3.383 7.556-7.557s-3.383-7.557-7.556-7.557z" data-original="#000000" class="active-path" data-old_color="#000000" fill="#FFFFFF"/><path d="m272.434 325.288h-34.548c-4.173 0-7.556 3.383-7.556 7.557s3.383 7.557 7.556 7.557h34.548c4.173 0 7.556-3.384 7.556-7.557 0-4.174-3.383-7.557-7.556-7.557z" data-original="#000000" class="active-path" data-old_color="#000000" fill="#FFFFFF"/><path d="m138.522 285.495c-3.1-.576-6.31.279-8.804 2.349-2.719 2.256-4.343 5.723-4.343 9.274v31.508c0 6.494 5.281 11.777 11.772 11.777h54.229c6.475 0 11.743-5.283 11.743-11.777v-21.443c0-5.7-4.249-10.488-10.368-11.651zm-2.769 14.858c.006.001.012.002.019.003h.002c-.007 0-.014-.001-.021-.003zm52.253 24.935h-47.518v-24.058l47.518 8.795z" data-original="#000000" class="active-path" data-old_color="#000000" fill="#FFFFFF"/><path d="m372.026 285.495-54.264 10.044c-6.084 1.156-10.333 5.944-10.333 11.644v21.443c0 6.494 5.268 11.777 11.743 11.777h54.229c6.475 0 11.743-5.283 11.743-11.777v-31.508c0-3.56-1.621-7.031-4.337-9.284-2.485-2.063-5.683-2.918-8.781-2.339zm-1.995 39.793h-47.49v-15.263l47.49-8.79z" data-original="#000000" class="active-path" data-old_color="#000000" fill="#FFFFFF"/></g> </svg>
